<svg width="1024" height="1024" viewBox="0 0 1024 1024" fill="none" xmlns="http://www.w3.org/2000/svg">
<rect width="1024" height="1024" rx="100" fill="#0B2522"/>
<path d="M731.331 676.792L761.413 750.183C773.525 779.733 740.726 807.652 712.428 791.881L529.551 689.962C518.986 684.074 506.024 684.074 495.459 689.962L311.568 792.446C283.381 808.155 250.649 780.501 262.489 750.981L291.396 678.905L495.117 568.847C507.08 562.384 521.61 562.413 533.546 568.923L731.331 676.792Z" fill="#82CCBD"/>
<path d="M706.943 617.293L541.688 214.118C530.1 185.848 489.088 185.997 477.715 214.351L314.997 620.06L475.139 533.545C499.585 520.338 529.277 520.396 553.669 533.699L706.943 617.293Z" fill="#4D7571"/>
</svg>
