<svg width="16" height="17" viewBox="0 0 16 17" fill="none" xmlns="http://www.w3.org/2000/svg">
<path fill-rule="evenodd" clip-rule="evenodd" d="M13.75 14.25C13.75 14.6642 13.4142 15 13 15H3C2.58579 15 2.25 14.6642 2.25 14.25C2.25 13.8358 2.58579 13.5 3 13.5H13C13.4142 13.5 13.75 13.8358 13.75 14.25Z" fill="#1C1E21"/>
<path fill-rule="evenodd" clip-rule="evenodd" d="M8.7487 2.5C8.7487 2.08579 8.41291 1.75 7.9987 1.75C7.58448 1.75 7.2487 2.08579 7.2487 2.5V10.0395L3.19233 6.01449C2.89831 5.72274 2.42344 5.72458 2.13168 6.0186C1.83993 6.31263 1.84177 6.7875 2.13579 7.07925L7.46912 12.3714C7.76154 12.6616 8.23325 12.6616 8.52567 12.3714L13.859 7.07926C14.153 6.7875 14.1549 6.31263 13.8631 6.0186C13.5714 5.72458 13.0965 5.72274 12.8025 6.01449L8.7487 10.037V2.5Z" fill="#1C1E21"/>
</svg>
