<svg width="406" height="170" viewBox="0 0 406 170" fill="none" xmlns="http://www.w3.org/2000/svg">
<g filter="url(#filter0_d_11_921)">
<g filter="url(#filter1_b_11_921)">
<rect x="121" y="44" width="140" height="60" rx="13" fill="white"/>
</g>
</g>
<path d="M133.005 74V64.8403H134.649L137.613 72.1528H137.651L140.622 64.8403H142.26V74H140.965V67.2397H140.92L138.159 74H137.105L134.344 67.2397H134.3V74H133.005ZM145.489 74.1206C144.156 74.1206 143.261 73.3018 143.261 72.1021V72.0894C143.261 70.9277 144.162 70.2168 145.743 70.1216L147.558 70.0137V69.5122C147.558 68.7759 147.082 68.3315 146.231 68.3315C145.438 68.3315 144.949 68.7061 144.835 69.2393L144.822 69.2964H143.527L143.534 69.2266C143.629 68.0776 144.625 67.1953 146.269 67.1953C147.901 67.1953 148.935 68.0586 148.935 69.3979V74H147.558V72.9463H147.533C147.145 73.6636 146.371 74.1206 145.489 74.1206ZM144.644 72.0703C144.644 72.6543 145.127 73.0225 145.863 73.0225C146.828 73.0225 147.558 72.3687 147.558 71.499V70.9785L145.927 71.0801C145.101 71.1309 144.644 71.4927 144.644 72.0576V72.0703ZM152.691 74.1333C151.022 74.1333 150.044 73.3081 149.905 72.0894L149.898 72.0322H151.257L151.27 72.0957C151.397 72.7114 151.854 73.0732 152.698 73.0732C153.523 73.0732 154.018 72.7305 154.018 72.1909V72.1846C154.018 71.7529 153.777 71.5054 153.06 71.334L151.968 71.0864C150.698 70.7944 150.07 70.1851 150.07 69.2139V69.2075C150.07 68.0142 151.111 67.1953 152.647 67.1953C154.228 67.1953 155.18 68.0776 155.25 69.2139L155.256 69.29H153.967L153.961 69.2456C153.878 68.6616 153.421 68.2554 152.647 68.2554C151.911 68.2554 151.447 68.6045 151.447 69.1377V69.144C151.447 69.5566 151.72 69.8359 152.438 70.0073L153.523 70.2549C154.888 70.5723 155.408 71.1118 155.408 72.0703V72.0767C155.408 73.2954 154.266 74.1333 152.691 74.1333ZM157.127 66.2939C156.682 66.2939 156.327 65.9385 156.327 65.5068C156.327 65.0688 156.682 64.7134 157.127 64.7134C157.577 64.7134 157.926 65.0688 157.926 65.5068C157.926 65.9385 157.577 66.2939 157.127 66.2939ZM155.629 76.2344C155.521 76.2344 155.4 76.228 155.311 76.2217V75.0981C155.375 75.0981 155.438 75.1045 155.508 75.1045C156.187 75.1045 156.441 74.8887 156.441 74.2158V67.3223H157.812V74.2285C157.812 75.5869 157.108 76.2344 155.629 76.2344ZM159.892 66.2939C159.448 66.2939 159.093 65.9385 159.093 65.5068C159.093 65.0688 159.448 64.7134 159.892 64.7134C160.343 64.7134 160.692 65.0688 160.692 65.5068C160.692 65.9385 160.343 66.2939 159.892 66.2939ZM159.207 74V67.3223H160.578V74H159.207ZM164.41 74.1333C162.709 74.1333 161.617 72.7876 161.617 70.6611V70.6548C161.617 68.5283 162.722 67.1953 164.397 67.1953C165.343 67.1953 166.105 67.6714 166.505 68.4585H166.53V64.8403H167.908V74H166.53V72.8701H166.505C166.105 73.6509 165.369 74.1333 164.41 74.1333ZM164.772 72.9526C165.807 72.9526 166.537 72.0513 166.537 70.6611V70.6548C166.537 69.271 165.8 68.3696 164.772 68.3696C163.693 68.3696 163.02 69.2456 163.02 70.6548V70.6611C163.02 72.083 163.686 72.9526 164.772 72.9526ZM171.966 74V64.8403H175.521C177.394 64.8403 178.574 65.9258 178.574 67.646V67.6587C178.574 68.9028 177.895 69.8931 176.797 70.2676L178.847 74H177.21L175.343 70.4834H173.388V74H171.966ZM173.388 69.3154H175.382C176.48 69.3154 177.108 68.7124 177.108 67.6714V67.6587C177.108 66.6431 176.435 66.0337 175.343 66.0337H173.388V69.3154ZM181.518 74.1206C180.185 74.1206 179.29 73.3018 179.29 72.1021V72.0894C179.29 70.9277 180.191 70.2168 181.772 70.1216L183.587 70.0137V69.5122C183.587 68.7759 183.111 68.3315 182.261 68.3315C181.467 68.3315 180.978 68.7061 180.864 69.2393L180.851 69.2964H179.556L179.563 69.2266C179.658 68.0776 180.655 67.1953 182.299 67.1953C183.93 67.1953 184.965 68.0586 184.965 69.3979V74H183.587V72.9463H183.562C183.175 73.6636 182.4 74.1206 181.518 74.1206ZM180.674 72.0703C180.674 72.6543 181.156 73.0225 181.892 73.0225C182.857 73.0225 183.587 72.3687 183.587 71.499V70.9785L181.956 71.0801C181.131 71.1309 180.674 71.4927 180.674 72.0576V72.0703ZM186.994 76.228C186.727 76.228 186.442 76.1963 186.277 76.1646V75.0918C186.385 75.1172 186.543 75.1426 186.727 75.1426C187.375 75.1426 187.73 74.9712 187.959 74.3237L188.073 74.0063L185.642 67.3223H187.127L188.81 72.7559H188.854L190.536 67.3223H191.983L189.495 74.311C189 75.6948 188.302 76.228 186.994 76.228ZM194.527 74.1206C193.194 74.1206 192.299 73.3018 192.299 72.1021V72.0894C192.299 70.9277 193.2 70.2168 194.781 70.1216L196.596 70.0137V69.5122C196.596 68.7759 196.12 68.3315 195.27 68.3315C194.476 68.3315 193.987 68.7061 193.873 69.2393L193.86 69.2964H192.565L192.572 69.2266C192.667 68.0776 193.664 67.1953 195.308 67.1953C196.939 67.1953 197.974 68.0586 197.974 69.3979V74H196.596V72.9463H196.571C196.184 73.6636 195.409 74.1206 194.527 74.1206ZM193.683 72.0703C193.683 72.6543 194.165 73.0225 194.901 73.0225C195.866 73.0225 196.596 72.3687 196.596 71.499V70.9785L194.965 71.0801C194.14 71.1309 193.683 71.4927 193.683 72.0576V72.0703ZM201.277 74L204.61 64.8403H206.146L209.472 74H207.98L207.142 71.5244H203.613L202.769 74H201.277ZM205.365 66.3574L203.994 70.3818H206.755L205.39 66.3574H205.365ZM210.295 74V64.8403H211.666V74H210.295ZM213.093 70.9023V69.6646H217.174V70.9023H213.093ZM217.814 74L221.146 64.8403H222.682L226.008 74H224.517L223.679 71.5244H220.15L219.305 74H217.814ZM221.902 66.3574L220.53 70.3818H223.292L221.927 66.3574H221.902ZM226.857 74V64.8403H228.228V70.1724H228.26L230.939 67.3223H232.551L229.809 70.2041L232.659 74H231.066L228.8 71.0293L228.228 71.5942V74H226.857ZM236.815 74.1333C235.856 74.1333 235.114 73.6509 234.72 72.8701H234.688V74H233.317V64.8403H234.688V68.4585H234.72C235.12 67.6714 235.882 67.1953 236.828 67.1953C238.503 67.1953 239.608 68.5283 239.608 70.6548V70.6611C239.608 72.7876 238.51 74.1333 236.815 74.1333ZM236.453 72.9526C237.532 72.9526 238.205 72.083 238.205 70.6611V70.6548C238.205 69.2456 237.532 68.3696 236.453 68.3696C235.418 68.3696 234.682 69.271 234.682 70.6548V70.6611C234.682 72.0513 235.412 72.9526 236.453 72.9526ZM242.551 74.1206C241.218 74.1206 240.323 73.3018 240.323 72.1021V72.0894C240.323 70.9277 241.225 70.2168 242.805 70.1216L244.621 70.0137V69.5122C244.621 68.7759 244.145 68.3315 243.294 68.3315C242.501 68.3315 242.012 68.7061 241.898 69.2393L241.885 69.2964H240.59L240.596 69.2266C240.691 68.0776 241.688 67.1953 243.332 67.1953C244.963 67.1953 245.998 68.0586 245.998 69.3979V74H244.621V72.9463H244.595C244.208 73.6636 243.434 74.1206 242.551 74.1206ZM241.707 72.0703C241.707 72.6543 242.19 73.0225 242.926 73.0225C243.891 73.0225 244.621 72.3687 244.621 71.499V70.9785L242.989 71.0801C242.164 71.1309 241.707 71.4927 241.707 72.0576V72.0703ZM247.253 74V67.3223H248.624V68.4648H248.656C248.872 67.6841 249.43 67.1953 250.192 67.1953C250.389 67.1953 250.56 67.2271 250.668 67.2461V68.522C250.56 68.4775 250.319 68.4458 250.052 68.4458C249.17 68.4458 248.624 69.0234 248.624 70.02V74H247.253Z" fill="#496F6B"/>
<path d="M157.651 89V81.2495H162.453V82.1196H158.618V84.6064H162.254V85.4658H158.618V88.1299H162.453V89H157.651ZM165.634 89.1074C164.318 89.1074 163.523 88.436 163.411 87.437L163.405 87.3887H164.34L164.351 87.4424C164.463 88.001 164.877 88.3286 165.64 88.3286C166.397 88.3286 166.848 88.0117 166.848 87.5068V87.5015C166.848 87.0986 166.639 86.873 166.005 86.7173L165.119 86.5024C164.066 86.25 163.556 85.7612 163.556 84.9556V84.9502C163.556 83.9888 164.399 83.3066 165.607 83.3066C166.832 83.3066 167.611 84.021 167.681 84.9556L167.686 85.0254H166.794L166.789 84.9878C166.714 84.4453 166.3 84.0854 165.607 84.0854C164.931 84.0854 164.512 84.4131 164.512 84.9072V84.9126C164.512 85.2939 164.764 85.5571 165.382 85.7075L166.268 85.9224C167.396 86.1963 167.804 86.6421 167.804 87.437V87.4424C167.804 88.4199 166.88 89.1074 165.634 89.1074ZM170.658 89.1074C169.632 89.1074 169.127 88.6455 169.127 87.5767V84.1875H168.311V83.4141H169.127V81.9048H170.094V83.4141H171.157V84.1875H170.094V87.5713C170.094 88.1675 170.357 88.334 170.857 88.334C170.969 88.334 171.077 88.3179 171.157 88.3125V89.0698C171.039 89.0859 170.84 89.1074 170.658 89.1074ZM172.754 82.4688C172.432 82.4688 172.169 82.2056 172.169 81.8833C172.169 81.5557 172.432 81.2979 172.754 81.2979C173.082 81.2979 173.34 81.5557 173.34 81.8833C173.34 82.2056 173.082 82.4688 172.754 82.4688ZM172.287 89V83.4141H173.221V89H172.287ZM174.56 89V83.4141H175.495V84.2305H175.516C175.769 83.6772 176.327 83.3066 177.047 83.3066C177.81 83.3066 178.374 83.6987 178.615 84.3809H178.637C178.948 83.7095 179.604 83.3066 180.388 83.3066C181.494 83.3066 182.209 84.0317 182.209 85.1436V89H181.274V85.3584C181.274 84.5903 180.85 84.1338 180.114 84.1338C179.373 84.1338 178.852 84.687 178.852 85.4497V89H177.917V85.2563C177.917 84.5796 177.466 84.1338 176.773 84.1338C176.032 84.1338 175.495 84.7192 175.495 85.498V89H174.56ZM185.1 89.1074C183.988 89.1074 183.242 88.436 183.242 87.4209V87.4102C183.242 86.4595 183.983 85.8633 185.266 85.7881L186.867 85.6968V85.2295C186.867 84.5474 186.421 84.1338 185.642 84.1338C184.923 84.1338 184.472 84.4775 184.364 84.9771L184.353 85.0254H183.451L183.456 84.9663C183.537 84.0479 184.337 83.3066 185.653 83.3066C186.974 83.3066 187.802 84.021 187.802 85.1382V89H186.867V88.0923H186.846C186.518 88.7046 185.847 89.1074 185.1 89.1074ZM184.198 87.4209C184.198 87.958 184.638 88.2964 185.309 88.2964C186.19 88.2964 186.867 87.6895 186.867 86.8784V86.4219L185.374 86.5132C184.627 86.5562 184.198 86.8892 184.198 87.4102V87.4209ZM191.037 89.1074C189.721 89.1074 188.926 88.436 188.813 87.437L188.808 87.3887H189.742L189.753 87.4424C189.866 88.001 190.279 88.3286 191.042 88.3286C191.799 88.3286 192.25 88.0117 192.25 87.5068V87.5015C192.25 87.0986 192.041 86.873 191.407 86.7173L190.521 86.5024C189.468 86.25 188.958 85.7612 188.958 84.9556V84.9502C188.958 83.9888 189.801 83.3066 191.01 83.3066C192.234 83.3066 193.013 84.021 193.083 84.9556L193.088 85.0254H192.197L192.191 84.9878C192.116 84.4453 191.703 84.0854 191.01 84.0854C190.333 84.0854 189.914 84.4131 189.914 84.9072V84.9126C189.914 85.2939 190.166 85.5571 190.784 85.7075L191.67 85.9224C192.798 86.1963 193.206 86.6421 193.206 87.437V87.4424C193.206 88.4199 192.283 89.1074 191.037 89.1074ZM194.771 82.4688C194.449 82.4688 194.186 82.2056 194.186 81.8833C194.186 81.5557 194.449 81.2979 194.771 81.2979C195.099 81.2979 195.356 81.5557 195.356 81.8833C195.356 82.2056 195.099 82.4688 194.771 82.4688ZM194.304 89V83.4141H195.238V89H194.304ZM197.152 84.918C196.808 84.918 196.54 84.6494 196.54 84.3057C196.54 83.9619 196.808 83.6934 197.152 83.6934C197.496 83.6934 197.764 83.9619 197.764 84.3057C197.764 84.6494 197.496 84.918 197.152 84.918ZM197.152 89.0752C196.808 89.0752 196.54 88.8066 196.54 88.4629C196.54 88.1191 196.808 87.8506 197.152 87.8506C197.496 87.8506 197.764 88.1191 197.764 88.4629C197.764 88.8066 197.496 89.0752 197.152 89.0752ZM203.326 89V82.2754H203.305L201.253 83.7041V82.7319L203.316 81.2495H204.261V89H203.326ZM208.962 89.1289C207.319 89.1289 206.148 88.2051 206.148 86.9053V86.8945C206.148 85.9385 206.819 85.1436 207.813 84.9126V84.8911C206.964 84.6279 206.427 83.9834 206.427 83.167V83.1562C206.427 81.9854 207.496 81.1206 208.962 81.1206C210.429 81.1206 211.497 81.9854 211.497 83.1562V83.167C211.497 83.9834 210.96 84.6279 210.112 84.8911V84.9126C211.105 85.1436 211.777 85.9385 211.777 86.8945V86.9053C211.777 88.2051 210.606 89.1289 208.962 89.1289ZM208.962 84.5312C209.897 84.5312 210.536 83.9995 210.536 83.2476V83.2368C210.536 82.4849 209.897 81.9531 208.962 81.9531C208.028 81.9531 207.389 82.4849 207.389 83.2368V83.2476C207.389 83.9995 208.028 84.5312 208.962 84.5312ZM208.962 88.2856C210.031 88.2856 210.794 87.6841 210.794 86.8462V86.8354C210.794 85.9868 210.036 85.3799 208.962 85.3799C207.888 85.3799 207.131 85.9868 207.131 86.8354V86.8462C207.131 87.6841 207.893 88.2856 208.962 88.2856ZM213.347 89.0752C213.003 89.0752 212.734 88.8066 212.734 88.4629C212.734 88.1191 213.003 87.8506 213.347 87.8506C213.69 87.8506 213.959 88.1191 213.959 88.4629C213.959 88.8066 213.69 89.0752 213.347 89.0752ZM217.924 89.1289C216.141 89.1289 215.083 87.5874 215.083 85.1274V85.1167C215.083 82.6567 216.141 81.1206 217.924 81.1206C219.708 81.1206 220.776 82.6567 220.776 85.1167V85.1274C220.776 87.5874 219.708 89.1289 217.924 89.1289ZM217.924 88.2856C219.106 88.2856 219.804 87.0718 219.804 85.1274V85.1167C219.804 83.1724 219.106 81.9692 217.924 81.9692C216.743 81.9692 216.055 83.1724 216.055 85.1167V85.1274C216.055 87.0718 216.743 88.2856 217.924 88.2856ZM223.829 89V82.2754H223.807L221.755 83.7041V82.7319L223.818 81.2495H224.763V89H223.829Z" fill="#898989"/>
<rect x="141" y="39" width="102" height="17" rx="8.5" fill="#74B0AA"/>
<path d="M156.111 51V43.2495H157.986L160.188 48.8193H160.22L162.422 43.2495H164.297V51H162.852V45.7578H162.803L160.714 51H159.694L157.599 45.7578H157.556V51H156.111ZM167.113 51.0913C165.958 51.0913 165.179 50.3662 165.179 49.3511V49.3403C165.179 48.293 165.99 47.6807 167.419 47.5894L168.842 47.5034V47.1489C168.842 46.6387 168.509 46.3218 167.897 46.3218C167.311 46.3218 166.957 46.5957 166.882 46.9663L166.871 47.0146H165.437L165.442 46.9502C165.528 45.8867 166.441 45.124 167.961 45.124C169.449 45.124 170.41 45.8921 170.41 47.0522V51H168.842V50.1406H168.81C168.482 50.7314 167.87 51.0913 167.113 51.0913ZM166.731 49.2705C166.731 49.6948 167.08 49.9473 167.623 49.9473C168.326 49.9473 168.842 49.4961 168.842 48.8945V48.481L167.655 48.5562C167.048 48.5938 166.731 48.8516 166.731 49.2598V49.2705ZM174.182 52.998C172.598 52.998 171.599 52.2837 171.449 51.3599L171.443 51.3115H172.969L172.985 51.3491C173.108 51.6338 173.527 51.8809 174.182 51.8809C174.994 51.8809 175.423 51.4619 175.423 50.8174V49.9365H175.391C175.09 50.5381 174.446 50.9194 173.613 50.9194C172.174 50.9194 171.282 49.8452 171.282 48.0566V48.0513C171.282 46.2144 172.184 45.124 173.64 45.124C174.451 45.124 175.079 45.5537 175.391 46.2251H175.423V45.2422H176.992V50.8389C176.992 52.1226 175.912 52.998 174.182 52.998ZM174.156 49.77C174.924 49.77 175.429 49.1255 175.429 48.0942V48.0889C175.429 47.063 174.918 46.4238 174.156 46.4238C173.377 46.4238 172.877 47.0576 172.877 48.0889V48.0942C172.877 49.1309 173.371 49.77 174.156 49.77ZM178.089 51V45.2422H179.657V46.2466H179.689C179.861 45.5376 180.329 45.124 181 45.124C181.172 45.124 181.333 45.1509 181.451 45.1831V46.5635C181.322 46.5098 181.107 46.4775 180.882 46.4775C180.108 46.4775 179.657 46.9395 179.657 47.7773V51H178.089ZM182.978 44.501C182.505 44.501 182.14 44.1304 182.14 43.6846C182.14 43.2388 182.505 42.8682 182.978 42.8682C183.451 42.8682 183.816 43.2388 183.816 43.6846C183.816 44.1304 183.451 44.501 182.978 44.501ZM182.194 51V45.2422H183.762V51H182.194ZM188.292 51.1182C187.464 51.1182 186.831 50.6992 186.519 50.0171H186.487V51H184.919V43.2495H186.487V46.2412H186.519C186.836 45.543 187.475 45.124 188.297 45.124C189.742 45.124 190.639 46.2412 190.639 48.1157V48.1211C190.639 49.9902 189.742 51.1182 188.292 51.1182ZM187.771 49.8184C188.549 49.8184 189.044 49.1685 189.044 48.1211V48.1157C189.044 47.063 188.549 46.4238 187.771 46.4238C187.013 46.4238 186.487 47.0791 186.487 48.1157V48.1211C186.487 49.1631 187.008 49.8184 187.771 49.8184ZM195.82 52.8799C194.708 51.5425 194.224 49.9902 194.224 48.0674C194.224 46.1284 194.708 44.5762 195.82 43.2495H197.259C196.459 44.1841 195.841 46.2305 195.841 48.062C195.841 49.8882 196.459 51.9346 197.259 52.8799H195.82ZM200 51V44.7373H199.968L197.991 46.0801V44.6406L199.995 43.2495H201.606V51H200ZM206.436 51.1343C204.588 51.1343 203.31 50.2158 203.31 48.8838V48.873C203.31 47.8687 204.057 47.1274 205.099 46.9233V46.8911C204.202 46.6709 203.595 46.021 203.595 45.1938V45.1831C203.595 43.9854 204.76 43.1152 206.436 43.1152C208.106 43.1152 209.277 43.9854 209.277 45.1831V45.1938C209.277 46.021 208.665 46.6709 207.773 46.8911V46.9233C208.81 47.1274 209.557 47.8687 209.557 48.873V48.8838C209.557 50.2158 208.284 51.1343 206.436 51.1343ZM206.436 46.4023C207.166 46.4023 207.671 45.9673 207.671 45.3442V45.3335C207.671 44.7158 207.161 44.2861 206.436 44.2861C205.711 44.2861 205.195 44.7158 205.195 45.3335V45.3442C205.195 45.9673 205.706 46.4023 206.436 46.4023ZM206.436 49.9526C207.279 49.9526 207.875 49.4585 207.875 48.7764V48.7656C207.875 48.0781 207.29 47.5786 206.436 47.5786C205.582 47.5786 204.991 48.0781 204.991 48.7656V48.7764C204.991 49.4585 205.587 49.9526 206.436 49.9526ZM211.314 51.0913C210.826 51.0913 210.444 50.7046 210.444 50.2212C210.444 49.7324 210.826 49.3511 211.314 49.3511C211.798 49.3511 212.185 49.7324 212.185 50.2212C212.185 50.7046 211.798 51.0913 211.314 51.0913ZM214.764 51V44.7373H214.732L212.755 46.0801V44.6406L214.759 43.2495H216.37V51H214.764ZM218.176 51V49.8882L220.916 47.3262C221.915 46.3916 222.124 46.0103 222.124 45.4731V45.4624C222.119 44.8286 221.635 44.3774 220.948 44.3774C220.153 44.3774 219.616 44.8984 219.594 45.5967L219.589 45.645H218.085V45.6021C218.085 44.1411 219.299 43.1152 220.937 43.1152C222.575 43.1152 223.703 44.0498 223.703 45.3711V45.3818C223.703 46.3218 223.258 46.9341 221.92 48.1641L220.298 49.6465V49.7109H223.811V51H218.176ZM225.966 52.8799H224.521C225.322 51.9346 225.939 49.8828 225.939 48.062C225.939 46.2305 225.322 44.1841 224.521 43.2495H225.966C227.073 44.5762 227.556 46.1284 227.556 48.0674C227.556 49.9849 227.073 51.5425 225.966 52.8799Z" fill="white"/>
<path d="M173.5 131.96C173.5 140.165 178.605 147.209 185.738 149.574L188.628 152.928C189.23 153.627 190.107 154.03 191.03 154.03C191.957 154.03 192.839 153.623 193.441 152.918L196.31 149.558C203.417 147.178 208.5 140.147 208.5 131.96C208.5 121.848 200.746 113.5 191 113.5C181.254 113.5 173.5 121.848 173.5 131.96Z" fill="#4D7571" stroke="white" stroke-width="3"/>
<path d="M198.138 131.503C199.792 133.776 199.057 135.368 198.342 136.638C198.216 136.861 197.988 136.996 197.743 136.996H184.275C184.031 136.996 183.803 136.861 183.677 136.638C182.962 135.368 182.227 133.776 183.881 131.503C184.164 131.088 185.174 130.223 186.289 129.585C187.799 128.78 190.684 126.815 190.797 125.898V125.7C190.797 125.576 190.892 125.475 191.009 125.475C191.127 125.475 191.222 125.576 191.222 125.7V125.898C191.335 126.815 194.22 128.78 195.73 129.585C196.845 130.223 197.855 131.088 198.138 131.503Z" fill="white"/>
<path d="M198.102 138.046H183.915C183.635 138.046 183.382 138.223 183.272 138.496L182.891 139.446C182.694 139.934 183.032 140.477 183.533 140.477H198.484C198.985 140.477 199.323 139.934 199.127 139.446L198.745 138.496C198.635 138.223 198.382 138.046 198.102 138.046Z" fill="white"/>
<path fill-rule="evenodd" clip-rule="evenodd" d="M191.219 126.043C192.872 126.043 194.212 124.649 194.212 122.929C194.212 122.791 194.015 122.773 193.953 122.895C193.62 123.553 192.965 124.001 192.211 124.001C191.121 124.001 190.237 123.064 190.237 121.908C190.237 121.12 190.647 120.434 191.254 120.077C191.362 120.013 191.343 119.815 191.219 119.815C189.566 119.815 188.226 121.209 188.226 122.929C188.226 124.649 189.566 126.043 191.219 126.043Z" fill="white"/>
<path d="M342.5 70.96C342.5 79.165 347.605 86.209 354.738 88.5737L357.628 91.9283C358.23 92.6275 359.107 93.0296 360.03 93.0296C360.957 93.0296 361.839 92.6233 362.441 91.9178L365.31 88.5578C372.417 86.1776 377.5 79.1467 377.5 70.96C377.5 60.8484 369.746 52.5 360 52.5C350.254 52.5 342.5 60.8484 342.5 70.96Z" fill="#4D7571" stroke="white" stroke-width="3"/>
<path d="M367.138 70.503C368.792 72.7755 368.057 74.3673 367.342 75.6378C367.216 75.8607 366.988 75.9959 366.743 75.9959H353.275C353.031 75.9959 352.803 75.8607 352.677 75.6378C351.962 74.3673 351.227 72.7755 352.881 70.503C353.164 70.0879 354.174 69.2226 355.289 68.5849C356.799 67.7795 359.684 65.8148 359.797 64.8981V64.6998C359.797 64.5754 359.892 64.4746 360.009 64.4746C360.127 64.4746 360.222 64.5754 360.222 64.6998V64.8981C360.335 65.8148 363.22 67.7795 364.73 68.5849C365.845 69.2226 366.855 70.0879 367.138 70.503Z" fill="white"/>
<path d="M367.102 77.0457H352.915C352.635 77.0457 352.382 77.2229 352.272 77.4959L351.891 78.4456C351.694 78.9341 352.032 79.4765 352.533 79.4765H367.484C367.985 79.4765 368.323 78.9341 368.127 78.4456L367.745 77.4959C367.635 77.2229 367.382 77.0457 367.102 77.0457Z" fill="white"/>
<path fill-rule="evenodd" clip-rule="evenodd" d="M360.218 65.043C361.871 65.043 363.211 63.6488 363.211 61.9288C363.211 61.791 363.014 61.7733 362.952 61.8948C362.619 62.5533 361.964 63.0011 361.21 63.0011C360.12 63.0011 359.236 62.064 359.236 60.9079C359.236 60.1199 359.646 59.4337 360.253 59.0765C360.361 59.0129 360.342 58.8147 360.218 58.8147C358.565 58.8147 357.225 60.2089 357.225 61.9288C357.225 63.6488 358.565 65.043 360.218 65.043Z" fill="white"/>
<path d="M41.5 32.96C41.5 41.165 46.6055 48.209 53.738 50.5737L56.6277 53.9283C57.23 54.6275 58.107 55.0296 59.0298 55.0296C59.9574 55.0296 60.8385 54.6233 61.4409 53.9178L64.3097 50.5578C71.4173 48.1776 76.5 41.1467 76.5 32.96C76.5 22.8484 68.7461 14.5 59 14.5C49.2539 14.5 41.5 22.8484 41.5 32.96Z" fill="#4D7571" stroke="white" stroke-width="3"/>
<path d="M66.1381 32.503C67.7919 34.7755 67.0571 36.3673 66.3419 37.6378C66.2165 37.8607 65.9885 37.9959 65.7435 37.9959H52.2755C52.0306 37.9959 51.8027 37.8607 51.6771 37.6378C50.962 36.3673 50.2271 34.7755 51.8809 32.503C52.1641 32.0879 53.1744 31.2226 54.2886 30.5849C55.7993 29.7795 58.6838 27.8148 58.7971 26.8981V26.6998C58.7971 26.5754 58.8922 26.4746 59.0095 26.4746C59.1269 26.4746 59.222 26.5754 59.222 26.6998V26.8981C59.3353 27.8148 62.2198 29.7795 63.7305 30.5849C64.8446 31.2226 65.8549 32.0879 66.1381 32.503Z" fill="white"/>
<path d="M66.1022 39.0457H51.9152C51.6352 39.0457 51.3822 39.2229 51.2725 39.4959L50.8907 40.4456C50.6943 40.9341 51.0324 41.4765 51.5334 41.4765H66.484C66.985 41.4765 67.3232 40.9341 67.1268 40.4456L66.745 39.4959C66.6352 39.2229 66.3823 39.0457 66.1022 39.0457Z" fill="white"/>
<path fill-rule="evenodd" clip-rule="evenodd" d="M59.2179 27.043C60.8711 27.043 62.2112 25.6488 62.2112 23.9288C62.2112 23.791 62.0136 23.7733 61.9521 23.8948C61.6195 24.5533 60.9642 25.0011 60.2103 25.0011C59.1196 25.0011 58.2356 24.064 58.2356 22.9079C58.2356 22.1199 58.6463 21.4337 59.2532 21.0765C59.3613 21.0129 59.3416 20.8147 59.2179 20.8147C57.5648 20.8147 56.2246 22.2089 56.2246 23.9288C56.2246 25.6488 57.5648 27.043 59.2179 27.043Z" fill="white"/>
<defs>
<filter id="filter0_d_11_921" x="121" y="44" width="140" height="60" filterUnits="userSpaceOnUse" color-interpolation-filters="sRGB">
<feFlood flood-opacity="0" result="BackgroundImageFix"/>
<feColorMatrix in="SourceAlpha" type="matrix" values="0 0 0 0 0 0 0 0 0 0 0 0 0 0 0 0 0 0 127 0" result="hardAlpha"/>
<feOffset/>
<feComposite in2="hardAlpha" operator="out"/>
<feColorMatrix type="matrix" values="0 0 0 0 0 0 0 0 0 0 0 0 0 0 0 0 0 0 0.1 0"/>
<feBlend mode="normal" in2="BackgroundImageFix" result="effect1_dropShadow_11_921"/>
<feBlend mode="normal" in="SourceGraphic" in2="effect1_dropShadow_11_921" result="shape"/>
</filter>
<filter id="filter1_b_11_921" x="-9" y="-86" width="400" height="320" filterUnits="userSpaceOnUse" color-interpolation-filters="sRGB">
<feFlood flood-opacity="0" result="BackgroundImageFix"/>
<feGaussianBlur in="BackgroundImageFix" stdDeviation="65"/>
<feComposite in2="SourceAlpha" operator="in" result="effect1_backgroundBlur_11_921"/>
<feBlend mode="normal" in="SourceGraphic" in2="effect1_backgroundBlur_11_921" result="shape"/>
</filter>
</defs>
</svg>
