<svg width="772" height="170" viewBox="0 0 772 170" fill="none" xmlns="http://www.w3.org/2000/svg">
<g filter="url(#filter0_d_11_726)">
<g filter="url(#filter1_b_11_726)">
<rect x="624" y="51" width="140" height="60" rx="13" fill="white"/>
</g>
</g>
<path d="M642.027 81V71.8403H643.671L646.636 79.1528H646.674L649.645 71.8403H651.282V81H649.987V74.2397H649.943L647.182 81H646.128L643.367 74.2397H643.322V81H642.027ZM654.511 81.1206C653.178 81.1206 652.283 80.3018 652.283 79.1021V79.0894C652.283 77.9277 653.185 77.2168 654.765 77.1216L656.581 77.0137V76.5122C656.581 75.7759 656.105 75.3315 655.254 75.3315C654.461 75.3315 653.972 75.7061 653.858 76.2393L653.845 76.2964H652.55L652.556 76.2266C652.651 75.0776 653.648 74.1953 655.292 74.1953C656.923 74.1953 657.958 75.0586 657.958 76.3979V81H656.581V79.9463H656.555C656.168 80.6636 655.394 81.1206 654.511 81.1206ZM653.667 79.0703C653.667 79.6543 654.15 80.0225 654.886 80.0225C655.851 80.0225 656.581 79.3687 656.581 78.499V77.9785L654.949 78.0801C654.124 78.1309 653.667 78.4927 653.667 79.0576V79.0703ZM661.714 81.1333C660.045 81.1333 659.067 80.3081 658.927 79.0894L658.921 79.0322H660.28L660.292 79.0957C660.419 79.7114 660.876 80.0732 661.72 80.0732C662.546 80.0732 663.041 79.7305 663.041 79.1909V79.1846C663.041 78.7529 662.8 78.5054 662.082 78.334L660.99 78.0864C659.721 77.7944 659.093 77.1851 659.093 76.2139V76.2075C659.093 75.0142 660.134 74.1953 661.67 74.1953C663.25 74.1953 664.202 75.0776 664.272 76.2139L664.279 76.29H662.99L662.984 76.2456C662.901 75.6616 662.444 75.2554 661.67 75.2554C660.933 75.2554 660.47 75.6045 660.47 76.1377V76.144C660.47 76.5566 660.743 76.8359 661.46 77.0073L662.546 77.2549C663.91 77.5723 664.431 78.1118 664.431 79.0703V79.0767C664.431 80.2954 663.288 81.1333 661.714 81.1333ZM666.149 73.2939C665.705 73.2939 665.349 72.9385 665.349 72.5068C665.349 72.0688 665.705 71.7134 666.149 71.7134C666.6 71.7134 666.949 72.0688 666.949 72.5068C666.949 72.9385 666.6 73.2939 666.149 73.2939ZM664.651 83.2344C664.543 83.2344 664.423 83.228 664.334 83.2217V82.0981C664.397 82.0981 664.461 82.1045 664.531 82.1045C665.21 82.1045 665.464 81.8887 665.464 81.2158V74.3223H666.835V81.2285C666.835 82.5869 666.13 83.2344 664.651 83.2344ZM668.915 73.2939C668.471 73.2939 668.115 72.9385 668.115 72.5068C668.115 72.0688 668.471 71.7134 668.915 71.7134C669.366 71.7134 669.715 72.0688 669.715 72.5068C669.715 72.9385 669.366 73.2939 668.915 73.2939ZM668.229 81V74.3223H669.601V81H668.229ZM673.433 81.1333C671.732 81.1333 670.64 79.7876 670.64 77.6611V77.6548C670.64 75.5283 671.744 74.1953 673.42 74.1953C674.366 74.1953 675.128 74.6714 675.527 75.4585H675.553V71.8403H676.93V81H675.553V79.8701H675.527C675.128 80.6509 674.391 81.1333 673.433 81.1333ZM673.795 79.9526C674.829 79.9526 675.559 79.0513 675.559 77.6611V77.6548C675.559 76.271 674.823 75.3696 673.795 75.3696C672.715 75.3696 672.043 76.2456 672.043 77.6548V77.6611C672.043 79.083 672.709 79.9526 673.795 79.9526ZM680.31 81L683.642 71.8403H685.179L688.505 81H687.013L686.175 78.5244H682.646L681.802 81H680.31ZM684.398 73.3574L683.027 77.3818H685.788L684.423 73.3574H684.398ZM689.328 81V71.8403H690.699V81H689.328ZM692.126 77.9023V76.6646H696.207V77.9023H692.126ZM697.754 81V71.8403H699.398L702.363 79.1528H702.401L705.371 71.8403H707.009V81H705.714V74.2397H705.67L702.908 81H701.855L699.094 74.2397H699.049V81H697.754ZM710.727 81.1333C709.261 81.1333 708.423 80.1875 708.423 78.6514V74.3223H709.794V78.3848C709.794 79.394 710.264 79.9526 711.216 79.9526C712.181 79.9526 712.803 79.2607 712.803 78.2197V74.3223H714.18V81H712.803V79.9971H712.771C712.422 80.6699 711.743 81.1333 710.727 81.1333ZM719.009 81.1333C718.05 81.1333 717.308 80.6509 716.914 79.8701H716.882V81H715.511V71.8403H716.882V75.4585H716.914C717.314 74.6714 718.076 74.1953 719.021 74.1953C720.697 74.1953 721.802 75.5283 721.802 77.6548V77.6611C721.802 79.7876 720.704 81.1333 719.009 81.1333ZM718.647 79.9526C719.726 79.9526 720.399 79.083 720.399 77.6611V77.6548C720.399 76.2456 719.726 75.3696 718.647 75.3696C717.612 75.3696 716.876 76.271 716.876 77.6548V77.6611C716.876 79.0513 717.606 79.9526 718.647 79.9526ZM724.745 81.1206C723.412 81.1206 722.517 80.3018 722.517 79.1021V79.0894C722.517 77.9277 723.419 77.2168 724.999 77.1216L726.815 77.0137V76.5122C726.815 75.7759 726.339 75.3315 725.488 75.3315C724.694 75.3315 724.206 75.7061 724.091 76.2393L724.079 76.2964H722.784L722.79 76.2266C722.885 75.0776 723.882 74.1953 725.526 74.1953C727.157 74.1953 728.192 75.0586 728.192 76.3979V81H726.815V79.9463H726.789C726.402 80.6636 725.628 81.1206 724.745 81.1206ZM723.901 79.0703C723.901 79.6543 724.383 80.0225 725.12 80.0225C726.085 80.0225 726.815 79.3687 726.815 78.499V77.9785L725.183 78.0801C724.358 78.1309 723.901 78.4927 723.901 79.0576V79.0703ZM729.447 81V74.3223H730.818V75.4648H730.85C731.066 74.6841 731.624 74.1953 732.386 74.1953C732.583 74.1953 732.754 74.2271 732.862 74.2461V75.522C732.754 75.4775 732.513 75.4458 732.246 75.4458C731.364 75.4458 730.818 76.0234 730.818 77.02V81H729.447ZM735.456 81.1206C734.123 81.1206 733.228 80.3018 733.228 79.1021V79.0894C733.228 77.9277 734.13 77.2168 735.71 77.1216L737.526 77.0137V76.5122C737.526 75.7759 737.05 75.3315 736.199 75.3315C735.406 75.3315 734.917 75.7061 734.803 76.2393L734.79 76.2964H733.495L733.501 76.2266C733.597 75.0776 734.593 74.1953 736.237 74.1953C737.869 74.1953 738.903 75.0586 738.903 76.3979V81H737.526V79.9463H737.5C737.113 80.6636 736.339 81.1206 735.456 81.1206ZM734.612 79.0703C734.612 79.6543 735.095 80.0225 735.831 80.0225C736.796 80.0225 737.526 79.3687 737.526 78.499V77.9785L735.894 78.0801C735.069 78.1309 734.612 78.4927 734.612 79.0576V79.0703ZM744.773 83.2217V79.9019H744.741C744.36 80.6509 743.599 81.1206 742.64 81.1206C740.964 81.1206 739.86 79.7812 739.86 77.6548V77.6484C739.86 75.5347 740.977 74.2017 742.672 74.2017C743.611 74.2017 744.348 74.7095 744.741 75.4712H744.773V74.3223H746.15V83.2217H744.773ZM743.027 79.9399C744.075 79.9399 744.773 79.0449 744.773 77.6611V77.6548C744.773 76.271 744.068 75.3823 743.027 75.3823C741.942 75.3823 741.263 76.2646 741.263 77.6484V77.6548C741.263 79.0703 741.942 79.9399 743.027 79.9399Z" fill="#496F6B"/>
<path d="M659.658 96V88.2495H664.459V89.1196H660.624V91.6064H664.261V92.4658H660.624V95.1299H664.459V96H659.658ZM667.641 96.1074C666.325 96.1074 665.53 95.436 665.417 94.437L665.412 94.3887H666.346L666.357 94.4424C666.47 95.001 666.883 95.3286 667.646 95.3286C668.403 95.3286 668.854 95.0117 668.854 94.5068V94.5015C668.854 94.0986 668.645 93.873 668.011 93.7173L667.125 93.5024C666.072 93.25 665.562 92.7612 665.562 91.9556V91.9502C665.562 90.9888 666.405 90.3066 667.614 90.3066C668.838 90.3066 669.617 91.021 669.687 91.9556L669.692 92.0254H668.801L668.795 91.9878C668.72 91.4453 668.307 91.0854 667.614 91.0854C666.937 91.0854 666.518 91.4131 666.518 91.9072V91.9126C666.518 92.2939 666.771 92.5571 667.388 92.7075L668.274 92.9224C669.402 93.1963 669.811 93.6421 669.811 94.437V94.4424C669.811 95.4199 668.887 96.1074 667.641 96.1074ZM672.664 96.1074C671.638 96.1074 671.133 95.6455 671.133 94.5767V91.1875H670.317V90.4141H671.133V88.9048H672.1V90.4141H673.164V91.1875H672.1V94.5713C672.1 95.1675 672.363 95.334 672.863 95.334C672.976 95.334 673.083 95.3179 673.164 95.3125V96.0698C673.045 96.0859 672.847 96.1074 672.664 96.1074ZM674.76 89.4688C674.438 89.4688 674.175 89.2056 674.175 88.8833C674.175 88.5557 674.438 88.2979 674.76 88.2979C675.088 88.2979 675.346 88.5557 675.346 88.8833C675.346 89.2056 675.088 89.4688 674.76 89.4688ZM674.293 96V90.4141H675.228V96H674.293ZM676.567 96V90.4141H677.501V91.2305H677.523C677.775 90.6772 678.334 90.3066 679.053 90.3066C679.816 90.3066 680.38 90.6987 680.622 91.3809H680.643C680.955 90.7095 681.61 90.3066 682.394 90.3066C683.501 90.3066 684.215 91.0317 684.215 92.1436V96H683.281V92.3584C683.281 91.5903 682.856 91.1338 682.12 91.1338C681.379 91.1338 680.858 91.687 680.858 92.4497V96H679.924V92.2563C679.924 91.5796 679.472 91.1338 678.78 91.1338C678.038 91.1338 677.501 91.7192 677.501 92.498V96H676.567ZM687.106 96.1074C685.994 96.1074 685.248 95.436 685.248 94.4209V94.4102C685.248 93.4595 685.989 92.8633 687.273 92.7881L688.873 92.6968V92.2295C688.873 91.5474 688.428 91.1338 687.649 91.1338C686.929 91.1338 686.478 91.4775 686.37 91.9771L686.36 92.0254H685.457L685.463 91.9663C685.543 91.0479 686.344 90.3066 687.66 90.3066C688.981 90.3066 689.808 91.021 689.808 92.1382V96H688.873V95.0923H688.852C688.524 95.7046 687.853 96.1074 687.106 96.1074ZM686.204 94.4209C686.204 94.958 686.644 95.2964 687.316 95.2964C688.197 95.2964 688.873 94.6895 688.873 93.8784V93.4219L687.38 93.5132C686.634 93.5562 686.204 93.8892 686.204 94.4102V94.4209ZM693.043 96.1074C691.727 96.1074 690.932 95.436 690.819 94.437L690.814 94.3887H691.748L691.759 94.4424C691.872 95.001 692.286 95.3286 693.048 95.3286C693.806 95.3286 694.257 95.0117 694.257 94.5068V94.5015C694.257 94.0986 694.047 93.873 693.413 93.7173L692.527 93.5024C691.475 93.25 690.964 92.7612 690.964 91.9556V91.9502C690.964 90.9888 691.808 90.3066 693.016 90.3066C694.241 90.3066 695.019 91.021 695.089 91.9556L695.095 92.0254H694.203L694.198 91.9878C694.122 91.4453 693.709 91.0854 693.016 91.0854C692.339 91.0854 691.92 91.4131 691.92 91.9072V91.9126C691.92 92.2939 692.173 92.5571 692.79 92.7075L693.677 92.9224C694.805 93.1963 695.213 93.6421 695.213 94.437V94.4424C695.213 95.4199 694.289 96.1074 693.043 96.1074ZM696.777 89.4688C696.455 89.4688 696.192 89.2056 696.192 88.8833C696.192 88.5557 696.455 88.2979 696.777 88.2979C697.105 88.2979 697.363 88.5557 697.363 88.8833C697.363 89.2056 697.105 89.4688 696.777 89.4688ZM696.31 96V90.4141H697.245V96H696.31ZM699.158 91.918C698.815 91.918 698.546 91.6494 698.546 91.3057C698.546 90.9619 698.815 90.6934 699.158 90.6934C699.502 90.6934 699.771 90.9619 699.771 91.3057C699.771 91.6494 699.502 91.918 699.158 91.918ZM699.158 96.0752C698.815 96.0752 698.546 95.8066 698.546 95.4629C698.546 95.1191 698.815 94.8506 699.158 94.8506C699.502 94.8506 699.771 95.1191 699.771 95.4629C699.771 95.8066 699.502 96.0752 699.158 96.0752ZM705.333 96V89.2754H705.311L703.26 90.7041V89.7319L705.322 88.2495H706.267V96H705.333ZM711.984 96V94.3887H708.09V93.5132L711.49 88.2495H712.918V93.54H714.014V94.3887H712.918V96H711.984ZM709.046 93.54H711.984V89.0767H711.951L709.046 93.5186V93.54ZM715.568 96.0752C715.224 96.0752 714.955 95.8066 714.955 95.4629C714.955 95.1191 715.224 94.8506 715.568 94.8506C715.912 94.8506 716.18 95.1191 716.18 95.4629C716.18 95.8066 715.912 96.0752 715.568 96.0752ZM720.215 96.1289C718.733 96.1289 717.675 95.2051 717.562 93.9429L717.557 93.8838H718.507L718.513 93.9268C718.609 94.6948 719.297 95.2803 720.226 95.2803C721.279 95.2803 722.009 94.5498 722.009 93.5078V93.4971C722.004 92.4766 721.268 91.7461 720.242 91.7461C719.716 91.7461 719.265 91.9019 718.921 92.2134C718.781 92.3423 718.658 92.4927 718.556 92.6699H717.702L718.099 88.2495H722.536V89.1089H718.894L718.631 91.7139H718.652C719.018 91.1929 719.662 90.9136 720.414 90.9136C721.902 90.9136 722.976 91.9932 722.976 93.481V93.4917C722.971 95.0439 721.827 96.1289 720.215 96.1289ZM726.754 96.1289C724.97 96.1289 723.912 94.5874 723.912 92.1274V92.1167C723.912 89.6567 724.97 88.1206 726.754 88.1206C728.537 88.1206 729.606 89.6567 729.606 92.1167V92.1274C729.606 94.5874 728.537 96.1289 726.754 96.1289ZM726.754 95.2856C727.935 95.2856 728.633 94.0718 728.633 92.1274V92.1167C728.633 90.1724 727.935 88.9692 726.754 88.9692C725.572 88.9692 724.884 90.1724 724.884 92.1167V92.1274C724.884 94.0718 725.572 95.2856 726.754 95.2856Z" fill="#898989"/>
<rect x="645" y="46" width="99" height="17" rx="8.5" fill="#74B0AA"/>
<path d="M659.6 58L662.307 50.2495H664.214L666.916 58H665.213L664.627 56.1201H661.888L661.303 58H659.6ZM663.242 51.7534L662.264 54.9062H664.251L663.274 51.7534H663.242ZM669.957 58.1182C668.362 58.1182 667.476 57.3823 667.352 56.292L667.347 56.2437H668.878L668.888 56.292C668.99 56.7432 669.329 57.0063 669.957 57.0063C670.548 57.0063 670.908 56.7754 670.908 56.4048V56.3994C670.908 56.0933 670.714 55.916 670.15 55.7925L669.173 55.5884C668.056 55.3521 667.492 54.7935 667.492 53.9341V53.9287C667.492 52.833 668.437 52.124 669.903 52.124C671.434 52.124 672.288 52.9351 672.326 53.9448V53.9985H670.881L670.876 53.9556C670.822 53.542 670.483 53.2305 669.903 53.2305C669.361 53.2305 669.023 53.4722 669.023 53.8428V53.8481C669.023 54.1436 669.221 54.3369 669.801 54.4604L670.779 54.6699C671.982 54.9224 672.476 55.395 672.476 56.2437V56.249C672.476 57.377 671.44 58.1182 669.957 58.1182ZM673.353 58V50.2495H674.922V53.2358H674.954C675.249 52.5215 675.856 52.124 676.721 52.124C677.967 52.124 678.74 52.9941 678.74 54.3853V58H677.172V54.7075C677.172 53.9019 676.775 53.4238 676.06 53.4238C675.367 53.4238 674.922 53.9502 674.922 54.7021V58H673.353ZM681.53 58.0913C680.375 58.0913 679.596 57.3662 679.596 56.3511V56.3403C679.596 55.293 680.407 54.6807 681.836 54.5894L683.259 54.5034V54.1489C683.259 53.6387 682.926 53.3218 682.314 53.3218C681.728 53.3218 681.374 53.5957 681.299 53.9663L681.288 54.0146H679.854L679.859 53.9502C679.945 52.8867 680.858 52.124 682.378 52.124C683.866 52.124 684.827 52.8921 684.827 54.0522V58H683.259V57.1406H683.227C682.899 57.7314 682.287 58.0913 681.53 58.0913ZM681.148 56.2705C681.148 56.6948 681.497 56.9473 682.04 56.9473C682.743 56.9473 683.259 56.4961 683.259 55.8945V55.481L682.072 55.5562C681.465 55.5938 681.148 55.8516 681.148 56.2598V56.2705ZM685.909 58V52.2422H687.477V53.2466H687.509C687.681 52.5376 688.148 52.124 688.82 52.124C688.992 52.124 689.153 52.1509 689.271 52.1831V53.5635C689.142 53.5098 688.927 53.4775 688.701 53.4775C687.928 53.4775 687.477 53.9395 687.477 54.7773V58H685.909ZM694.291 59.8799C693.179 58.5425 692.695 56.9902 692.695 55.0674C692.695 53.1284 693.179 51.5762 694.291 50.2495H695.73C694.93 51.1841 694.312 53.2305 694.312 55.062C694.312 56.8882 694.93 58.9346 695.73 59.8799H694.291ZM698.471 58V51.7373H698.439L696.462 53.0801V51.6406L698.465 50.2495H700.077V58H698.471ZM704.859 58.1343C703.172 58.1343 702.055 57.1514 701.958 55.8569L701.953 55.7764H703.451L703.462 55.814C703.575 56.3994 704.117 56.8506 704.864 56.8506C705.713 56.8506 706.309 56.2705 706.309 55.4434V55.4326C706.303 54.6162 705.707 54.0415 704.869 54.0415C704.472 54.0415 704.133 54.1597 703.87 54.3691C703.715 54.4873 703.591 54.6377 703.5 54.7988H702.087L702.442 50.2495H707.388V51.5386H703.731L703.543 53.7192H703.575C703.897 53.1982 704.536 52.8813 705.32 52.8813C706.792 52.8813 707.856 53.9395 707.856 55.4004V55.4111C707.856 57.0332 706.631 58.1343 704.859 58.1343ZM709.549 58.0913C709.06 58.0913 708.679 57.7046 708.679 57.2212C708.679 56.7324 709.06 56.3511 709.549 56.3511C710.032 56.3511 710.419 56.7324 710.419 57.2212C710.419 57.7046 710.032 58.0913 709.549 58.0913ZM714.39 58.1343C712.424 58.1343 711.232 56.5928 711.232 54.1274V54.1167C711.232 51.6514 712.424 50.1152 714.39 50.1152C716.356 50.1152 717.548 51.6514 717.548 54.1167V54.1274C717.548 56.5928 716.356 58.1343 714.39 58.1343ZM714.39 56.8345C715.357 56.8345 715.91 55.8301 715.91 54.1274V54.1167C715.91 52.4141 715.357 51.415 714.39 51.415C713.423 51.415 712.87 52.4141 712.87 54.1167V54.1274C712.87 55.8301 713.423 56.8345 714.39 56.8345ZM721.675 58.1343C719.709 58.1343 718.517 56.5928 718.517 54.1274V54.1167C718.517 51.6514 719.709 50.1152 721.675 50.1152C723.641 50.1152 724.833 51.6514 724.833 54.1167V54.1274C724.833 56.5928 723.641 58.1343 721.675 58.1343ZM721.675 56.8345C722.642 56.8345 723.195 55.8301 723.195 54.1274V54.1167C723.195 52.4141 722.642 51.415 721.675 51.415C720.708 51.415 720.155 52.4141 720.155 54.1167V54.1274C720.155 55.8301 720.708 56.8345 721.675 56.8345ZM726.983 59.8799H725.538C726.338 58.9346 726.956 56.8828 726.956 55.062C726.956 53.2305 726.338 51.1841 725.538 50.2495H726.983C728.089 51.5762 728.573 53.1284 728.573 55.0674C728.573 56.9849 728.089 58.5425 726.983 59.8799Z" fill="white"/>
<path d="M676.5 138.96C676.5 147.165 681.605 154.209 688.738 156.574L691.628 159.928C692.23 160.627 693.107 161.03 694.03 161.03C694.957 161.03 695.839 160.623 696.441 159.918L699.31 156.558C706.417 154.178 711.5 147.147 711.5 138.96C711.5 128.848 703.746 120.5 694 120.5C684.254 120.5 676.5 128.848 676.5 138.96Z" fill="#4D7571" stroke="white" stroke-width="3"/>
<path d="M701.138 138.503C702.792 140.776 702.057 142.368 701.342 143.638C701.216 143.861 700.988 143.996 700.743 143.996H687.275C687.031 143.996 686.803 143.861 686.677 143.638C685.962 142.368 685.227 140.776 686.881 138.503C687.164 138.088 688.174 137.223 689.289 136.585C690.799 135.78 693.684 133.815 693.797 132.898V132.7C693.797 132.576 693.892 132.475 694.009 132.475C694.127 132.475 694.222 132.576 694.222 132.7V132.898C694.335 133.815 697.22 135.78 698.73 136.585C699.845 137.223 700.855 138.088 701.138 138.503Z" fill="white"/>
<path d="M701.102 145.046H686.915C686.635 145.046 686.382 145.223 686.272 145.496L685.891 146.446C685.694 146.934 686.032 147.477 686.533 147.477H701.484C701.985 147.477 702.323 146.934 702.127 146.446L701.745 145.496C701.635 145.223 701.382 145.046 701.102 145.046Z" fill="white"/>
<path fill-rule="evenodd" clip-rule="evenodd" d="M694.219 133.043C695.872 133.043 697.212 131.649 697.212 129.929C697.212 129.791 697.015 129.773 696.953 129.895C696.62 130.553 695.965 131.001 695.211 131.001C694.121 131.001 693.237 130.064 693.237 128.908C693.237 128.12 693.647 127.434 694.254 127.077C694.362 127.013 694.343 126.815 694.219 126.815C692.566 126.815 691.226 128.209 691.226 129.929C691.226 131.649 692.566 133.043 694.219 133.043Z" fill="white"/>
<g filter="url(#filter2_d_11_726)">
<g filter="url(#filter3_b_11_726)">
<rect x="325" y="24" width="140" height="60" rx="13" fill="white"/>
</g>
</g>
<path d="M343.408 54V44.8403H345.052L348.017 52.1528H348.055L351.025 44.8403H352.663V54H351.368V47.2397H351.324L348.562 54H347.509L344.748 47.2397H344.703V54H343.408ZM355.892 54.1206C354.559 54.1206 353.664 53.3018 353.664 52.1021V52.0894C353.664 50.9277 354.566 50.2168 356.146 50.1216L357.962 50.0137V49.5122C357.962 48.7759 357.485 48.3315 356.635 48.3315C355.841 48.3315 355.353 48.7061 355.238 49.2393L355.226 49.2964H353.931L353.937 49.2266C354.032 48.0776 355.029 47.1953 356.673 47.1953C358.304 47.1953 359.339 48.0586 359.339 49.3979V54H357.962V52.9463H357.936C357.549 53.6636 356.775 54.1206 355.892 54.1206ZM355.048 52.0703C355.048 52.6543 355.53 53.0225 356.267 53.0225C357.232 53.0225 357.962 52.3687 357.962 51.499V50.9785L356.33 51.0801C355.505 51.1309 355.048 51.4927 355.048 52.0576V52.0703ZM363.095 54.1333C361.426 54.1333 360.448 53.3081 360.308 52.0894L360.302 52.0322H361.66L361.673 52.0957C361.8 52.7114 362.257 53.0732 363.101 53.0732C363.926 53.0732 364.422 52.7305 364.422 52.1909V52.1846C364.422 51.7529 364.18 51.5054 363.463 51.334L362.371 51.0864C361.102 50.7944 360.473 50.1851 360.473 49.2139V49.2075C360.473 48.0142 361.514 47.1953 363.051 47.1953C364.631 47.1953 365.583 48.0776 365.653 49.2139L365.659 49.29H364.371L364.364 49.2456C364.282 48.6616 363.825 48.2554 363.051 48.2554C362.314 48.2554 361.851 48.6045 361.851 49.1377V49.144C361.851 49.5566 362.124 49.8359 362.841 50.0073L363.926 50.2549C365.291 50.5723 365.812 51.1118 365.812 52.0703V52.0767C365.812 53.2954 364.669 54.1333 363.095 54.1333ZM367.53 46.2939C367.086 46.2939 366.73 45.9385 366.73 45.5068C366.73 45.0688 367.086 44.7134 367.53 44.7134C367.981 44.7134 368.33 45.0688 368.33 45.5068C368.33 45.9385 367.981 46.2939 367.53 46.2939ZM366.032 56.2344C365.924 56.2344 365.804 56.228 365.715 56.2217V55.0981C365.778 55.0981 365.842 55.1045 365.911 55.1045C366.591 55.1045 366.845 54.8887 366.845 54.2158V47.3223H368.216V54.2285C368.216 55.5869 367.511 56.2344 366.032 56.2344ZM370.296 46.2939C369.852 46.2939 369.496 45.9385 369.496 45.5068C369.496 45.0688 369.852 44.7134 370.296 44.7134C370.747 44.7134 371.096 45.0688 371.096 45.5068C371.096 45.9385 370.747 46.2939 370.296 46.2939ZM369.61 54V47.3223H370.981V54H369.61ZM374.814 54.1333C373.112 54.1333 372.021 52.7876 372.021 50.6611V50.6548C372.021 48.5283 373.125 47.1953 374.801 47.1953C375.747 47.1953 376.508 47.6714 376.908 48.4585H376.934V44.8403H378.311V54H376.934V52.8701H376.908C376.508 53.6509 375.772 54.1333 374.814 54.1333ZM375.175 52.9526C376.21 52.9526 376.94 52.0513 376.94 50.6611V50.6548C376.94 49.271 376.204 48.3696 375.175 48.3696C374.096 48.3696 373.423 49.2456 373.423 50.6548V50.6611C373.423 52.083 374.09 52.9526 375.175 52.9526ZM382.37 54V44.8403H385.601C388.318 44.8403 389.936 46.5098 389.936 49.3916V49.4043C389.936 52.2988 388.33 54 385.601 54H382.37ZM383.792 52.7686H385.468C387.41 52.7686 388.483 51.5815 388.483 49.417V49.4043C388.483 47.2524 387.397 46.0654 385.468 46.0654H383.792V52.7686ZM393 54.1206C391.667 54.1206 390.772 53.3018 390.772 52.1021V52.0894C390.772 50.9277 391.674 50.2168 393.254 50.1216L395.07 50.0137V49.5122C395.07 48.7759 394.594 48.3315 393.743 48.3315C392.95 48.3315 392.461 48.7061 392.347 49.2393L392.334 49.2964H391.039L391.045 49.2266C391.141 48.0776 392.137 47.1953 393.781 47.1953C395.413 47.1953 396.447 48.0586 396.447 49.3979V54H395.07V52.9463H395.044C394.657 53.6636 393.883 54.1206 393 54.1206ZM392.156 52.0703C392.156 52.6543 392.639 53.0225 393.375 53.0225C394.34 53.0225 395.07 52.3687 395.07 51.499V50.9785L393.438 51.0801C392.613 51.1309 392.156 51.4927 392.156 52.0576V52.0703ZM397.702 54V47.3223H399.073V48.4648H399.105C399.321 47.6841 399.88 47.1953 400.641 47.1953C400.838 47.1953 401.009 47.2271 401.117 47.2461V48.522C401.009 48.4775 400.768 48.4458 400.502 48.4458C399.619 48.4458 399.073 49.0234 399.073 50.02V54H397.702ZM404.162 54.1333C402.696 54.1333 401.858 53.1875 401.858 51.6514V47.3223H403.229V51.3848C403.229 52.394 403.699 52.9526 404.651 52.9526C405.616 52.9526 406.238 52.2607 406.238 51.2197V47.3223H407.615V54H406.238V52.9971H406.206C405.857 53.6699 405.178 54.1333 404.162 54.1333ZM411.397 54.1333C409.727 54.1333 408.75 53.3081 408.61 52.0894L408.604 52.0322H409.962L409.975 52.0957C410.102 52.7114 410.559 53.0732 411.403 53.0732C412.228 53.0732 412.724 52.7305 412.724 52.1909V52.1846C412.724 51.7529 412.482 51.5054 411.765 51.334L410.673 51.0864C409.404 50.7944 408.775 50.1851 408.775 49.2139V49.2075C408.775 48.0142 409.816 47.1953 411.352 47.1953C412.933 47.1953 413.885 48.0776 413.955 49.2139L413.961 49.29H412.673L412.666 49.2456C412.584 48.6616 412.127 48.2554 411.352 48.2554C410.616 48.2554 410.153 48.6045 410.153 49.1377V49.144C410.153 49.5566 410.426 49.8359 411.143 50.0073L412.228 50.2549C413.593 50.5723 414.114 51.1118 414.114 52.0703V52.0767C414.114 53.2954 412.971 54.1333 411.397 54.1333ZM417.603 54.1333C415.934 54.1333 414.956 53.3081 414.816 52.0894L414.81 52.0322H416.168L416.181 52.0957C416.308 52.7114 416.765 53.0732 417.609 53.0732C418.435 53.0732 418.93 52.7305 418.93 52.1909V52.1846C418.93 51.7529 418.688 51.5054 417.971 51.334L416.879 51.0864C415.61 50.7944 414.981 50.1851 414.981 49.2139V49.2075C414.981 48.0142 416.022 47.1953 417.559 47.1953C419.139 47.1953 420.091 48.0776 420.161 49.2139L420.167 49.29H418.879L418.873 49.2456C418.79 48.6616 418.333 48.2554 417.559 48.2554C416.822 48.2554 416.359 48.6045 416.359 49.1377V49.144C416.359 49.5566 416.632 49.8359 417.349 50.0073L418.435 50.2549C419.799 50.5723 420.32 51.1118 420.32 52.0703V52.0767C420.32 53.2954 419.177 54.1333 417.603 54.1333ZM423.27 54.1206C421.937 54.1206 421.042 53.3018 421.042 52.1021V52.0894C421.042 50.9277 421.943 50.2168 423.524 50.1216L425.339 50.0137V49.5122C425.339 48.7759 424.863 48.3315 424.012 48.3315C423.219 48.3315 422.73 48.7061 422.616 49.2393L422.603 49.2964H421.308L421.315 49.2266C421.41 48.0776 422.406 47.1953 424.05 47.1953C425.682 47.1953 426.716 48.0586 426.716 49.3979V54H425.339V52.9463H425.314C424.926 53.6636 424.152 54.1206 423.27 54.1206ZM422.425 52.0703C422.425 52.6543 422.908 53.0225 423.644 53.0225C424.609 53.0225 425.339 52.3687 425.339 51.499V50.9785L423.708 51.0801C422.882 51.1309 422.425 51.4927 422.425 52.0576V52.0703ZM428.022 54V44.8403H429.393V54H428.022ZM432.686 54.1206C431.353 54.1206 430.458 53.3018 430.458 52.1021V52.0894C430.458 50.9277 431.359 50.2168 432.94 50.1216L434.755 50.0137V49.5122C434.755 48.7759 434.279 48.3315 433.429 48.3315C432.635 48.3315 432.146 48.7061 432.032 49.2393L432.019 49.2964H430.725L430.731 49.2266C430.826 48.0776 431.823 47.1953 433.467 47.1953C435.098 47.1953 436.133 48.0586 436.133 49.3979V54H434.755V52.9463H434.73C434.343 53.6636 433.568 54.1206 432.686 54.1206ZM431.842 52.0703C431.842 52.6543 432.324 53.0225 433.06 53.0225C434.025 53.0225 434.755 52.3687 434.755 51.499V50.9785L433.124 51.0801C432.299 51.1309 431.842 51.4927 431.842 52.0576V52.0703ZM437.388 54V47.3223H438.759V48.3569H438.791C439.076 47.6587 439.755 47.1953 440.631 47.1953C441.552 47.1953 442.225 47.6714 442.491 48.5093H442.523C442.866 47.6968 443.653 47.1953 444.605 47.1953C445.925 47.1953 446.789 48.0713 446.789 49.4106V54H445.411V49.7407C445.411 48.8711 444.948 48.3696 444.135 48.3696C443.323 48.3696 442.758 48.979 442.758 49.8232V54H441.412V49.6392C441.412 48.8647 440.923 48.3696 440.149 48.3696C439.336 48.3696 438.759 49.0107 438.759 49.874V54H437.388Z" fill="#496F6B"/>
<path d="M362.811 69V61.2495H367.613V62.1196H363.778V64.6064H367.414V65.4658H363.778V68.1299H367.613V69H362.811ZM370.794 69.1074C369.479 69.1074 368.684 68.436 368.571 67.437L368.565 67.3887H369.5L369.511 67.4424C369.624 68.001 370.037 68.3286 370.8 68.3286C371.557 68.3286 372.008 68.0117 372.008 67.5068V67.5015C372.008 67.0986 371.799 66.873 371.165 66.7173L370.279 66.5024C369.226 66.25 368.716 65.7612 368.716 64.9556V64.9502C368.716 63.9888 369.559 63.3066 370.768 63.3066C371.992 63.3066 372.771 64.021 372.841 64.9556L372.846 65.0254H371.955L371.949 64.9878C371.874 64.4453 371.46 64.0854 370.768 64.0854C370.091 64.0854 369.672 64.4131 369.672 64.9072V64.9126C369.672 65.2939 369.924 65.5571 370.542 65.7075L371.428 65.9224C372.556 66.1963 372.964 66.6421 372.964 67.437V67.4424C372.964 68.4199 372.041 69.1074 370.794 69.1074ZM375.818 69.1074C374.792 69.1074 374.287 68.6455 374.287 67.5767V64.1875H373.471V63.4141H374.287V61.9048H375.254V63.4141H376.317V64.1875H375.254V67.5713C375.254 68.1675 375.517 68.334 376.017 68.334C376.129 68.334 376.237 68.3179 376.317 68.3125V69.0698C376.199 69.0859 376.001 69.1074 375.818 69.1074ZM377.914 62.4688C377.592 62.4688 377.329 62.2056 377.329 61.8833C377.329 61.5557 377.592 61.2979 377.914 61.2979C378.242 61.2979 378.5 61.5557 378.5 61.8833C378.5 62.2056 378.242 62.4688 377.914 62.4688ZM377.447 69V63.4141H378.382V69H377.447ZM379.72 69V63.4141H380.655V64.2305H380.677C380.929 63.6772 381.488 63.3066 382.207 63.3066C382.97 63.3066 383.534 63.6987 383.776 64.3809H383.797C384.109 63.7095 384.764 63.3066 385.548 63.3066C386.655 63.3066 387.369 64.0317 387.369 65.1436V69H386.434V65.3584C386.434 64.5903 386.01 64.1338 385.274 64.1338C384.533 64.1338 384.012 64.687 384.012 65.4497V69H383.077V65.2563C383.077 64.5796 382.626 64.1338 381.933 64.1338C381.192 64.1338 380.655 64.7192 380.655 65.498V69H379.72ZM390.26 69.1074C389.148 69.1074 388.402 68.436 388.402 67.4209V67.4102C388.402 66.4595 389.143 65.8633 390.427 65.7881L392.027 65.6968V65.2295C392.027 64.5474 391.581 64.1338 390.803 64.1338C390.083 64.1338 389.632 64.4775 389.524 64.9771L389.514 65.0254H388.611L388.617 64.9663C388.697 64.0479 389.497 63.3066 390.813 63.3066C392.135 63.3066 392.962 64.021 392.962 65.1382V69H392.027V68.0923H392.006C391.678 68.7046 391.007 69.1074 390.26 69.1074ZM389.358 67.4209C389.358 67.958 389.798 68.2964 390.47 68.2964C391.35 68.2964 392.027 67.6895 392.027 66.8784V66.4219L390.534 66.5132C389.787 66.5562 389.358 66.8892 389.358 67.4102V67.4209ZM396.197 69.1074C394.881 69.1074 394.086 68.436 393.973 67.437L393.968 67.3887H394.902L394.913 67.4424C395.026 68.001 395.439 68.3286 396.202 68.3286C396.959 68.3286 397.411 68.0117 397.411 67.5068V67.5015C397.411 67.0986 397.201 66.873 396.567 66.7173L395.681 66.5024C394.628 66.25 394.118 65.7612 394.118 64.9556V64.9502C394.118 63.9888 394.961 63.3066 396.17 63.3066C397.394 63.3066 398.173 64.021 398.243 64.9556L398.248 65.0254H397.357L397.351 64.9878C397.276 64.4453 396.863 64.0854 396.17 64.0854C395.493 64.0854 395.074 64.4131 395.074 64.9072V64.9126C395.074 65.2939 395.327 65.5571 395.944 65.7075L396.83 65.9224C397.958 66.1963 398.367 66.6421 398.367 67.437V67.4424C398.367 68.4199 397.443 69.1074 396.197 69.1074ZM399.931 62.4688C399.609 62.4688 399.346 62.2056 399.346 61.8833C399.346 61.5557 399.609 61.2979 399.931 61.2979C400.259 61.2979 400.517 61.5557 400.517 61.8833C400.517 62.2056 400.259 62.4688 399.931 62.4688ZM399.464 69V63.4141H400.398V69H399.464ZM402.312 64.918C401.968 64.918 401.7 64.6494 401.7 64.3057C401.7 63.9619 401.968 63.6934 402.312 63.6934C402.656 63.6934 402.924 63.9619 402.924 64.3057C402.924 64.6494 402.656 64.918 402.312 64.918ZM402.312 69.0752C401.968 69.0752 401.7 68.8066 401.7 68.4629C401.7 68.1191 401.968 67.8506 402.312 67.8506C402.656 67.8506 402.924 68.1191 402.924 68.4629C402.924 68.8066 402.656 69.0752 402.312 69.0752ZM408.487 69V62.2754H408.465L406.413 63.7041V62.7319L408.476 61.2495H409.421V69H408.487ZM411.453 69V68.334L414.181 65.4873C415.229 64.397 415.471 63.978 415.471 63.3335V63.3228C415.465 62.5332 414.869 61.9639 414.026 61.9639C413.059 61.9639 412.339 62.6299 412.339 63.4624V63.4893H411.405V63.457C411.405 62.1143 412.565 61.1206 414.01 61.1206C415.411 61.1206 416.437 62.0605 416.437 63.2744V63.2852C416.437 64.1338 416.045 64.7729 414.622 66.2285L412.78 68.1191V68.1406H416.566V69H411.453ZM418.303 69.0752C417.959 69.0752 417.69 68.8066 417.69 68.4629C417.69 68.1191 417.959 67.8506 418.303 67.8506C418.646 67.8506 418.915 68.1191 418.915 68.4629C418.915 68.8066 418.646 69.0752 418.303 69.0752ZM421.726 69V62.2754H421.704L419.652 63.7041V62.7319L421.715 61.2495H422.66V69H421.726ZM426.669 69V62.2754H426.647L424.595 63.7041V62.7319L426.658 61.2495H427.603V69H426.669Z" fill="#898989"/>
<rect x="342" y="19" width="105" height="17" rx="8.5" fill="#74B0AA"/>
<path d="M356.871 31V23.2495H359.83C362.151 23.2495 363.526 24.6299 363.526 27.0845V27.0952C363.526 29.5552 362.156 31 359.83 31H356.871ZM358.493 29.6572H359.637C361.087 29.6572 361.871 28.7764 361.871 27.1006V27.0898C361.871 25.4731 361.06 24.5869 359.637 24.5869H358.493V29.6572ZM364.311 31V30.1084L367.206 26.4507V26.4238H364.354V25.2422H369V26.2358L366.277 29.7861V29.8184H369.065V31H364.311ZM372.01 31.1182C370.742 31.1182 370.022 30.3071 370.022 28.959V25.2422H371.591V28.6313C371.591 29.3833 371.945 29.8184 372.649 29.8184C373.352 29.8184 373.798 29.3027 373.798 28.5508V25.2422H375.367V31H373.798V30.0493H373.766C373.471 30.71 372.88 31.1182 372.01 31.1182ZM376.491 31V23.2495H378.059V26.2358H378.091C378.387 25.5215 378.994 25.124 379.858 25.124C381.104 25.124 381.878 25.9941 381.878 27.3853V31H380.31V27.7075C380.31 26.9019 379.912 26.4238 379.198 26.4238C378.505 26.4238 378.059 26.9502 378.059 27.7021V31H376.491ZM384.914 31.1182C383.647 31.1182 382.927 30.3071 382.927 28.959V25.2422H384.495V28.6313C384.495 29.3833 384.85 29.8184 385.553 29.8184C386.257 29.8184 386.703 29.3027 386.703 28.5508V25.2422H388.271V31H386.703V30.0493H386.67C386.375 30.71 385.784 31.1182 384.914 31.1182ZM389.358 31V25.2422H390.926V26.2466H390.958C391.13 25.5376 391.597 25.124 392.269 25.124C392.441 25.124 392.602 25.1509 392.72 25.1831V26.5635C392.591 26.5098 392.376 26.4775 392.151 26.4775C391.377 26.4775 390.926 26.9395 390.926 27.7773V31H389.358ZM397.74 32.8799C396.628 31.5425 396.144 29.9902 396.144 28.0674C396.144 26.1284 396.628 24.5762 397.74 23.2495H399.179C398.379 24.1841 397.761 26.2305 397.761 28.062C397.761 29.8882 398.379 31.9346 399.179 32.8799H397.74ZM401.92 31V24.7373H401.888L399.911 26.0801V24.6406L401.914 23.2495H403.526V31H401.92ZM405.332 31V29.8882L408.071 27.3262C409.07 26.3916 409.28 26.0103 409.28 25.4731V25.4624C409.274 24.8286 408.791 24.3774 408.103 24.3774C407.309 24.3774 406.771 24.8984 406.75 25.5967L406.745 25.645H405.241V25.6021C405.241 24.1411 406.455 23.1152 408.093 23.1152C409.731 23.1152 410.859 24.0498 410.859 25.3711V25.3818C410.859 26.3218 410.413 26.9341 409.076 28.1641L407.454 29.6465V29.7109H410.966V31H405.332ZM412.815 31.0913C412.327 31.0913 411.945 30.7046 411.945 30.2212C411.945 29.7324 412.327 29.3511 412.815 29.3511C413.299 29.3511 413.686 29.7324 413.686 30.2212C413.686 30.7046 413.299 31.0913 412.815 31.0913ZM417.656 31.1343C415.691 31.1343 414.498 29.5928 414.498 27.1274V27.1167C414.498 24.6514 415.691 23.1152 417.656 23.1152C419.622 23.1152 420.815 24.6514 420.815 27.1167V27.1274C420.815 29.5928 419.622 31.1343 417.656 31.1343ZM417.656 29.8345C418.623 29.8345 419.176 28.8301 419.176 27.1274V27.1167C419.176 25.4141 418.623 24.415 417.656 24.415C416.69 24.415 416.136 25.4141 416.136 27.1167V27.1274C416.136 28.8301 416.69 29.8345 417.656 29.8345ZM424.834 23.1152C426.703 23.1152 428.067 24.4258 428.067 27.0522V27.063C428.067 29.6035 426.837 31.1343 424.818 31.1343C423.319 31.1343 422.191 30.2642 421.96 29.0664L421.949 29.0181H423.55L423.566 29.061C423.759 29.5283 424.189 29.8452 424.823 29.8452C425.956 29.8452 426.45 28.7656 426.509 27.396C426.515 27.2939 426.52 27.1865 426.515 27.1006H426.488C426.182 27.8203 425.419 28.3467 424.372 28.3467C422.873 28.3467 421.847 27.2886 421.847 25.833V25.8223C421.847 24.2378 423.11 23.1152 424.834 23.1152ZM424.839 27.1489C425.65 27.1489 426.273 26.585 426.273 25.7954V25.79C426.273 25.0059 425.65 24.4043 424.855 24.4043C424.066 24.4043 423.426 25.0005 423.426 25.7686V25.7793C423.426 26.585 424.033 27.1489 424.839 27.1489ZM430.206 32.8799H428.762C429.562 31.9346 430.179 29.8828 430.179 28.062C430.179 26.2305 429.562 24.1841 428.762 23.2495H430.206C431.313 24.5762 431.796 26.1284 431.796 28.0674C431.796 29.9849 431.313 31.5425 430.206 32.8799Z" fill="white"/>
<path d="M377.5 111.96C377.5 120.165 382.605 127.209 389.738 129.574L392.628 132.928C393.23 133.627 394.107 134.03 395.03 134.03C395.957 134.03 396.839 133.623 397.441 132.918L400.31 129.558C407.417 127.178 412.5 120.147 412.5 111.96C412.5 101.848 404.746 93.5 395 93.5C385.254 93.5 377.5 101.848 377.5 111.96Z" fill="#4D7571" stroke="white" stroke-width="3"/>
<path d="M402.138 111.503C403.792 113.776 403.057 115.367 402.342 116.638C402.216 116.861 401.988 116.996 401.743 116.996H388.275C388.031 116.996 387.803 116.861 387.677 116.638C386.962 115.367 386.227 113.776 387.881 111.503C388.164 111.088 389.174 110.223 390.289 109.585C391.799 108.78 394.684 106.815 394.797 105.898V105.7C394.797 105.576 394.892 105.475 395.009 105.475C395.127 105.475 395.222 105.576 395.222 105.7V105.898C395.335 106.815 398.22 108.78 399.73 109.585C400.845 110.223 401.855 111.088 402.138 111.503Z" fill="white"/>
<path d="M402.102 118.046H387.915C387.635 118.046 387.382 118.223 387.272 118.496L386.891 119.446C386.694 119.934 387.032 120.477 387.533 120.477H402.484C402.985 120.477 403.323 119.934 403.127 119.446L402.745 118.496C402.635 118.223 402.382 118.046 402.102 118.046Z" fill="white"/>
<path fill-rule="evenodd" clip-rule="evenodd" d="M395.219 106.043C396.872 106.043 398.212 104.649 398.212 102.929C398.212 102.791 398.015 102.773 397.953 102.895C397.62 103.553 396.965 104.001 396.211 104.001C395.121 104.001 394.237 103.064 394.237 101.908C394.237 101.12 394.647 100.434 395.254 100.076C395.362 100.013 395.343 99.8146 395.219 99.8146C393.566 99.8146 392.226 101.209 392.226 102.929C392.226 104.649 393.566 106.043 395.219 106.043Z" fill="white"/>
<g filter="url(#filter4_d_11_726)">
<g filter="url(#filter5_b_11_726)">
<rect x="22" y="9.35718" width="143" height="61" rx="13" fill="white"/>
</g>
</g>
<path d="M40.8626 39.7001V30.5404H42.5067L45.471 37.8529H45.5091L48.4798 30.5404H50.1175V39.7001H48.8226V32.9398H48.7781L46.0169 39.7001H44.9632L42.202 32.9398H42.1575V39.7001H40.8626ZM53.3466 39.8207C52.0136 39.8207 51.1186 39.0018 51.1186 37.8021V37.7894C51.1186 36.6278 52.02 35.9169 53.6005 35.8217L55.416 35.7137V35.2123C55.416 34.476 54.9399 34.0316 54.0893 34.0316C53.2958 34.0316 52.8071 34.4061 52.6928 34.9393L52.6801 34.9965H51.3852L51.3916 34.9266C51.4868 33.7777 52.4833 32.8954 54.1274 32.8954C55.7587 32.8954 56.7934 33.7587 56.7934 35.098V39.7001H55.416V38.6464H55.3906C55.0034 39.3636 54.229 39.8207 53.3466 39.8207ZM52.5024 37.7704C52.5024 38.3544 52.9848 38.7225 53.7211 38.7225C54.686 38.7225 55.416 38.0687 55.416 37.1991V36.6786L53.7846 36.7802C52.9594 36.8309 52.5024 37.1927 52.5024 37.7577V37.7704ZM60.5494 39.8334C58.88 39.8334 57.9024 39.0082 57.7628 37.7894L57.7564 37.7323H59.1148L59.1275 37.7958C59.2545 38.4115 59.7115 38.7733 60.5557 38.7733C61.3809 38.7733 61.8761 38.4305 61.8761 37.891V37.8846C61.8761 37.453 61.6348 37.2054 60.9176 37.0341L59.8258 36.7865C58.5562 36.4945 57.9278 35.8851 57.9278 34.9139V34.9076C57.9278 33.7142 58.9688 32.8954 60.505 32.8954C62.0855 32.8954 63.0377 33.7777 63.1075 34.9139L63.1138 34.9901H61.8253L61.8189 34.9457C61.7364 34.3617 61.2794 33.9554 60.505 33.9554C59.7686 33.9554 59.3053 34.3046 59.3053 34.8378V34.8441C59.3053 35.2567 59.5782 35.536 60.2955 35.7074L61.3809 35.955C62.7457 36.2723 63.2662 36.8119 63.2662 37.7704V37.7767C63.2662 38.9955 62.1236 39.8334 60.5494 39.8334ZM64.9846 31.994C64.5402 31.994 64.1848 31.6385 64.1848 31.2069C64.1848 30.7689 64.5402 30.4135 64.9846 30.4135C65.4353 30.4135 65.7844 30.7689 65.7844 31.2069C65.7844 31.6385 65.4353 31.994 64.9846 31.994ZM63.4865 41.9344C63.3786 41.9344 63.258 41.9281 63.1691 41.9218V40.7982C63.2326 40.7982 63.2961 40.8046 63.3659 40.8046C64.0451 40.8046 64.299 40.5887 64.299 39.9159V33.0223H65.6701V39.9286C65.6701 41.287 64.9655 41.9344 63.4865 41.9344ZM67.7503 31.994C67.306 31.994 66.9505 31.6385 66.9505 31.2069C66.9505 30.7689 67.306 30.4135 67.7503 30.4135C68.201 30.4135 68.5501 30.7689 68.5501 31.2069C68.5501 31.6385 68.201 31.994 67.7503 31.994ZM67.0648 39.7001V33.0223H68.4359V39.7001H67.0648ZM72.268 39.8334C70.5669 39.8334 69.4751 38.4877 69.4751 36.3612V36.3549C69.4751 34.2284 70.5796 32.8954 72.2553 32.8954C73.2011 32.8954 73.9629 33.3715 74.3628 34.1586H74.3881V30.5404H75.7656V39.7001H74.3881V38.5702H74.3628C73.9629 39.351 73.2265 39.8334 72.268 39.8334ZM72.6298 38.6527C73.6645 38.6527 74.3945 37.7513 74.3945 36.3612V36.3549C74.3945 34.9711 73.6582 34.0697 72.6298 34.0697C71.5507 34.0697 70.8779 34.9457 70.8779 36.3549V36.3612C70.8779 37.7831 71.5444 38.6527 72.6298 38.6527ZM79.1452 39.7001L82.4777 30.5404H84.0139L87.3401 39.7001H85.8484L85.0105 37.2245H81.4812L80.6369 39.7001H79.1452ZM83.2331 32.0575L81.862 36.0819H84.6233L83.2585 32.0575H83.2331ZM88.1634 39.7001V30.5404H89.5345V39.7001H88.1634ZM90.9609 36.6024V35.3646H95.0425V36.6024H90.9609ZM96.5895 39.7001V30.5404H98.2335L101.198 37.8529H101.236L104.207 30.5404H105.844V39.7001H104.549V32.9398H104.505L101.744 39.7001H100.69L97.9288 32.9398H97.8844V39.7001H96.5895ZM109.562 39.8334C108.096 39.8334 107.258 38.8876 107.258 37.3514V33.0223H108.629V37.0848C108.629 38.0941 109.099 38.6527 110.051 38.6527C111.016 38.6527 111.638 37.9608 111.638 36.9198V33.0223H113.015V39.7001H111.638V38.6971H111.606C111.257 39.37 110.578 39.8334 109.562 39.8334ZM114.347 39.7001V30.5404H115.718V34.1205H115.749C116.105 33.3461 116.822 32.8954 117.819 32.8954C119.247 32.8954 120.186 33.9618 120.186 35.5741V39.7001H118.815V35.8344C118.815 34.7299 118.257 34.0697 117.292 34.0697C116.346 34.0697 115.718 34.7933 115.718 35.8344V39.7001H114.347ZM123.403 39.8207C122.07 39.8207 121.175 39.0018 121.175 37.8021V37.7894C121.175 36.6278 122.076 35.9169 123.657 35.8217L125.472 35.7137V35.2123C125.472 34.476 124.996 34.0316 124.145 34.0316C123.352 34.0316 122.863 34.4061 122.749 34.9393L122.736 34.9965H121.441L121.448 34.9266C121.543 33.7777 122.54 32.8954 124.184 32.8954C125.815 32.8954 126.85 33.7587 126.85 35.098V39.7001H125.472V38.6464H125.447C125.06 39.3636 124.285 39.8207 123.403 39.8207ZM122.559 37.7704C122.559 38.3544 123.041 38.7225 123.777 38.7225C124.742 38.7225 125.472 38.0687 125.472 37.1991V36.6786L123.841 36.7802C123.016 36.8309 122.559 37.1927 122.559 37.7577V37.7704ZM128.835 31.994C128.39 31.994 128.035 31.6385 128.035 31.2069C128.035 30.7689 128.39 30.4135 128.835 30.4135C129.285 30.4135 129.634 30.7689 129.634 31.2069C129.634 31.6385 129.285 31.994 128.835 31.994ZM127.337 41.9344C127.229 41.9344 127.108 41.9281 127.019 41.9218V40.7982C127.083 40.7982 127.146 40.8046 127.216 40.8046C127.895 40.8046 128.149 40.5887 128.149 39.9159V33.0223H129.52V39.9286C129.52 41.287 128.816 41.9344 127.337 41.9344ZM131.6 31.994C131.156 31.994 130.801 31.6385 130.801 31.2069C130.801 30.7689 131.156 30.4135 131.6 30.4135C132.051 30.4135 132.4 30.7689 132.4 31.2069C132.4 31.6385 132.051 31.994 131.6 31.994ZM130.915 39.7001V33.0223H132.286V39.7001H130.915ZM133.623 39.7001V33.0223H134.994V34.1649H135.026C135.242 33.3842 135.801 32.8954 136.562 32.8954C136.759 32.8954 136.931 32.9271 137.038 32.9462V34.222C136.931 34.1776 136.689 34.1459 136.423 34.1459C135.54 34.1459 134.994 34.7235 134.994 35.7201V39.7001H133.623ZM138.554 31.994C138.109 31.994 137.754 31.6385 137.754 31.2069C137.754 30.7689 138.109 30.4135 138.554 30.4135C139.004 30.4135 139.354 30.7689 139.354 31.2069C139.354 31.6385 139.004 31.994 138.554 31.994ZM137.868 39.7001V33.0223H139.239V39.7001H137.868ZM140.577 39.7001V33.0223H141.948V34.0316H141.98C142.329 33.3524 143.014 32.8954 144.024 32.8954C145.49 32.8954 146.334 33.8412 146.334 35.3773V39.7001H144.957V35.6376C144.957 34.6346 144.487 34.0697 143.535 34.0697C142.57 34.0697 141.948 34.7679 141.948 35.809V39.7001H140.577Z" fill="#496F6B"/>
<path d="M58.572 55.1072V47.3567H63.3738V48.2268H59.5388V50.7136H63.1751V51.573H59.5388V54.2371H63.3738V55.1072H58.572ZM66.555 55.2146C65.2391 55.2146 64.4442 54.5432 64.3314 53.5442L64.326 53.4958H65.2606L65.2713 53.5496C65.3841 54.1082 65.7977 54.4358 66.5604 54.4358C67.3177 54.4358 67.7689 54.1189 67.7689 53.614V53.6086C67.7689 53.2058 67.5594 52.9802 66.9256 52.8245L66.0394 52.6096C64.9867 52.3572 64.4764 51.8684 64.4764 51.0627V51.0574C64.4764 50.0959 65.3197 49.4138 66.5282 49.4138C67.7528 49.4138 68.5316 50.1282 68.6014 51.0627L68.6068 51.1326H67.7152L67.7098 51.095C67.6346 50.5525 67.221 50.1926 66.5282 50.1926C65.8514 50.1926 65.4325 50.5203 65.4325 51.0144V51.0198C65.4325 51.4011 65.6849 51.6643 66.3026 51.8147L67.1888 52.0295C68.3167 52.3035 68.725 52.7493 68.725 53.5442V53.5496C68.725 54.5271 67.8011 55.2146 66.555 55.2146ZM71.5785 55.2146C70.5527 55.2146 70.0478 54.7527 70.0478 53.6838V50.2947H69.2314V49.5212H70.0478V48.012H71.0146V49.5212H72.0781V50.2947H71.0146V53.6785C71.0146 54.2747 71.2778 54.4412 71.7773 54.4412C71.8901 54.4412 71.9975 54.425 72.0781 54.4197V55.177C71.9599 55.1931 71.7612 55.2146 71.5785 55.2146ZM73.6748 48.5759C73.3526 48.5759 73.0894 48.3127 73.0894 47.9905C73.0894 47.6628 73.3526 47.405 73.6748 47.405C74.0025 47.405 74.2603 47.6628 74.2603 47.9905C74.2603 48.3127 74.0025 48.5759 73.6748 48.5759ZM73.2075 55.1072V49.5212H74.1421V55.1072H73.2075ZM75.4811 55.1072V49.5212H76.4156V50.3376H76.4371C76.6896 49.7844 77.2481 49.4138 77.9679 49.4138C78.7306 49.4138 79.2945 49.8059 79.5362 50.488H79.5577C79.8692 49.8167 80.5245 49.4138 81.3087 49.4138C82.4151 49.4138 83.1295 50.1389 83.1295 51.2507V55.1072H82.1949V51.4656C82.1949 50.6975 81.7706 50.241 81.0348 50.241C80.2936 50.241 79.7726 50.7942 79.7726 51.5569V55.1072H78.838V51.3635C78.838 50.6868 78.3868 50.241 77.6939 50.241C76.9527 50.241 76.4156 50.8264 76.4156 51.6052V55.1072H75.4811ZM86.0207 55.2146C84.9089 55.2146 84.1623 54.5432 84.1623 53.5281V53.5173C84.1623 52.5667 84.9035 51.9705 86.1872 51.8953L87.7878 51.804V51.3367C87.7878 50.6545 87.342 50.241 86.5632 50.241C85.8434 50.241 85.3923 50.5847 85.2848 51.0842L85.2741 51.1326H84.3718L84.3771 51.0735C84.4577 50.155 85.258 49.4138 86.5739 49.4138C87.8952 49.4138 88.7223 50.1282 88.7223 51.2454V55.1072H87.7878V54.1995H87.7663C87.4387 54.8118 86.7673 55.2146 86.0207 55.2146ZM85.1183 53.5281C85.1183 54.0652 85.5588 54.4036 86.2302 54.4036C87.111 54.4036 87.7878 53.7966 87.7878 52.9856V52.5291L86.2946 52.6204C85.548 52.6633 85.1183 52.9963 85.1183 53.5173V53.5281ZM91.9573 55.2146C90.6414 55.2146 89.8465 54.5432 89.7337 53.5442L89.7283 53.4958H90.6629L90.6736 53.5496C90.7864 54.1082 91.2 54.4358 91.9627 54.4358C92.72 54.4358 93.1712 54.1189 93.1712 53.614V53.6086C93.1712 53.2058 92.9617 52.9802 92.3279 52.8245L91.4417 52.6096C90.3889 52.3572 89.8787 51.8684 89.8787 51.0627V51.0574C89.8787 50.0959 90.7219 49.4138 91.9304 49.4138C93.155 49.4138 93.9339 50.1282 94.0037 51.0627L94.0091 51.1326H93.1175L93.1121 51.095C93.0369 50.5525 92.6233 50.1926 91.9304 50.1926C91.2537 50.1926 90.8347 50.5203 90.8347 51.0144V51.0198C90.8347 51.4011 91.0872 51.6643 91.7049 51.8147L92.5911 52.0295C93.719 52.3035 94.1272 52.7493 94.1272 53.5442V53.5496C94.1272 54.5271 93.2034 55.2146 91.9573 55.2146ZM95.6918 48.5759C95.3695 48.5759 95.1063 48.3127 95.1063 47.9905C95.1063 47.6628 95.3695 47.405 95.6918 47.405C96.0194 47.405 96.2772 47.6628 96.2772 47.9905C96.2772 48.3127 96.0194 48.5759 95.6918 48.5759ZM95.2245 55.1072V49.5212H96.159V55.1072H95.2245ZM98.0727 51.0251C97.7289 51.0251 97.4604 50.7566 97.4604 50.4128C97.4604 50.0691 97.7289 49.8005 98.0727 49.8005C98.4164 49.8005 98.685 50.0691 98.685 50.4128C98.685 50.7566 98.4164 51.0251 98.0727 51.0251ZM98.0727 55.1824C97.7289 55.1824 97.4604 54.9138 97.4604 54.5701C97.4604 54.2263 97.7289 53.9578 98.0727 53.9578C98.4164 53.9578 98.685 54.2263 98.685 54.5701C98.685 54.9138 98.4164 55.1824 98.0727 55.1824ZM104.972 55.2361C103.189 55.2361 102.131 53.6946 102.131 51.2346V51.2239C102.131 48.7639 103.189 47.2278 104.972 47.2278C106.755 47.2278 107.824 48.7639 107.824 51.2239V51.2346C107.824 53.6946 106.755 55.2361 104.972 55.2361ZM104.972 54.3928C106.154 54.3928 106.852 53.179 106.852 51.2346V51.2239C106.852 49.2795 106.154 48.0764 104.972 48.0764C103.791 48.0764 103.103 49.2795 103.103 51.2239V51.2346C103.103 53.179 103.791 54.3928 104.972 54.3928ZM112.692 55.1072V53.4958H108.798V52.6204L112.198 47.3567H113.627V52.6472H114.722V53.4958H113.627V55.1072H112.692ZM109.754 52.6472H112.692V48.1838H112.66L109.754 52.6257V52.6472ZM116.276 55.1824C115.932 55.1824 115.664 54.9138 115.664 54.5701C115.664 54.2263 115.932 53.9578 116.276 53.9578C116.62 53.9578 116.888 54.2263 116.888 54.5701C116.888 54.9138 116.62 55.1824 116.276 55.1824ZM118.152 55.1072V54.4412L120.881 51.5945C121.928 50.5042 122.17 50.0852 122.17 49.4407V49.4299C122.164 48.6404 121.568 48.071 120.725 48.071C119.758 48.071 119.038 48.7371 119.038 49.5696V49.5964H118.104V49.5642C118.104 48.2214 119.264 47.2278 120.709 47.2278C122.111 47.2278 123.137 48.1677 123.137 49.3816V49.3923C123.137 50.241 122.744 50.8801 121.321 52.3357L119.479 54.2263V54.2478H123.265V55.1072H118.152ZM127.865 55.1072V53.4958H123.971V52.6204L127.371 47.3567H128.799V52.6472H129.895V53.4958H128.799V55.1072H127.865ZM124.927 52.6472H127.865V48.1838H127.832L124.927 52.6257V52.6472Z" fill="#898989"/>
<rect x="43" y="5" width="103" height="17" rx="8.5" fill="#74B0AA"/>
<path d="M60.5723 17.1343C58.73 17.1343 57.543 16.291 57.4517 14.8623L57.4463 14.7764H58.977L58.9878 14.8354C59.0898 15.437 59.729 15.813 60.6152 15.813C61.5122 15.813 62.0762 15.4209 62.0762 14.8301V14.8247C62.0762 14.2983 61.6948 14.0352 60.7334 13.8364L59.917 13.6753C58.3862 13.3691 57.6128 12.6387 57.6128 11.4731V11.4678C57.6128 10.0498 58.8481 9.11523 60.5669 9.11523C62.3608 9.11523 63.4619 10.0122 63.5371 11.3711L63.5425 11.4731H62.0117L62.0063 11.4087C61.9258 10.8018 61.3672 10.4312 60.5669 10.4312C59.7344 10.4365 59.2349 10.8179 59.2349 11.3711V11.3765C59.2349 11.8652 59.6323 12.1499 60.5239 12.3271L61.3457 12.4937C62.9678 12.8159 63.6982 13.4766 63.6982 14.6958V14.7012C63.6982 16.189 62.5273 17.1343 60.5723 17.1343ZM66.5841 17.1182C65.3165 17.1182 64.5968 16.3071 64.5968 14.959V11.2422H66.1651V14.6313C66.1651 15.3833 66.5196 15.8184 67.2232 15.8184C67.9268 15.8184 68.3726 15.3027 68.3726 14.5508V11.2422H69.941V17H68.3726V16.0493H68.3404C68.045 16.71 67.4542 17.1182 66.5841 17.1182ZM74.4381 17.1182C73.611 17.1182 72.9772 16.6992 72.6657 16.0171H72.6335V17H71.0651V9.24951H72.6335V12.2412H72.6657C72.9826 11.543 73.6217 11.124 74.4435 11.124C75.8883 11.124 76.7853 12.2412 76.7853 14.1157V14.1211C76.7853 15.9902 75.8883 17.1182 74.4381 17.1182ZM73.9172 15.8184C74.696 15.8184 75.1901 15.1685 75.1901 14.1211V14.1157C75.1901 13.063 74.696 12.4238 73.9172 12.4238C73.1598 12.4238 72.6335 13.0791 72.6335 14.1157V14.1211C72.6335 15.1631 73.1545 15.8184 73.9172 15.8184ZM79.6174 17.1182C78.3499 17.1182 77.6301 16.3071 77.6301 14.959V11.2422H79.1985V14.6313C79.1985 15.3833 79.553 15.8184 80.2566 15.8184C80.9602 15.8184 81.406 15.3027 81.406 14.5508V11.2422H82.9744V17H81.406V16.0493H81.3738C81.0784 16.71 80.4875 17.1182 79.6174 17.1182ZM84.0985 17V9.24951H85.6668V12.2358H85.6991C85.9945 11.5215 86.6014 11.124 87.4661 11.124C88.7122 11.124 89.4857 11.9941 89.4857 13.3853V17H87.9173V13.7075C87.9173 12.9019 87.5199 12.4238 86.8055 12.4238C86.1126 12.4238 85.6668 12.9502 85.6668 13.7021V17H84.0985ZM94.8706 18.8799C93.7588 17.5425 93.2754 15.9902 93.2754 14.0674C93.2754 12.1284 93.7588 10.5762 94.8706 9.24951H96.3101C95.5098 10.1841 94.8921 12.2305 94.8921 14.062C94.8921 15.8882 95.5098 17.9346 96.3101 18.8799H94.8706ZM100.173 17.1343C98.2076 17.1343 97.0152 15.5928 97.0152 13.1274V13.1167C97.0152 10.6514 98.2076 9.11523 100.173 9.11523C102.139 9.11523 103.332 10.6514 103.332 13.1167V13.1274C103.332 15.5928 102.139 17.1343 100.173 17.1343ZM100.173 15.8345C101.14 15.8345 101.693 14.8301 101.693 13.1274V13.1167C101.693 11.4141 101.14 10.415 100.173 10.415C99.2066 10.415 98.6534 11.4141 98.6534 13.1167V13.1274C98.6534 14.8301 99.2066 15.8345 100.173 15.8345ZM108.092 17V15.5767H104.236V14.2231L107.345 9.24951H109.633V14.2822H110.654V15.5767H109.633V17H108.092ZM105.648 14.3252H108.124V10.4204H108.087L105.648 14.2822V14.3252ZM112.364 17.0913C111.875 17.0913 111.493 16.7046 111.493 16.2212C111.493 15.7324 111.875 15.3511 112.364 15.3511C112.847 15.3511 113.234 15.7324 113.234 16.2212C113.234 16.7046 112.847 17.0913 112.364 17.0913ZM114.304 17V15.8882L117.043 13.3262C118.042 12.3916 118.252 12.0103 118.252 11.4731V11.4624C118.246 10.8286 117.763 10.3774 117.076 10.3774C116.281 10.3774 115.743 10.8984 115.722 11.5967L115.717 11.645H114.213V11.6021C114.213 10.1411 115.427 9.11523 117.065 9.11523C118.703 9.11523 119.831 10.0498 119.831 11.3711V11.3818C119.831 12.3218 119.385 12.9341 118.048 14.1641L116.426 15.6465V15.7109H119.938V17H114.304ZM123.963 9.11523C125.832 9.11523 127.196 10.4258 127.196 13.0522V13.063C127.196 15.6035 125.966 17.1343 123.947 17.1343C122.448 17.1343 121.32 16.2642 121.089 15.0664L121.079 15.0181H122.679L122.695 15.061C122.889 15.5283 123.318 15.8452 123.952 15.8452C125.085 15.8452 125.58 14.7656 125.639 13.396C125.644 13.2939 125.649 13.1865 125.644 13.1006H125.617C125.311 13.8203 124.548 14.3467 123.501 14.3467C122.002 14.3467 120.976 13.2886 120.976 11.833V11.8223C120.976 10.2378 122.239 9.11523 123.963 9.11523ZM123.968 13.1489C124.779 13.1489 125.402 12.585 125.402 11.7954V11.79C125.402 11.0059 124.779 10.4043 123.984 10.4043C123.195 10.4043 122.556 11.0005 122.556 11.7686V11.7793C122.556 12.585 123.163 13.1489 123.968 13.1489ZM129.335 18.8799H127.891C128.691 17.9346 129.309 15.8828 129.309 14.062C129.309 12.2305 128.691 10.1841 127.891 9.24951H129.335C130.442 10.5762 130.925 12.1284 130.925 14.0674C130.925 15.9849 130.442 17.5425 129.335 18.8799Z" fill="white"/>
<path d="M78.5 96.9C78.5 104.621 83.2992 111.256 90.013 113.494L92.705 116.619C93.2874 117.295 94.1355 117.684 95.0279 117.684C95.925 117.684 96.7771 117.291 97.3596 116.609L100.032 113.479C106.722 111.226 111.5 104.604 111.5 96.9C111.5 87.3738 104.194 79.5 95 79.5C85.8062 79.5 78.5 87.3738 78.5 96.9Z" fill="#4D7571" stroke="white" stroke-width="3"/>
<path d="M101.691 96.4717C103.242 98.6022 102.553 100.094 101.882 101.286C101.765 101.495 101.551 101.621 101.321 101.621H88.6951C88.4655 101.621 88.2519 101.495 88.1341 101.286C87.4637 100.094 86.7747 98.6022 88.3251 96.4717C88.5907 96.0825 89.5378 95.2714 90.5824 94.6734C91.9987 93.9184 94.7029 92.0765 94.8091 91.2171V91.0312C94.8091 90.9146 94.8983 90.8201 95.0082 90.8201C95.1183 90.8201 95.2074 90.9146 95.2074 91.0312V91.2171C95.3136 92.0765 98.0179 93.9184 99.4341 94.6734C100.479 95.2714 101.426 96.0825 101.691 96.4717Z" fill="white"/>
<path d="M101.659 102.605H88.3584C88.0959 102.605 87.8587 102.772 87.7558 103.027L87.3979 103.918C87.2137 104.376 87.5307 104.884 88.0005 104.884H102.017C102.486 104.884 102.803 104.376 102.619 103.918L102.261 103.027C102.158 102.772 101.921 102.605 101.659 102.605Z" fill="white"/>
<path fill-rule="evenodd" clip-rule="evenodd" d="M95.2046 91.3527C96.7545 91.3527 98.0109 90.0456 98.0109 88.4332C98.0109 88.3039 97.8256 88.2874 97.768 88.4013C97.4561 89.0186 96.8418 89.4385 96.135 89.4385C95.1125 89.4385 94.2837 88.5599 94.2837 87.4761C94.2837 86.7373 94.6688 86.0939 95.2378 85.7591C95.3391 85.6995 95.3206 85.5137 95.2046 85.5137C93.6548 85.5137 92.3984 86.8208 92.3984 88.4332C92.3984 90.0456 93.6548 91.3527 95.2046 91.3527Z" fill="white"/>
<path d="M519.5 100.96C519.5 109.165 524.605 116.209 531.738 118.574L534.628 121.928C535.23 122.627 536.107 123.03 537.03 123.03C537.957 123.03 538.839 122.623 539.441 121.918L542.31 118.558C549.417 116.178 554.5 109.147 554.5 100.96C554.5 90.8484 546.746 82.5 537 82.5C527.254 82.5 519.5 90.8484 519.5 100.96Z" fill="#4D7571" stroke="white" stroke-width="3"/>
<path d="M544.138 100.503C545.792 102.776 545.057 104.367 544.342 105.638C544.216 105.861 543.988 105.996 543.743 105.996H530.275C530.031 105.996 529.803 105.861 529.677 105.638C528.962 104.367 528.227 102.776 529.881 100.503C530.164 100.088 531.174 99.2226 532.289 98.5849C533.799 97.7795 536.684 95.8148 536.797 94.8981V94.6998C536.797 94.5754 536.892 94.4746 537.009 94.4746C537.127 94.4746 537.222 94.5754 537.222 94.6998V94.8981C537.335 95.8148 540.22 97.7795 541.73 98.5849C542.845 99.2226 543.855 100.088 544.138 100.503Z" fill="white"/>
<path d="M544.102 107.046H529.915C529.635 107.046 529.382 107.223 529.272 107.496L528.891 108.446C528.694 108.934 529.032 109.477 529.533 109.477H544.484C544.985 109.477 545.323 108.934 545.127 108.446L544.745 107.496C544.635 107.223 544.382 107.046 544.102 107.046Z" fill="white"/>
<path fill-rule="evenodd" clip-rule="evenodd" d="M537.218 95.0428C538.871 95.0428 540.211 93.6486 540.211 91.9287C540.211 91.7909 540.014 91.7732 539.952 91.8947C539.619 92.5532 538.964 93.001 538.21 93.001C537.12 93.001 536.236 92.0639 536.236 90.9078C536.236 90.1198 536.646 89.4335 537.253 89.0764C537.361 89.0128 537.342 88.8146 537.218 88.8146C535.565 88.8146 534.225 90.2088 534.225 91.9287C534.225 93.6486 535.565 95.0428 537.218 95.0428Z" fill="white"/>
<path d="M200.5 38.96C200.5 47.165 205.605 54.209 212.738 56.5737L215.628 59.9283C216.23 60.6275 217.107 61.0296 218.03 61.0296C218.957 61.0296 219.839 60.6233 220.441 59.9178L223.31 56.5578C230.417 54.1776 235.5 47.1467 235.5 38.96C235.5 28.8484 227.746 20.5 218 20.5C208.254 20.5 200.5 28.8484 200.5 38.96Z" fill="#4D7571" stroke="white" stroke-width="3"/>
<path d="M225.138 38.503C226.792 40.7755 226.057 42.3673 225.342 43.6378C225.216 43.8607 224.988 43.9959 224.743 43.9959H211.275C211.031 43.9959 210.803 43.8607 210.677 43.6378C209.962 42.3673 209.227 40.7755 210.881 38.503C211.164 38.0879 212.174 37.2226 213.289 36.5849C214.799 35.7795 217.684 33.8148 217.797 32.8981V32.6998C217.797 32.5754 217.892 32.4746 218.009 32.4746C218.127 32.4746 218.222 32.5754 218.222 32.6998V32.8981C218.335 33.8148 221.22 35.7795 222.73 36.5849C223.845 37.2226 224.855 38.0879 225.138 38.503Z" fill="white"/>
<path d="M225.102 45.0458H210.915C210.635 45.0458 210.382 45.223 210.272 45.496L209.891 46.4457C209.694 46.9342 210.032 47.4767 210.533 47.4767H225.484C225.985 47.4767 226.323 46.9342 226.127 46.4457L225.745 45.496C225.635 45.223 225.382 45.0458 225.102 45.0458Z" fill="white"/>
<path fill-rule="evenodd" clip-rule="evenodd" d="M218.218 33.0428C219.871 33.0428 221.211 31.6486 221.211 29.9287C221.211 29.7909 221.014 29.7732 220.952 29.8947C220.619 30.5532 219.964 31.001 219.21 31.001C218.12 31.001 217.236 30.0639 217.236 28.9078C217.236 28.1198 217.646 27.4335 218.253 27.0764C218.361 27.0128 218.342 26.8146 218.218 26.8146C216.565 26.8146 215.225 28.2088 215.225 29.9287C215.225 31.6486 216.565 33.0428 218.218 33.0428Z" fill="white"/>
<defs>
<filter id="filter0_d_11_726" x="624" y="51" width="140" height="60" filterUnits="userSpaceOnUse" color-interpolation-filters="sRGB">
<feFlood flood-opacity="0" result="BackgroundImageFix"/>
<feColorMatrix in="SourceAlpha" type="matrix" values="0 0 0 0 0 0 0 0 0 0 0 0 0 0 0 0 0 0 127 0" result="hardAlpha"/>
<feOffset/>
<feComposite in2="hardAlpha" operator="out"/>
<feColorMatrix type="matrix" values="0 0 0 0 0 0 0 0 0 0 0 0 0 0 0 0 0 0 0.1 0"/>
<feBlend mode="normal" in2="BackgroundImageFix" result="effect1_dropShadow_11_726"/>
<feBlend mode="normal" in="SourceGraphic" in2="effect1_dropShadow_11_726" result="shape"/>
</filter>
<filter id="filter1_b_11_726" x="494" y="-79" width="400" height="320" filterUnits="userSpaceOnUse" color-interpolation-filters="sRGB">
<feFlood flood-opacity="0" result="BackgroundImageFix"/>
<feGaussianBlur in="BackgroundImageFix" stdDeviation="65"/>
<feComposite in2="SourceAlpha" operator="in" result="effect1_backgroundBlur_11_726"/>
<feBlend mode="normal" in="SourceGraphic" in2="effect1_backgroundBlur_11_726" result="shape"/>
</filter>
<filter id="filter2_d_11_726" x="325" y="24" width="140" height="60" filterUnits="userSpaceOnUse" color-interpolation-filters="sRGB">
<feFlood flood-opacity="0" result="BackgroundImageFix"/>
<feColorMatrix in="SourceAlpha" type="matrix" values="0 0 0 0 0 0 0 0 0 0 0 0 0 0 0 0 0 0 127 0" result="hardAlpha"/>
<feOffset/>
<feComposite in2="hardAlpha" operator="out"/>
<feColorMatrix type="matrix" values="0 0 0 0 0 0 0 0 0 0 0 0 0 0 0 0 0 0 0.1 0"/>
<feBlend mode="normal" in2="BackgroundImageFix" result="effect1_dropShadow_11_726"/>
<feBlend mode="normal" in="SourceGraphic" in2="effect1_dropShadow_11_726" result="shape"/>
</filter>
<filter id="filter3_b_11_726" x="195" y="-106" width="400" height="320" filterUnits="userSpaceOnUse" color-interpolation-filters="sRGB">
<feFlood flood-opacity="0" result="BackgroundImageFix"/>
<feGaussianBlur in="BackgroundImageFix" stdDeviation="65"/>
<feComposite in2="SourceAlpha" operator="in" result="effect1_backgroundBlur_11_726"/>
<feBlend mode="normal" in="SourceGraphic" in2="effect1_backgroundBlur_11_726" result="shape"/>
</filter>
<filter id="filter4_d_11_726" x="22" y="9.35718" width="143" height="61.2858" filterUnits="userSpaceOnUse" color-interpolation-filters="sRGB">
<feFlood flood-opacity="0" result="BackgroundImageFix"/>
<feColorMatrix in="SourceAlpha" type="matrix" values="0 0 0 0 0 0 0 0 0 0 0 0 0 0 0 0 0 0 127 0" result="hardAlpha"/>
<feOffset/>
<feComposite in2="hardAlpha" operator="out"/>
<feColorMatrix type="matrix" values="0 0 0 0 0 0 0 0 0 0 0 0 0 0 0 0 0 0 0.1 0"/>
<feBlend mode="normal" in2="BackgroundImageFix" result="effect1_dropShadow_11_726"/>
<feBlend mode="normal" in="SourceGraphic" in2="effect1_dropShadow_11_726" result="shape"/>
</filter>
<filter id="filter5_b_11_726" x="-108" y="-120.643" width="403" height="321" filterUnits="userSpaceOnUse" color-interpolation-filters="sRGB">
<feFlood flood-opacity="0" result="BackgroundImageFix"/>
<feGaussianBlur in="BackgroundImageFix" stdDeviation="65"/>
<feComposite in2="SourceAlpha" operator="in" result="effect1_backgroundBlur_11_726"/>
<feBlend mode="normal" in="SourceGraphic" in2="effect1_backgroundBlur_11_726" result="shape"/>
</filter>
</defs>
</svg>
