<svg width="1440" height="171" viewBox="0 0 1440 171" fill="none" xmlns="http://www.w3.org/2000/svg">
<g filter="url(#filter0_d_4_15)">
<g filter="url(#filter1_b_4_15)">
<rect x="1250" y="52.0801" width="140" height="60" rx="13" fill="white"/>
</g>
</g>
<path d="M1268.03 82.0801V72.9204H1269.67L1272.64 80.2329H1272.67L1275.64 72.9204H1277.28V82.0801H1275.99V75.3198H1275.94L1273.18 82.0801H1272.13L1269.37 75.3198H1269.32V82.0801H1268.03ZM1280.51 82.2007C1279.18 82.2007 1278.28 81.3818 1278.28 80.1821V80.1694C1278.28 79.0078 1279.18 78.2969 1280.77 78.2017L1282.58 78.0938V77.5923C1282.58 76.856 1282.1 76.4116 1281.25 76.4116C1280.46 76.4116 1279.97 76.7861 1279.86 77.3193L1279.84 77.3765H1278.55L1278.56 77.3066C1278.65 76.1577 1279.65 75.2754 1281.29 75.2754C1282.92 75.2754 1283.96 76.1387 1283.96 77.478V82.0801H1282.58V81.0264H1282.56C1282.17 81.7437 1281.39 82.2007 1280.51 82.2007ZM1279.67 80.1504C1279.67 80.7344 1280.15 81.1025 1280.89 81.1025C1281.85 81.1025 1282.58 80.4487 1282.58 79.5791V79.0586L1280.95 79.1602C1280.12 79.2109 1279.67 79.5728 1279.67 80.1377V80.1504ZM1287.71 82.2134C1286.04 82.2134 1285.07 81.3882 1284.93 80.1694L1284.92 80.1123H1286.28L1286.29 80.1758C1286.42 80.7915 1286.88 81.1533 1287.72 81.1533C1288.55 81.1533 1289.04 80.8105 1289.04 80.271V80.2646C1289.04 79.833 1288.8 79.5854 1288.08 79.4141L1286.99 79.1665C1285.72 78.8745 1285.09 78.2651 1285.09 77.2939V77.2876C1285.09 76.0942 1286.13 75.2754 1287.67 75.2754C1289.25 75.2754 1290.2 76.1577 1290.27 77.2939L1290.28 77.3701H1288.99L1288.98 77.3257C1288.9 76.7417 1288.44 76.3354 1287.67 76.3354C1286.93 76.3354 1286.47 76.6846 1286.47 77.2178V77.2241C1286.47 77.6367 1286.74 77.916 1287.46 78.0874L1288.55 78.335C1289.91 78.6523 1290.43 79.1919 1290.43 80.1504V80.1567C1290.43 81.3755 1289.29 82.2134 1287.71 82.2134ZM1292.15 74.374C1291.7 74.374 1291.35 74.0186 1291.35 73.5869C1291.35 73.1489 1291.7 72.7935 1292.15 72.7935C1292.6 72.7935 1292.95 73.1489 1292.95 73.5869C1292.95 74.0186 1292.6 74.374 1292.15 74.374ZM1290.65 84.3145C1290.54 84.3145 1290.42 84.3081 1290.33 84.3018V83.1782C1290.4 83.1782 1290.46 83.1846 1290.53 83.1846C1291.21 83.1846 1291.46 82.9688 1291.46 82.2959V75.4023H1292.83V82.3086C1292.83 83.667 1292.13 84.3145 1290.65 84.3145ZM1294.92 74.374C1294.47 74.374 1294.12 74.0186 1294.12 73.5869C1294.12 73.1489 1294.47 72.7935 1294.92 72.7935C1295.37 72.7935 1295.71 73.1489 1295.71 73.5869C1295.71 74.0186 1295.37 74.374 1294.92 74.374ZM1294.23 82.0801V75.4023H1295.6V82.0801H1294.23ZM1299.43 82.2134C1297.73 82.2134 1296.64 80.8677 1296.64 78.7412V78.7349C1296.64 76.6084 1297.74 75.2754 1299.42 75.2754C1300.37 75.2754 1301.13 75.7515 1301.53 76.5386H1301.55V72.9204H1302.93V82.0801H1301.55V80.9502H1301.53C1301.13 81.731 1300.39 82.2134 1299.43 82.2134ZM1299.79 81.0327C1300.83 81.0327 1301.56 80.1313 1301.56 78.7412V78.7349C1301.56 77.3511 1300.82 76.4497 1299.79 76.4497C1298.72 76.4497 1298.04 77.3257 1298.04 78.7349V78.7412C1298.04 80.1631 1298.71 81.0327 1299.79 81.0327ZM1306.31 82.0801L1309.64 72.9204H1311.18L1314.5 82.0801H1313.01L1312.18 79.6045H1308.65L1307.8 82.0801H1306.31ZM1310.4 74.4375L1309.03 78.4619H1311.79L1310.42 74.4375H1310.4ZM1315.33 82.0801V72.9204H1316.7V82.0801H1315.33ZM1318.13 78.9824V77.7446H1322.21V78.9824H1318.13ZM1323.75 82.0801V72.9204H1325.4L1328.36 80.2329H1328.4L1331.37 72.9204H1333.01V82.0801H1331.71V75.3198H1331.67L1328.91 82.0801H1327.85L1325.09 75.3198H1325.05V82.0801H1323.75ZM1336.73 82.2134C1335.26 82.2134 1334.42 81.2676 1334.42 79.7314V75.4023H1335.79V79.4648C1335.79 80.4741 1336.26 81.0327 1337.22 81.0327C1338.18 81.0327 1338.8 80.3408 1338.8 79.2998V75.4023H1340.18V82.0801H1338.8V81.0771H1338.77C1338.42 81.75 1337.74 82.2134 1336.73 82.2134ZM1345.01 82.2134C1344.05 82.2134 1343.31 81.731 1342.91 80.9502H1342.88V82.0801H1341.51V72.9204H1342.88V76.5386H1342.91C1343.31 75.7515 1344.08 75.2754 1345.02 75.2754C1346.7 75.2754 1347.8 76.6084 1347.8 78.7349V78.7412C1347.8 80.8677 1346.7 82.2134 1345.01 82.2134ZM1344.65 81.0327C1345.73 81.0327 1346.4 80.1631 1346.4 78.7412V78.7349C1346.4 77.3257 1345.73 76.4497 1344.65 76.4497C1343.61 76.4497 1342.88 77.3511 1342.88 78.7349V78.7412C1342.88 80.1313 1343.61 81.0327 1344.65 81.0327ZM1350.75 82.2007C1349.41 82.2007 1348.52 81.3818 1348.52 80.1821V80.1694C1348.52 79.0078 1349.42 78.2969 1351 78.2017L1352.81 78.0938V77.5923C1352.81 76.856 1352.34 76.4116 1351.49 76.4116C1350.69 76.4116 1350.21 76.7861 1350.09 77.3193L1350.08 77.3765H1348.78L1348.79 77.3066C1348.89 76.1577 1349.88 75.2754 1351.53 75.2754C1353.16 75.2754 1354.19 76.1387 1354.19 77.478V82.0801H1352.81V81.0264H1352.79C1352.4 81.7437 1351.63 82.2007 1350.75 82.2007ZM1349.9 80.1504C1349.9 80.7344 1350.38 81.1025 1351.12 81.1025C1352.08 81.1025 1352.81 80.4487 1352.81 79.5791V79.0586L1351.18 79.1602C1350.36 79.2109 1349.9 79.5728 1349.9 80.1377V80.1504ZM1355.45 82.0801V75.4023H1356.82V76.5449H1356.85C1357.07 75.7642 1357.62 75.2754 1358.39 75.2754C1358.58 75.2754 1358.75 75.3071 1358.86 75.3262V76.6021C1358.75 76.5576 1358.51 76.5259 1358.25 76.5259C1357.36 76.5259 1356.82 77.1035 1356.82 78.1001V82.0801H1355.45ZM1361.46 82.2007C1360.12 82.2007 1359.23 81.3818 1359.23 80.1821V80.1694C1359.23 79.0078 1360.13 78.2969 1361.71 78.2017L1363.53 78.0938V77.5923C1363.53 76.856 1363.05 76.4116 1362.2 76.4116C1361.41 76.4116 1360.92 76.7861 1360.8 77.3193L1360.79 77.3765H1359.5L1359.5 77.3066C1359.6 76.1577 1360.59 75.2754 1362.24 75.2754C1363.87 75.2754 1364.9 76.1387 1364.9 77.478V82.0801H1363.53V81.0264H1363.5C1363.11 81.7437 1362.34 82.2007 1361.46 82.2007ZM1360.61 80.1504C1360.61 80.7344 1361.09 81.1025 1361.83 81.1025C1362.8 81.1025 1363.53 80.4487 1363.53 79.5791V79.0586L1361.89 79.1602C1361.07 79.2109 1360.61 79.5728 1360.61 80.1377V80.1504ZM1370.77 84.3018V80.9819H1370.74C1370.36 81.731 1369.6 82.2007 1368.64 82.2007C1366.96 82.2007 1365.86 80.8613 1365.86 78.7349V78.7285C1365.86 76.6147 1366.98 75.2817 1368.67 75.2817C1369.61 75.2817 1370.35 75.7896 1370.74 76.5513H1370.77V75.4023H1372.15V84.3018H1370.77ZM1369.03 81.02C1370.07 81.02 1370.77 80.125 1370.77 78.7412V78.7349C1370.77 77.3511 1370.07 76.4624 1369.03 76.4624C1367.94 76.4624 1367.26 77.3447 1367.26 78.7285V78.7349C1367.26 80.1504 1367.94 81.02 1369.03 81.02Z" fill="#496F6B"/>
<path d="M1285.66 97.0801V89.3296H1290.46V90.1997H1286.62V92.6865H1290.26V93.5459H1286.62V96.21H1290.46V97.0801H1285.66ZM1293.64 97.1875C1292.32 97.1875 1291.53 96.5161 1291.42 95.5171L1291.41 95.4688H1292.35L1292.36 95.5225C1292.47 96.0811 1292.88 96.4087 1293.65 96.4087C1294.4 96.4087 1294.85 96.0918 1294.85 95.5869V95.5815C1294.85 95.1787 1294.65 94.9531 1294.01 94.7974L1293.12 94.5825C1292.07 94.3301 1291.56 93.8413 1291.56 93.0356V93.0303C1291.56 92.0688 1292.41 91.3867 1293.61 91.3867C1294.84 91.3867 1295.62 92.1011 1295.69 93.0356L1295.69 93.1055H1294.8L1294.8 93.0679C1294.72 92.5254 1294.31 92.1655 1293.61 92.1655C1292.94 92.1655 1292.52 92.4932 1292.52 92.9873V92.9927C1292.52 93.374 1292.77 93.6372 1293.39 93.7876L1294.27 94.0024C1295.4 94.2764 1295.81 94.7222 1295.81 95.5171V95.5225C1295.81 96.5 1294.89 97.1875 1293.64 97.1875ZM1298.66 97.1875C1297.64 97.1875 1297.13 96.7256 1297.13 95.6567V92.2676H1296.32V91.4941H1297.13V89.9849H1298.1V91.4941H1299.16V92.2676H1298.1V95.6514C1298.1 96.2476 1298.36 96.4141 1298.86 96.4141C1298.98 96.4141 1299.08 96.3979 1299.16 96.3926V97.1499C1299.05 97.166 1298.85 97.1875 1298.66 97.1875ZM1300.76 90.5488C1300.44 90.5488 1300.17 90.2856 1300.17 89.9634C1300.17 89.6357 1300.44 89.3779 1300.76 89.3779C1301.09 89.3779 1301.35 89.6357 1301.35 89.9634C1301.35 90.2856 1301.09 90.5488 1300.76 90.5488ZM1300.29 97.0801V91.4941H1301.23V97.0801H1300.29ZM1302.57 97.0801V91.4941H1303.5V92.3105H1303.52C1303.78 91.7573 1304.33 91.3867 1305.05 91.3867C1305.82 91.3867 1306.38 91.7788 1306.62 92.4609H1306.64C1306.95 91.7896 1307.61 91.3867 1308.39 91.3867C1309.5 91.3867 1310.22 92.1118 1310.22 93.2236V97.0801H1309.28V93.4385C1309.28 92.6704 1308.86 92.2139 1308.12 92.2139C1307.38 92.2139 1306.86 92.7671 1306.86 93.5298V97.0801H1305.92V93.3364C1305.92 92.6597 1305.47 92.2139 1304.78 92.2139C1304.04 92.2139 1303.5 92.7993 1303.5 93.5781V97.0801H1302.57ZM1313.11 97.1875C1311.99 97.1875 1311.25 96.5161 1311.25 95.501V95.4902C1311.25 94.5396 1311.99 93.9434 1313.27 93.8682L1314.87 93.7769V93.3096C1314.87 92.6274 1314.43 92.2139 1313.65 92.2139C1312.93 92.2139 1312.48 92.5576 1312.37 93.0571L1312.36 93.1055H1311.46L1311.46 93.0464C1311.54 92.1279 1312.34 91.3867 1313.66 91.3867C1314.98 91.3867 1315.81 92.1011 1315.81 93.2183V97.0801H1314.87V96.1724H1314.85C1314.52 96.7847 1313.85 97.1875 1313.11 97.1875ZM1312.2 95.501C1312.2 96.0381 1312.64 96.3765 1313.32 96.3765C1314.2 96.3765 1314.87 95.7695 1314.87 94.9585V94.502L1313.38 94.5933C1312.63 94.6362 1312.2 94.9692 1312.2 95.4902V95.501ZM1319.04 97.1875C1317.73 97.1875 1316.93 96.5161 1316.82 95.5171L1316.81 95.4688H1317.75L1317.76 95.5225C1317.87 96.0811 1318.29 96.4087 1319.05 96.4087C1319.81 96.4087 1320.26 96.0918 1320.26 95.5869V95.5815C1320.26 95.1787 1320.05 94.9531 1319.41 94.7974L1318.53 94.5825C1317.47 94.3301 1316.96 93.8413 1316.96 93.0356V93.0303C1316.96 92.0688 1317.81 91.3867 1319.02 91.3867C1320.24 91.3867 1321.02 92.1011 1321.09 93.0356L1321.09 93.1055H1320.2L1320.2 93.0679C1320.12 92.5254 1319.71 92.1655 1319.02 92.1655C1318.34 92.1655 1317.92 92.4932 1317.92 92.9873V92.9927C1317.92 93.374 1318.17 93.6372 1318.79 93.7876L1319.68 94.0024C1320.8 94.2764 1321.21 94.7222 1321.21 95.5171V95.5225C1321.21 96.5 1320.29 97.1875 1319.04 97.1875ZM1322.78 90.5488C1322.46 90.5488 1322.19 90.2856 1322.19 89.9634C1322.19 89.6357 1322.46 89.3779 1322.78 89.3779C1323.1 89.3779 1323.36 89.6357 1323.36 89.9634C1323.36 90.2856 1323.1 90.5488 1322.78 90.5488ZM1322.31 97.0801V91.4941H1323.24V97.0801H1322.31ZM1325.16 92.998C1324.81 92.998 1324.55 92.7295 1324.55 92.3857C1324.55 92.042 1324.81 91.7734 1325.16 91.7734C1325.5 91.7734 1325.77 92.042 1325.77 92.3857C1325.77 92.7295 1325.5 92.998 1325.16 92.998ZM1325.16 97.1553C1324.81 97.1553 1324.55 96.8867 1324.55 96.543C1324.55 96.1992 1324.81 95.9307 1325.16 95.9307C1325.5 95.9307 1325.77 96.1992 1325.77 96.543C1325.77 96.8867 1325.5 97.1553 1325.16 97.1553ZM1331.33 97.0801V90.3555H1331.31L1329.26 91.7842V90.812L1331.32 89.3296H1332.27V97.0801H1331.33ZM1337.98 97.0801V95.4688H1334.09V94.5933L1337.49 89.3296H1338.92V94.6201H1340.01V95.4688H1338.92V97.0801H1337.98ZM1335.05 94.6201H1337.98V90.1567H1337.95L1335.05 94.5986V94.6201ZM1341.57 97.1553C1341.22 97.1553 1340.96 96.8867 1340.96 96.543C1340.96 96.1992 1341.22 95.9307 1341.57 95.9307C1341.91 95.9307 1342.18 96.1992 1342.18 96.543C1342.18 96.8867 1341.91 97.1553 1341.57 97.1553ZM1346.22 97.209C1344.73 97.209 1343.67 96.2852 1343.56 95.0229L1343.56 94.9639H1344.51L1344.51 95.0068C1344.61 95.7749 1345.3 96.3604 1346.23 96.3604C1347.28 96.3604 1348.01 95.6299 1348.01 94.5879V94.5771C1348 93.5566 1347.27 92.8262 1346.24 92.8262C1345.72 92.8262 1345.26 92.9819 1344.92 93.2935C1344.78 93.4224 1344.66 93.5728 1344.56 93.75H1343.7L1344.1 89.3296H1348.54V90.189H1344.89L1344.63 92.7939H1344.65C1345.02 92.2729 1345.66 91.9937 1346.41 91.9937C1347.9 91.9937 1348.98 93.0732 1348.98 94.561V94.5718C1348.97 96.124 1347.83 97.209 1346.22 97.209ZM1352.75 97.209C1350.97 97.209 1349.91 95.6675 1349.91 93.2075V93.1968C1349.91 90.7368 1350.97 89.2007 1352.75 89.2007C1354.54 89.2007 1355.61 90.7368 1355.61 93.1968V93.2075C1355.61 95.6675 1354.54 97.209 1352.75 97.209ZM1352.75 96.3657C1353.94 96.3657 1354.63 95.1519 1354.63 93.2075V93.1968C1354.63 91.2524 1353.94 90.0493 1352.75 90.0493C1351.57 90.0493 1350.88 91.2524 1350.88 93.1968V93.2075C1350.88 95.1519 1351.57 96.3657 1352.75 96.3657Z" fill="#898989"/>
<rect x="1271" y="47.0801" width="99" height="17" rx="8.5" fill="#74B0AA"/>
<path d="M1285.6 59.0801L1288.31 51.3296H1290.21L1292.92 59.0801H1291.21L1290.63 57.2002H1287.89L1287.3 59.0801H1285.6ZM1289.24 52.8335L1288.26 55.9863H1290.25L1289.27 52.8335H1289.24ZM1295.96 59.1982C1294.36 59.1982 1293.48 58.4624 1293.35 57.3721L1293.35 57.3237H1294.88L1294.89 57.3721C1294.99 57.8232 1295.33 58.0864 1295.96 58.0864C1296.55 58.0864 1296.91 57.8555 1296.91 57.4849V57.4795C1296.91 57.1733 1296.71 56.9961 1296.15 56.8726L1295.17 56.6685C1294.06 56.4321 1293.49 55.8735 1293.49 55.0142V55.0088C1293.49 53.9131 1294.44 53.2041 1295.9 53.2041C1297.43 53.2041 1298.29 54.0151 1298.33 55.0249V55.0786H1296.88L1296.88 55.0356C1296.82 54.6221 1296.48 54.3105 1295.9 54.3105C1295.36 54.3105 1295.02 54.5522 1295.02 54.9229V54.9282C1295.02 55.2236 1295.22 55.417 1295.8 55.5405L1296.78 55.75C1297.98 56.0024 1298.48 56.4751 1298.48 57.3237V57.3291C1298.48 58.457 1297.44 59.1982 1295.96 59.1982ZM1299.35 59.0801V51.3296H1300.92V54.3159H1300.95C1301.25 53.6016 1301.86 53.2041 1302.72 53.2041C1303.97 53.2041 1304.74 54.0742 1304.74 55.4653V59.0801H1303.17V55.7876C1303.17 54.9819 1302.77 54.5039 1302.06 54.5039C1301.37 54.5039 1300.92 55.0303 1300.92 55.7822V59.0801H1299.35ZM1307.53 59.1714C1306.37 59.1714 1305.6 58.4463 1305.6 57.4312V57.4204C1305.6 56.373 1306.41 55.7607 1307.84 55.6694L1309.26 55.5835V55.229C1309.26 54.7188 1308.93 54.4019 1308.31 54.4019C1307.73 54.4019 1307.37 54.6758 1307.3 55.0464L1307.29 55.0947H1305.85L1305.86 55.0303C1305.95 53.9668 1306.86 53.2041 1308.38 53.2041C1309.87 53.2041 1310.83 53.9722 1310.83 55.1323V59.0801H1309.26V58.2207H1309.23C1308.9 58.8115 1308.29 59.1714 1307.53 59.1714ZM1307.15 57.3506C1307.15 57.7749 1307.5 58.0273 1308.04 58.0273C1308.74 58.0273 1309.26 57.5762 1309.26 56.9746V56.561L1308.07 56.6362C1307.47 56.6738 1307.15 56.9316 1307.15 57.3398V57.3506ZM1311.91 59.0801V53.3223H1313.48V54.3267H1313.51C1313.68 53.6177 1314.15 53.2041 1314.82 53.2041C1314.99 53.2041 1315.15 53.231 1315.27 53.2632V54.6436C1315.14 54.5898 1314.93 54.5576 1314.7 54.5576C1313.93 54.5576 1313.48 55.0195 1313.48 55.8574V59.0801H1311.91ZM1320.29 60.96C1319.18 59.6226 1318.7 58.0703 1318.7 56.1475C1318.7 54.2085 1319.18 52.6562 1320.29 51.3296H1321.73C1320.93 52.2642 1320.31 54.3105 1320.31 56.1421C1320.31 57.9683 1320.93 60.0146 1321.73 60.96H1320.29ZM1324.47 59.0801V52.8174H1324.44L1322.46 54.1602V52.7207L1324.47 51.3296H1326.08V59.0801H1324.47ZM1330.86 59.2144C1329.17 59.2144 1328.05 58.2314 1327.96 56.937L1327.95 56.8564H1329.45L1329.46 56.894C1329.57 57.4795 1330.12 57.9307 1330.86 57.9307C1331.71 57.9307 1332.31 57.3506 1332.31 56.5234V56.5127C1332.3 55.6963 1331.71 55.1216 1330.87 55.1216C1330.47 55.1216 1330.13 55.2397 1329.87 55.4492C1329.71 55.5674 1329.59 55.7178 1329.5 55.8789H1328.09L1328.44 51.3296H1333.39V52.6187H1329.73L1329.54 54.7993H1329.57C1329.9 54.2783 1330.54 53.9614 1331.32 53.9614C1332.79 53.9614 1333.86 55.0195 1333.86 56.4805V56.4912C1333.86 58.1133 1332.63 59.2144 1330.86 59.2144ZM1335.55 59.1714C1335.06 59.1714 1334.68 58.7847 1334.68 58.3013C1334.68 57.8125 1335.06 57.4312 1335.55 57.4312C1336.03 57.4312 1336.42 57.8125 1336.42 58.3013C1336.42 58.7847 1336.03 59.1714 1335.55 59.1714ZM1340.39 59.2144C1338.42 59.2144 1337.23 57.6729 1337.23 55.2075V55.1968C1337.23 52.7314 1338.42 51.1953 1340.39 51.1953C1342.36 51.1953 1343.55 52.7314 1343.55 55.1968V55.2075C1343.55 57.6729 1342.36 59.2144 1340.39 59.2144ZM1340.39 57.9146C1341.36 57.9146 1341.91 56.9102 1341.91 55.2075V55.1968C1341.91 53.4941 1341.36 52.4951 1340.39 52.4951C1339.42 52.4951 1338.87 53.4941 1338.87 55.1968V55.2075C1338.87 56.9102 1339.42 57.9146 1340.39 57.9146ZM1347.67 59.2144C1345.71 59.2144 1344.52 57.6729 1344.52 55.2075V55.1968C1344.52 52.7314 1345.71 51.1953 1347.67 51.1953C1349.64 51.1953 1350.83 52.7314 1350.83 55.1968V55.2075C1350.83 57.6729 1349.64 59.2144 1347.67 59.2144ZM1347.67 57.9146C1348.64 57.9146 1349.19 56.9102 1349.19 55.2075V55.1968C1349.19 53.4941 1348.64 52.4951 1347.67 52.4951C1346.71 52.4951 1346.15 53.4941 1346.15 55.1968V55.2075C1346.15 56.9102 1346.71 57.9146 1347.67 57.9146ZM1352.98 60.96H1351.54C1352.34 60.0146 1352.96 57.9629 1352.96 56.1421C1352.96 54.3105 1352.34 52.2642 1351.54 51.3296H1352.98C1354.09 52.6562 1354.57 54.2085 1354.57 56.1475C1354.57 58.0649 1354.09 59.6226 1352.98 60.96Z" fill="white"/>
<path d="M1302.5 139.88C1302.5 148.085 1307.61 155.129 1314.74 157.494L1317.63 160.848C1318.23 161.547 1319.11 161.949 1320.03 161.949C1320.96 161.949 1321.84 161.543 1322.44 160.838L1325.31 157.478C1332.42 155.097 1337.5 148.067 1337.5 139.88C1337.5 129.768 1329.75 121.42 1320 121.42C1310.25 121.42 1302.5 129.768 1302.5 139.88Z" fill="#4D7571" stroke="white" stroke-width="3"/>
<path d="M1327.14 139.423C1328.79 141.696 1328.06 143.287 1327.34 144.558C1327.22 144.781 1326.99 144.916 1326.74 144.916H1313.28C1313.03 144.916 1312.8 144.781 1312.68 144.558C1311.96 143.287 1311.23 141.696 1312.88 139.423C1313.16 139.008 1314.17 138.143 1315.29 137.505C1316.8 136.7 1319.68 134.735 1319.8 133.818V133.62C1319.8 133.495 1319.89 133.395 1320.01 133.395C1320.13 133.395 1320.22 133.495 1320.22 133.62V133.818C1320.33 134.735 1323.22 136.7 1324.73 137.505C1325.84 138.143 1326.85 139.008 1327.14 139.423Z" fill="white"/>
<path d="M1327.1 145.966H1312.92C1312.64 145.966 1312.38 146.143 1312.27 146.416L1311.89 147.366C1311.69 147.854 1312.03 148.397 1312.53 148.397H1327.48C1327.99 148.397 1328.32 147.854 1328.13 147.366L1327.74 146.416C1327.64 146.143 1327.38 145.966 1327.1 145.966Z" fill="white"/>
<path fill-rule="evenodd" clip-rule="evenodd" d="M1320.22 133.963C1321.87 133.963 1323.21 132.569 1323.21 130.849C1323.21 130.711 1323.01 130.693 1322.95 130.815C1322.62 131.473 1321.96 131.921 1321.21 131.921C1320.12 131.921 1319.24 130.984 1319.24 129.828C1319.24 129.04 1319.65 128.353 1320.25 127.996C1320.36 127.933 1320.34 127.734 1320.22 127.734C1318.57 127.734 1317.23 129.129 1317.23 130.849C1317.23 132.569 1318.57 133.963 1320.22 133.963Z" fill="white"/>
<g filter="url(#filter2_d_4_15)">
<g filter="url(#filter3_b_4_15)">
<rect x="741" y="32" width="140" height="60" rx="13" fill="white"/>
</g>
</g>
<path d="M759.408 62V52.8403H761.052L764.017 60.1528H764.055L767.025 52.8403H768.663V62H767.368V55.2397H767.324L764.562 62H763.509L760.748 55.2397H760.703V62H759.408ZM771.892 62.1206C770.559 62.1206 769.664 61.3018 769.664 60.1021V60.0894C769.664 58.9277 770.566 58.2168 772.146 58.1216L773.962 58.0137V57.5122C773.962 56.7759 773.485 56.3315 772.635 56.3315C771.841 56.3315 771.353 56.7061 771.238 57.2393L771.226 57.2964H769.931L769.937 57.2266C770.032 56.0776 771.029 55.1953 772.673 55.1953C774.304 55.1953 775.339 56.0586 775.339 57.3979V62H773.962V60.9463H773.936C773.549 61.6636 772.775 62.1206 771.892 62.1206ZM771.048 60.0703C771.048 60.6543 771.53 61.0225 772.267 61.0225C773.232 61.0225 773.962 60.3687 773.962 59.499V58.9785L772.33 59.0801C771.505 59.1309 771.048 59.4927 771.048 60.0576V60.0703ZM779.095 62.1333C777.426 62.1333 776.448 61.3081 776.308 60.0894L776.302 60.0322H777.66L777.673 60.0957C777.8 60.7114 778.257 61.0732 779.101 61.0732C779.926 61.0732 780.422 60.7305 780.422 60.1909V60.1846C780.422 59.7529 780.18 59.5054 779.463 59.334L778.371 59.0864C777.102 58.7944 776.473 58.1851 776.473 57.2139V57.2075C776.473 56.0142 777.514 55.1953 779.051 55.1953C780.631 55.1953 781.583 56.0776 781.653 57.2139L781.659 57.29H780.371L780.364 57.2456C780.282 56.6616 779.825 56.2554 779.051 56.2554C778.314 56.2554 777.851 56.6045 777.851 57.1377V57.144C777.851 57.5566 778.124 57.8359 778.841 58.0073L779.926 58.2549C781.291 58.5723 781.812 59.1118 781.812 60.0703V60.0767C781.812 61.2954 780.669 62.1333 779.095 62.1333ZM783.53 54.2939C783.086 54.2939 782.73 53.9385 782.73 53.5068C782.73 53.0688 783.086 52.7134 783.53 52.7134C783.981 52.7134 784.33 53.0688 784.33 53.5068C784.33 53.9385 783.981 54.2939 783.53 54.2939ZM782.032 64.2344C781.924 64.2344 781.804 64.228 781.715 64.2217V63.0981C781.778 63.0981 781.842 63.1045 781.911 63.1045C782.591 63.1045 782.845 62.8887 782.845 62.2158V55.3223H784.216V62.2285C784.216 63.5869 783.511 64.2344 782.032 64.2344ZM786.296 54.2939C785.852 54.2939 785.496 53.9385 785.496 53.5068C785.496 53.0688 785.852 52.7134 786.296 52.7134C786.747 52.7134 787.096 53.0688 787.096 53.5068C787.096 53.9385 786.747 54.2939 786.296 54.2939ZM785.61 62V55.3223H786.981V62H785.61ZM790.814 62.1333C789.112 62.1333 788.021 60.7876 788.021 58.6611V58.6548C788.021 56.5283 789.125 55.1953 790.801 55.1953C791.747 55.1953 792.508 55.6714 792.908 56.4585H792.934V52.8403H794.311V62H792.934V60.8701H792.908C792.508 61.6509 791.772 62.1333 790.814 62.1333ZM791.175 60.9526C792.21 60.9526 792.94 60.0513 792.94 58.6611V58.6548C792.94 57.271 792.204 56.3696 791.175 56.3696C790.096 56.3696 789.423 57.2456 789.423 58.6548V58.6611C789.423 60.083 790.09 60.9526 791.175 60.9526ZM798.37 62V52.8403H801.601C804.318 52.8403 805.936 54.5098 805.936 57.3916V57.4043C805.936 60.2988 804.33 62 801.601 62H798.37ZM799.792 60.7686H801.468C803.41 60.7686 804.483 59.5815 804.483 57.417V57.4043C804.483 55.2524 803.397 54.0654 801.468 54.0654H799.792V60.7686ZM809 62.1206C807.667 62.1206 806.772 61.3018 806.772 60.1021V60.0894C806.772 58.9277 807.674 58.2168 809.254 58.1216L811.07 58.0137V57.5122C811.07 56.7759 810.594 56.3315 809.743 56.3315C808.95 56.3315 808.461 56.7061 808.347 57.2393L808.334 57.2964H807.039L807.045 57.2266C807.141 56.0776 808.137 55.1953 809.781 55.1953C811.413 55.1953 812.447 56.0586 812.447 57.3979V62H811.07V60.9463H811.044C810.657 61.6636 809.883 62.1206 809 62.1206ZM808.156 60.0703C808.156 60.6543 808.639 61.0225 809.375 61.0225C810.34 61.0225 811.07 60.3687 811.07 59.499V58.9785L809.438 59.0801C808.613 59.1309 808.156 59.4927 808.156 60.0576V60.0703ZM813.702 62V55.3223H815.073V56.4648H815.105C815.321 55.6841 815.88 55.1953 816.641 55.1953C816.838 55.1953 817.009 55.2271 817.117 55.2461V56.522C817.009 56.4775 816.768 56.4458 816.502 56.4458C815.619 56.4458 815.073 57.0234 815.073 58.02V62H813.702ZM820.162 62.1333C818.696 62.1333 817.858 61.1875 817.858 59.6514V55.3223H819.229V59.3848C819.229 60.394 819.699 60.9526 820.651 60.9526C821.616 60.9526 822.238 60.2607 822.238 59.2197V55.3223H823.615V62H822.238V60.9971H822.206C821.857 61.6699 821.178 62.1333 820.162 62.1333ZM827.397 62.1333C825.727 62.1333 824.75 61.3081 824.61 60.0894L824.604 60.0322H825.962L825.975 60.0957C826.102 60.7114 826.559 61.0732 827.403 61.0732C828.228 61.0732 828.724 60.7305 828.724 60.1909V60.1846C828.724 59.7529 828.482 59.5054 827.765 59.334L826.673 59.0864C825.404 58.7944 824.775 58.1851 824.775 57.2139V57.2075C824.775 56.0142 825.816 55.1953 827.352 55.1953C828.933 55.1953 829.885 56.0776 829.955 57.2139L829.961 57.29H828.673L828.666 57.2456C828.584 56.6616 828.127 56.2554 827.352 56.2554C826.616 56.2554 826.153 56.6045 826.153 57.1377V57.144C826.153 57.5566 826.426 57.8359 827.143 58.0073L828.228 58.2549C829.593 58.5723 830.114 59.1118 830.114 60.0703V60.0767C830.114 61.2954 828.971 62.1333 827.397 62.1333ZM833.603 62.1333C831.934 62.1333 830.956 61.3081 830.816 60.0894L830.81 60.0322H832.168L832.181 60.0957C832.308 60.7114 832.765 61.0732 833.609 61.0732C834.435 61.0732 834.93 60.7305 834.93 60.1909V60.1846C834.93 59.7529 834.688 59.5054 833.971 59.334L832.879 59.0864C831.61 58.7944 830.981 58.1851 830.981 57.2139V57.2075C830.981 56.0142 832.022 55.1953 833.559 55.1953C835.139 55.1953 836.091 56.0776 836.161 57.2139L836.167 57.29H834.879L834.873 57.2456C834.79 56.6616 834.333 56.2554 833.559 56.2554C832.822 56.2554 832.359 56.6045 832.359 57.1377V57.144C832.359 57.5566 832.632 57.8359 833.349 58.0073L834.435 58.2549C835.799 58.5723 836.32 59.1118 836.32 60.0703V60.0767C836.32 61.2954 835.177 62.1333 833.603 62.1333ZM839.27 62.1206C837.937 62.1206 837.042 61.3018 837.042 60.1021V60.0894C837.042 58.9277 837.943 58.2168 839.524 58.1216L841.339 58.0137V57.5122C841.339 56.7759 840.863 56.3315 840.012 56.3315C839.219 56.3315 838.73 56.7061 838.616 57.2393L838.603 57.2964H837.308L837.315 57.2266C837.41 56.0776 838.406 55.1953 840.05 55.1953C841.682 55.1953 842.716 56.0586 842.716 57.3979V62H841.339V60.9463H841.314C840.926 61.6636 840.152 62.1206 839.27 62.1206ZM838.425 60.0703C838.425 60.6543 838.908 61.0225 839.644 61.0225C840.609 61.0225 841.339 60.3687 841.339 59.499V58.9785L839.708 59.0801C838.882 59.1309 838.425 59.4927 838.425 60.0576V60.0703ZM844.022 62V52.8403H845.393V62H844.022ZM848.686 62.1206C847.353 62.1206 846.458 61.3018 846.458 60.1021V60.0894C846.458 58.9277 847.359 58.2168 848.94 58.1216L850.755 58.0137V57.5122C850.755 56.7759 850.279 56.3315 849.429 56.3315C848.635 56.3315 848.146 56.7061 848.032 57.2393L848.019 57.2964H846.725L846.731 57.2266C846.826 56.0776 847.823 55.1953 849.467 55.1953C851.098 55.1953 852.133 56.0586 852.133 57.3979V62H850.755V60.9463H850.73C850.343 61.6636 849.568 62.1206 848.686 62.1206ZM847.842 60.0703C847.842 60.6543 848.324 61.0225 849.06 61.0225C850.025 61.0225 850.755 60.3687 850.755 59.499V58.9785L849.124 59.0801C848.299 59.1309 847.842 59.4927 847.842 60.0576V60.0703ZM853.388 62V55.3223H854.759V56.3569H854.791C855.076 55.6587 855.755 55.1953 856.631 55.1953C857.552 55.1953 858.225 55.6714 858.491 56.5093H858.523C858.866 55.6968 859.653 55.1953 860.605 55.1953C861.925 55.1953 862.789 56.0713 862.789 57.4106V62H861.411V57.7407C861.411 56.8711 860.948 56.3696 860.135 56.3696C859.323 56.3696 858.758 56.979 858.758 57.8232V62H857.412V57.6392C857.412 56.8647 856.923 56.3696 856.149 56.3696C855.336 56.3696 854.759 57.0107 854.759 57.874V62H853.388Z" fill="#496F6B"/>
<path d="M778.811 77V69.2495H783.613V70.1196H779.778V72.6064H783.414V73.4658H779.778V76.1299H783.613V77H778.811ZM786.794 77.1074C785.479 77.1074 784.684 76.436 784.571 75.437L784.565 75.3887H785.5L785.511 75.4424C785.624 76.001 786.037 76.3286 786.8 76.3286C787.557 76.3286 788.008 76.0117 788.008 75.5068V75.5015C788.008 75.0986 787.799 74.873 787.165 74.7173L786.279 74.5024C785.226 74.25 784.716 73.7612 784.716 72.9556V72.9502C784.716 71.9888 785.559 71.3066 786.768 71.3066C787.992 71.3066 788.771 72.021 788.841 72.9556L788.846 73.0254H787.955L787.949 72.9878C787.874 72.4453 787.46 72.0854 786.768 72.0854C786.091 72.0854 785.672 72.4131 785.672 72.9072V72.9126C785.672 73.2939 785.924 73.5571 786.542 73.7075L787.428 73.9224C788.556 74.1963 788.964 74.6421 788.964 75.437V75.4424C788.964 76.4199 788.041 77.1074 786.794 77.1074ZM791.818 77.1074C790.792 77.1074 790.287 76.6455 790.287 75.5767V72.1875H789.471V71.4141H790.287V69.9048H791.254V71.4141H792.317V72.1875H791.254V75.5713C791.254 76.1675 791.517 76.334 792.017 76.334C792.129 76.334 792.237 76.3179 792.317 76.3125V77.0698C792.199 77.0859 792.001 77.1074 791.818 77.1074ZM793.914 70.4688C793.592 70.4688 793.329 70.2056 793.329 69.8833C793.329 69.5557 793.592 69.2979 793.914 69.2979C794.242 69.2979 794.5 69.5557 794.5 69.8833C794.5 70.2056 794.242 70.4688 793.914 70.4688ZM793.447 77V71.4141H794.382V77H793.447ZM795.72 77V71.4141H796.655V72.2305H796.677C796.929 71.6772 797.488 71.3066 798.207 71.3066C798.97 71.3066 799.534 71.6987 799.776 72.3809H799.797C800.109 71.7095 800.764 71.3066 801.548 71.3066C802.655 71.3066 803.369 72.0317 803.369 73.1436V77H802.434V73.3584C802.434 72.5903 802.01 72.1338 801.274 72.1338C800.533 72.1338 800.012 72.687 800.012 73.4497V77H799.077V73.2563C799.077 72.5796 798.626 72.1338 797.933 72.1338C797.192 72.1338 796.655 72.7192 796.655 73.498V77H795.72ZM806.26 77.1074C805.148 77.1074 804.402 76.436 804.402 75.4209V75.4102C804.402 74.4595 805.143 73.8633 806.427 73.7881L808.027 73.6968V73.2295C808.027 72.5474 807.581 72.1338 806.803 72.1338C806.083 72.1338 805.632 72.4775 805.524 72.9771L805.514 73.0254H804.611L804.617 72.9663C804.697 72.0479 805.497 71.3066 806.813 71.3066C808.135 71.3066 808.962 72.021 808.962 73.1382V77H808.027V76.0923H808.006C807.678 76.7046 807.007 77.1074 806.26 77.1074ZM805.358 75.4209C805.358 75.958 805.798 76.2964 806.47 76.2964C807.35 76.2964 808.027 75.6895 808.027 74.8784V74.4219L806.534 74.5132C805.787 74.5562 805.358 74.8892 805.358 75.4102V75.4209ZM812.197 77.1074C810.881 77.1074 810.086 76.436 809.973 75.437L809.968 75.3887H810.902L810.913 75.4424C811.026 76.001 811.439 76.3286 812.202 76.3286C812.959 76.3286 813.411 76.0117 813.411 75.5068V75.5015C813.411 75.0986 813.201 74.873 812.567 74.7173L811.681 74.5024C810.628 74.25 810.118 73.7612 810.118 72.9556V72.9502C810.118 71.9888 810.961 71.3066 812.17 71.3066C813.394 71.3066 814.173 72.021 814.243 72.9556L814.248 73.0254H813.357L813.351 72.9878C813.276 72.4453 812.863 72.0854 812.17 72.0854C811.493 72.0854 811.074 72.4131 811.074 72.9072V72.9126C811.074 73.2939 811.327 73.5571 811.944 73.7075L812.83 73.9224C813.958 74.1963 814.367 74.6421 814.367 75.437V75.4424C814.367 76.4199 813.443 77.1074 812.197 77.1074ZM815.931 70.4688C815.609 70.4688 815.346 70.2056 815.346 69.8833C815.346 69.5557 815.609 69.2979 815.931 69.2979C816.259 69.2979 816.517 69.5557 816.517 69.8833C816.517 70.2056 816.259 70.4688 815.931 70.4688ZM815.464 77V71.4141H816.398V77H815.464ZM818.312 72.918C817.968 72.918 817.7 72.6494 817.7 72.3057C817.7 71.9619 817.968 71.6934 818.312 71.6934C818.656 71.6934 818.924 71.9619 818.924 72.3057C818.924 72.6494 818.656 72.918 818.312 72.918ZM818.312 77.0752C817.968 77.0752 817.7 76.8066 817.7 76.4629C817.7 76.1191 817.968 75.8506 818.312 75.8506C818.656 75.8506 818.924 76.1191 818.924 76.4629C818.924 76.8066 818.656 77.0752 818.312 77.0752ZM824.487 77V70.2754H824.465L822.413 71.7041V70.7319L824.476 69.2495H825.421V77H824.487ZM827.453 77V76.334L830.181 73.4873C831.229 72.397 831.471 71.978 831.471 71.3335V71.3228C831.465 70.5332 830.869 69.9639 830.026 69.9639C829.059 69.9639 828.339 70.6299 828.339 71.4624V71.4893H827.405V71.457C827.405 70.1143 828.565 69.1206 830.01 69.1206C831.411 69.1206 832.437 70.0605 832.437 71.2744V71.2852C832.437 72.1338 832.045 72.7729 830.622 74.2285L828.78 76.1191V76.1406H832.566V77H827.453ZM834.303 77.0752C833.959 77.0752 833.69 76.8066 833.69 76.4629C833.69 76.1191 833.959 75.8506 834.303 75.8506C834.646 75.8506 834.915 76.1191 834.915 76.4629C834.915 76.8066 834.646 77.0752 834.303 77.0752ZM837.726 77V70.2754H837.704L835.652 71.7041V70.7319L837.715 69.2495H838.66V77H837.726ZM842.669 77V70.2754H842.647L840.595 71.7041V70.7319L842.658 69.2495H843.603V77H842.669Z" fill="#898989"/>
<rect x="758" y="27" width="105" height="17" rx="8.5" fill="#74B0AA"/>
<path d="M772.871 39V31.2495H775.83C778.151 31.2495 779.526 32.6299 779.526 35.0845V35.0952C779.526 37.5552 778.156 39 775.83 39H772.871ZM774.493 37.6572H775.637C777.087 37.6572 777.871 36.7764 777.871 35.1006V35.0898C777.871 33.4731 777.06 32.5869 775.637 32.5869H774.493V37.6572ZM780.311 39V38.1084L783.206 34.4507V34.4238H780.354V33.2422H785V34.2358L782.277 37.7861V37.8184H785.065V39H780.311ZM788.01 39.1182C786.742 39.1182 786.022 38.3071 786.022 36.959V33.2422H787.591V36.6313C787.591 37.3833 787.945 37.8184 788.649 37.8184C789.352 37.8184 789.798 37.3027 789.798 36.5508V33.2422H791.367V39H789.798V38.0493H789.766C789.471 38.71 788.88 39.1182 788.01 39.1182ZM792.491 39V31.2495H794.059V34.2358H794.091C794.387 33.5215 794.994 33.124 795.858 33.124C797.104 33.124 797.878 33.9941 797.878 35.3853V39H796.31V35.7075C796.31 34.9019 795.912 34.4238 795.198 34.4238C794.505 34.4238 794.059 34.9502 794.059 35.7021V39H792.491ZM800.914 39.1182C799.647 39.1182 798.927 38.3071 798.927 36.959V33.2422H800.495V36.6313C800.495 37.3833 800.85 37.8184 801.553 37.8184C802.257 37.8184 802.703 37.3027 802.703 36.5508V33.2422H804.271V39H802.703V38.0493H802.67C802.375 38.71 801.784 39.1182 800.914 39.1182ZM805.358 39V33.2422H806.926V34.2466H806.958C807.13 33.5376 807.597 33.124 808.269 33.124C808.441 33.124 808.602 33.1509 808.72 33.1831V34.5635C808.591 34.5098 808.376 34.4775 808.151 34.4775C807.377 34.4775 806.926 34.9395 806.926 35.7773V39H805.358ZM813.74 40.8799C812.628 39.5425 812.144 37.9902 812.144 36.0674C812.144 34.1284 812.628 32.5762 813.74 31.2495H815.179C814.379 32.1841 813.761 34.2305 813.761 36.062C813.761 37.8882 814.379 39.9346 815.179 40.8799H813.74ZM817.92 39V32.7373H817.888L815.911 34.0801V32.6406L817.914 31.2495H819.526V39H817.92ZM821.332 39V37.8882L824.071 35.3262C825.07 34.3916 825.28 34.0103 825.28 33.4731V33.4624C825.274 32.8286 824.791 32.3774 824.103 32.3774C823.309 32.3774 822.771 32.8984 822.75 33.5967L822.745 33.645H821.241V33.6021C821.241 32.1411 822.455 31.1152 824.093 31.1152C825.731 31.1152 826.859 32.0498 826.859 33.3711V33.3818C826.859 34.3218 826.413 34.9341 825.076 36.1641L823.454 37.6465V37.7109H826.966V39H821.332ZM828.815 39.0913C828.327 39.0913 827.945 38.7046 827.945 38.2212C827.945 37.7324 828.327 37.3511 828.815 37.3511C829.299 37.3511 829.686 37.7324 829.686 38.2212C829.686 38.7046 829.299 39.0913 828.815 39.0913ZM833.656 39.1343C831.691 39.1343 830.498 37.5928 830.498 35.1274V35.1167C830.498 32.6514 831.691 31.1152 833.656 31.1152C835.622 31.1152 836.815 32.6514 836.815 35.1167V35.1274C836.815 37.5928 835.622 39.1343 833.656 39.1343ZM833.656 37.8345C834.623 37.8345 835.176 36.8301 835.176 35.1274V35.1167C835.176 33.4141 834.623 32.415 833.656 32.415C832.69 32.415 832.136 33.4141 832.136 35.1167V35.1274C832.136 36.8301 832.69 37.8345 833.656 37.8345ZM840.834 31.1152C842.703 31.1152 844.067 32.4258 844.067 35.0522V35.063C844.067 37.6035 842.837 39.1343 840.818 39.1343C839.319 39.1343 838.191 38.2642 837.96 37.0664L837.949 37.0181H839.55L839.566 37.061C839.759 37.5283 840.189 37.8452 840.823 37.8452C841.956 37.8452 842.45 36.7656 842.509 35.396C842.515 35.2939 842.52 35.1865 842.515 35.1006H842.488C842.182 35.8203 841.419 36.3467 840.372 36.3467C838.873 36.3467 837.847 35.2886 837.847 33.833V33.8223C837.847 32.2378 839.11 31.1152 840.834 31.1152ZM840.839 35.1489C841.65 35.1489 842.273 34.585 842.273 33.7954V33.79C842.273 33.0059 841.65 32.4043 840.855 32.4043C840.066 32.4043 839.426 33.0005 839.426 33.7686V33.7793C839.426 34.585 840.033 35.1489 840.839 35.1489ZM846.206 40.8799H844.762C845.562 39.9346 846.179 37.8828 846.179 36.062C846.179 34.2305 845.562 32.1841 844.762 31.2495H846.206C847.313 32.5762 847.796 34.1284 847.796 36.0674C847.796 37.9849 847.313 39.5425 846.206 40.8799Z" fill="white"/>
<path d="M793.5 119.96C793.5 128.165 798.605 135.209 805.738 137.574L808.628 140.928C809.23 141.627 810.107 142.03 811.03 142.03C811.957 142.03 812.839 141.623 813.441 140.918L816.31 137.558C823.417 135.178 828.5 128.147 828.5 119.96C828.5 109.848 820.746 101.5 811 101.5C801.254 101.5 793.5 109.848 793.5 119.96Z" fill="#4D7571" stroke="white" stroke-width="3"/>
<path d="M818.138 119.503C819.791 121.776 819.057 123.367 818.341 124.638C818.216 124.861 817.988 124.996 817.743 124.996H804.275C804.03 124.996 803.802 124.861 803.677 124.638C802.962 123.367 802.227 121.776 803.88 119.503C804.164 119.088 805.174 118.223 806.288 117.585C807.799 116.78 810.683 114.815 810.797 113.898V113.7C810.797 113.576 810.892 113.475 811.009 113.475C811.126 113.475 811.221 113.576 811.221 113.7V113.898C811.335 114.815 814.219 116.78 815.73 117.585C816.844 118.223 817.854 119.088 818.138 119.503Z" fill="white"/>
<path d="M818.102 126.046H803.915C803.635 126.046 803.382 126.223 803.272 126.496L802.891 127.446C802.694 127.934 803.032 128.477 803.533 128.477H818.484C818.985 128.477 819.323 127.934 819.127 127.446L818.745 126.496C818.635 126.223 818.382 126.046 818.102 126.046Z" fill="white"/>
<path fill-rule="evenodd" clip-rule="evenodd" d="M811.218 114.043C812.872 114.043 814.212 112.649 814.212 110.929C814.212 110.791 814.014 110.773 813.953 110.895C813.62 111.553 812.965 112.001 812.211 112.001C811.12 112.001 810.236 111.064 810.236 109.908C810.236 109.12 810.647 108.434 811.254 108.076C811.362 108.013 811.342 107.815 811.218 107.815C809.565 107.815 808.225 109.209 808.225 110.929C808.225 112.649 809.565 114.043 811.218 114.043Z" fill="white"/>
<g filter="url(#filter4_d_4_15)">
<g filter="url(#filter5_b_4_15)">
<rect x="35" y="9.35718" width="143" height="61" rx="13" fill="white"/>
</g>
</g>
<path d="M53.8626 39.7001V30.5404H55.5067L58.471 37.8529H58.5091L61.4798 30.5404H63.1175V39.7001H61.8226V32.9398H61.7781L59.0169 39.7001H57.9632L55.202 32.9398H55.1575V39.7001H53.8626ZM66.3466 39.8207C65.0136 39.8207 64.1186 39.0018 64.1186 37.8021V37.7894C64.1186 36.6278 65.02 35.9169 66.6005 35.8217L68.416 35.7137V35.2123C68.416 34.476 67.9399 34.0316 67.0893 34.0316C66.2958 34.0316 65.8071 34.4061 65.6928 34.9393L65.6801 34.9965H64.3852L64.3916 34.9266C64.4868 33.7777 65.4833 32.8954 67.1274 32.8954C68.7587 32.8954 69.7934 33.7587 69.7934 35.098V39.7001H68.416V38.6464H68.3906C68.0034 39.3636 67.229 39.8207 66.3466 39.8207ZM65.5024 37.7704C65.5024 38.3544 65.9848 38.7225 66.7211 38.7225C67.686 38.7225 68.416 38.0687 68.416 37.1991V36.6786L66.7846 36.7802C65.9594 36.8309 65.5024 37.1927 65.5024 37.7577V37.7704ZM73.5494 39.8334C71.88 39.8334 70.9024 39.0082 70.7628 37.7894L70.7564 37.7323H72.1148L72.1275 37.7958C72.2545 38.4115 72.7115 38.7733 73.5557 38.7733C74.3809 38.7733 74.8761 38.4305 74.8761 37.891V37.8846C74.8761 37.453 74.6348 37.2054 73.9176 37.0341L72.8258 36.7865C71.5562 36.4945 70.9278 35.8851 70.9278 34.9139V34.9076C70.9278 33.7142 71.9688 32.8954 73.505 32.8954C75.0855 32.8954 76.0377 33.7777 76.1075 34.9139L76.1138 34.9901H74.8253L74.8189 34.9457C74.7364 34.3617 74.2794 33.9554 73.505 33.9554C72.7686 33.9554 72.3053 34.3046 72.3053 34.8378V34.8441C72.3053 35.2567 72.5782 35.536 73.2955 35.7074L74.3809 35.955C75.7457 36.2723 76.2662 36.8119 76.2662 37.7704V37.7767C76.2662 38.9955 75.1236 39.8334 73.5494 39.8334ZM77.9846 31.994C77.5402 31.994 77.1848 31.6385 77.1848 31.2069C77.1848 30.7689 77.5402 30.4135 77.9846 30.4135C78.4353 30.4135 78.7844 30.7689 78.7844 31.2069C78.7844 31.6385 78.4353 31.994 77.9846 31.994ZM76.4865 41.9344C76.3786 41.9344 76.258 41.9281 76.1691 41.9218V40.7982C76.2326 40.7982 76.2961 40.8046 76.3659 40.8046C77.0451 40.8046 77.299 40.5887 77.299 39.9159V33.0223H78.6701V39.9286C78.6701 41.287 77.9655 41.9344 76.4865 41.9344ZM80.7503 31.994C80.306 31.994 79.9505 31.6385 79.9505 31.2069C79.9505 30.7689 80.306 30.4135 80.7503 30.4135C81.201 30.4135 81.5501 30.7689 81.5501 31.2069C81.5501 31.6385 81.201 31.994 80.7503 31.994ZM80.0648 39.7001V33.0223H81.4359V39.7001H80.0648ZM85.268 39.8334C83.5669 39.8334 82.4751 38.4877 82.4751 36.3612V36.3549C82.4751 34.2284 83.5796 32.8954 85.2553 32.8954C86.2011 32.8954 86.9629 33.3715 87.3628 34.1586H87.3881V30.5404H88.7656V39.7001H87.3881V38.5702H87.3628C86.9629 39.351 86.2265 39.8334 85.268 39.8334ZM85.6298 38.6527C86.6645 38.6527 87.3945 37.7513 87.3945 36.3612V36.3549C87.3945 34.9711 86.6582 34.0697 85.6298 34.0697C84.5507 34.0697 83.8779 34.9457 83.8779 36.3549V36.3612C83.8779 37.7831 84.5444 38.6527 85.6298 38.6527ZM92.1452 39.7001L95.4777 30.5404H97.0139L100.34 39.7001H98.8484L98.0105 37.2245H94.4812L93.6369 39.7001H92.1452ZM96.2331 32.0575L94.862 36.0819H97.6233L96.2585 32.0575H96.2331ZM101.163 39.7001V30.5404H102.535V39.7001H101.163ZM103.961 36.6024V35.3646H108.042V36.6024H103.961ZM109.589 39.7001V30.5404H111.233L114.198 37.8529H114.236L117.207 30.5404H118.844V39.7001H117.549V32.9398H117.505L114.744 39.7001H113.69L110.929 32.9398H110.884V39.7001H109.589ZM122.562 39.8334C121.096 39.8334 120.258 38.8876 120.258 37.3514V33.0223H121.629V37.0848C121.629 38.0941 122.099 38.6527 123.051 38.6527C124.016 38.6527 124.638 37.9608 124.638 36.9198V33.0223H126.015V39.7001H124.638V38.6971H124.606C124.257 39.37 123.578 39.8334 122.562 39.8334ZM127.347 39.7001V30.5404H128.718V34.1205H128.749C129.105 33.3461 129.822 32.8954 130.819 32.8954C132.247 32.8954 133.186 33.9618 133.186 35.5741V39.7001H131.815V35.8344C131.815 34.7299 131.257 34.0697 130.292 34.0697C129.346 34.0697 128.718 34.7933 128.718 35.8344V39.7001H127.347ZM136.403 39.8207C135.07 39.8207 134.175 39.0018 134.175 37.8021V37.7894C134.175 36.6278 135.076 35.9169 136.657 35.8217L138.472 35.7137V35.2123C138.472 34.476 137.996 34.0316 137.145 34.0316C136.352 34.0316 135.863 34.4061 135.749 34.9393L135.736 34.9965H134.441L134.448 34.9266C134.543 33.7777 135.54 32.8954 137.184 32.8954C138.815 32.8954 139.85 33.7587 139.85 35.098V39.7001H138.472V38.6464H138.447C138.06 39.3636 137.285 39.8207 136.403 39.8207ZM135.559 37.7704C135.559 38.3544 136.041 38.7225 136.777 38.7225C137.742 38.7225 138.472 38.0687 138.472 37.1991V36.6786L136.841 36.7802C136.016 36.8309 135.559 37.1927 135.559 37.7577V37.7704ZM141.835 31.994C141.39 31.994 141.035 31.6385 141.035 31.2069C141.035 30.7689 141.39 30.4135 141.835 30.4135C142.285 30.4135 142.634 30.7689 142.634 31.2069C142.634 31.6385 142.285 31.994 141.835 31.994ZM140.337 41.9344C140.229 41.9344 140.108 41.9281 140.019 41.9218V40.7982C140.083 40.7982 140.146 40.8046 140.216 40.8046C140.895 40.8046 141.149 40.5887 141.149 39.9159V33.0223H142.52V39.9286C142.52 41.287 141.816 41.9344 140.337 41.9344ZM144.6 31.994C144.156 31.994 143.801 31.6385 143.801 31.2069C143.801 30.7689 144.156 30.4135 144.6 30.4135C145.051 30.4135 145.4 30.7689 145.4 31.2069C145.4 31.6385 145.051 31.994 144.6 31.994ZM143.915 39.7001V33.0223H145.286V39.7001H143.915ZM146.623 39.7001V33.0223H147.994V34.1649H148.026C148.242 33.3842 148.801 32.8954 149.562 32.8954C149.759 32.8954 149.931 32.9271 150.038 32.9462V34.222C149.931 34.1776 149.689 34.1459 149.423 34.1459C148.54 34.1459 147.994 34.7235 147.994 35.7201V39.7001H146.623ZM151.554 31.994C151.109 31.994 150.754 31.6385 150.754 31.2069C150.754 30.7689 151.109 30.4135 151.554 30.4135C152.004 30.4135 152.354 30.7689 152.354 31.2069C152.354 31.6385 152.004 31.994 151.554 31.994ZM150.868 39.7001V33.0223H152.239V39.7001H150.868ZM153.577 39.7001V33.0223H154.948V34.0316H154.98C155.329 33.3524 156.014 32.8954 157.024 32.8954C158.49 32.8954 159.334 33.8412 159.334 35.3773V39.7001H157.957V35.6376C157.957 34.6346 157.487 34.0697 156.535 34.0697C155.57 34.0697 154.948 34.7679 154.948 35.809V39.7001H153.577Z" fill="#496F6B"/>
<path d="M71.572 55.1072V47.3567H76.3738V48.2268H72.5388V50.7136H76.1751V51.573H72.5388V54.2371H76.3738V55.1072H71.572ZM79.555 55.2146C78.2391 55.2146 77.4442 54.5432 77.3314 53.5442L77.326 53.4958H78.2606L78.2713 53.5496C78.3841 54.1082 78.7977 54.4358 79.5604 54.4358C80.3177 54.4358 80.7689 54.1189 80.7689 53.614V53.6086C80.7689 53.2058 80.5594 52.9802 79.9256 52.8245L79.0394 52.6096C77.9867 52.3572 77.4764 51.8684 77.4764 51.0627V51.0574C77.4764 50.0959 78.3197 49.4138 79.5282 49.4138C80.7528 49.4138 81.5316 50.1282 81.6014 51.0627L81.6068 51.1326H80.7152L80.7098 51.095C80.6346 50.5525 80.221 50.1926 79.5282 50.1926C78.8514 50.1926 78.4325 50.5203 78.4325 51.0144V51.0198C78.4325 51.4011 78.6849 51.6643 79.3026 51.8147L80.1888 52.0295C81.3167 52.3035 81.725 52.7493 81.725 53.5442V53.5496C81.725 54.5271 80.8011 55.2146 79.555 55.2146ZM84.5785 55.2146C83.5527 55.2146 83.0478 54.7527 83.0478 53.6838V50.2947H82.2314V49.5212H83.0478V48.012H84.0146V49.5212H85.0781V50.2947H84.0146V53.6785C84.0146 54.2747 84.2778 54.4412 84.7773 54.4412C84.8901 54.4412 84.9975 54.425 85.0781 54.4197V55.177C84.9599 55.1931 84.7612 55.2146 84.5785 55.2146ZM86.6748 48.5759C86.3526 48.5759 86.0894 48.3127 86.0894 47.9905C86.0894 47.6628 86.3526 47.405 86.6748 47.405C87.0025 47.405 87.2603 47.6628 87.2603 47.9905C87.2603 48.3127 87.0025 48.5759 86.6748 48.5759ZM86.2075 55.1072V49.5212H87.1421V55.1072H86.2075ZM88.4811 55.1072V49.5212H89.4156V50.3376H89.4371C89.6896 49.7844 90.2481 49.4138 90.9679 49.4138C91.7306 49.4138 92.2945 49.8059 92.5362 50.488H92.5577C92.8692 49.8167 93.5245 49.4138 94.3087 49.4138C95.4151 49.4138 96.1295 50.1389 96.1295 51.2507V55.1072H95.1949V51.4656C95.1949 50.6975 94.7706 50.241 94.0348 50.241C93.2936 50.241 92.7726 50.7942 92.7726 51.5569V55.1072H91.838V51.3635C91.838 50.6868 91.3868 50.241 90.6939 50.241C89.9527 50.241 89.4156 50.8264 89.4156 51.6052V55.1072H88.4811ZM99.0207 55.2146C97.9089 55.2146 97.1623 54.5432 97.1623 53.5281V53.5173C97.1623 52.5667 97.9035 51.9705 99.1872 51.8953L100.788 51.804V51.3367C100.788 50.6545 100.342 50.241 99.5632 50.241C98.8434 50.241 98.3923 50.5847 98.2848 51.0842L98.2741 51.1326H97.3718L97.3771 51.0735C97.4577 50.155 98.258 49.4138 99.5739 49.4138C100.895 49.4138 101.722 50.1282 101.722 51.2454V55.1072H100.788V54.1995H100.766C100.439 54.8118 99.7673 55.2146 99.0207 55.2146ZM98.1183 53.5281C98.1183 54.0652 98.5588 54.4036 99.2302 54.4036C100.111 54.4036 100.788 53.7966 100.788 52.9856V52.5291L99.2946 52.6204C98.548 52.6633 98.1183 52.9963 98.1183 53.5173V53.5281ZM104.957 55.2146C103.641 55.2146 102.846 54.5432 102.734 53.5442L102.728 53.4958H103.663L103.674 53.5496C103.786 54.1082 104.2 54.4358 104.963 54.4358C105.72 54.4358 106.171 54.1189 106.171 53.614V53.6086C106.171 53.2058 105.962 52.9802 105.328 52.8245L104.442 52.6096C103.389 52.3572 102.879 51.8684 102.879 51.0627V51.0574C102.879 50.0959 103.722 49.4138 104.93 49.4138C106.155 49.4138 106.934 50.1282 107.004 51.0627L107.009 51.1326H106.117L106.112 51.095C106.037 50.5525 105.623 50.1926 104.93 50.1926C104.254 50.1926 103.835 50.5203 103.835 51.0144V51.0198C103.835 51.4011 104.087 51.6643 104.705 51.8147L105.591 52.0295C106.719 52.3035 107.127 52.7493 107.127 53.5442V53.5496C107.127 54.5271 106.203 55.2146 104.957 55.2146ZM108.692 48.5759C108.369 48.5759 108.106 48.3127 108.106 47.9905C108.106 47.6628 108.369 47.405 108.692 47.405C109.019 47.405 109.277 47.6628 109.277 47.9905C109.277 48.3127 109.019 48.5759 108.692 48.5759ZM108.224 55.1072V49.5212H109.159V55.1072H108.224ZM111.073 51.0251C110.729 51.0251 110.46 50.7566 110.46 50.4128C110.46 50.0691 110.729 49.8005 111.073 49.8005C111.416 49.8005 111.685 50.0691 111.685 50.4128C111.685 50.7566 111.416 51.0251 111.073 51.0251ZM111.073 55.1824C110.729 55.1824 110.46 54.9138 110.46 54.5701C110.46 54.2263 110.729 53.9578 111.073 53.9578C111.416 53.9578 111.685 54.2263 111.685 54.5701C111.685 54.9138 111.416 55.1824 111.073 55.1824ZM117.972 55.2361C116.189 55.2361 115.131 53.6946 115.131 51.2346V51.2239C115.131 48.7639 116.189 47.2278 117.972 47.2278C119.755 47.2278 120.824 48.7639 120.824 51.2239V51.2346C120.824 53.6946 119.755 55.2361 117.972 55.2361ZM117.972 54.3928C119.154 54.3928 119.852 53.179 119.852 51.2346V51.2239C119.852 49.2795 119.154 48.0764 117.972 48.0764C116.791 48.0764 116.103 49.2795 116.103 51.2239V51.2346C116.103 53.179 116.791 54.3928 117.972 54.3928ZM125.692 55.1072V53.4958H121.798V52.6204L125.198 47.3567H126.627V52.6472H127.722V53.4958H126.627V55.1072H125.692ZM122.754 52.6472H125.692V48.1838H125.66L122.754 52.6257V52.6472ZM129.276 55.1824C128.932 55.1824 128.664 54.9138 128.664 54.5701C128.664 54.2263 128.932 53.9578 129.276 53.9578C129.62 53.9578 129.888 54.2263 129.888 54.5701C129.888 54.9138 129.62 55.1824 129.276 55.1824ZM131.152 55.1072V54.4412L133.881 51.5945C134.928 50.5042 135.17 50.0852 135.17 49.4407V49.4299C135.164 48.6404 134.568 48.071 133.725 48.071C132.758 48.071 132.038 48.7371 132.038 49.5696V49.5964H131.104V49.5642C131.104 48.2214 132.264 47.2278 133.709 47.2278C135.111 47.2278 136.137 48.1677 136.137 49.3816V49.3923C136.137 50.241 135.744 50.8801 134.321 52.3357L132.479 54.2263V54.2478H136.265V55.1072H131.152ZM140.865 55.1072V53.4958H136.971V52.6204L140.371 47.3567H141.799V52.6472H142.895V53.4958H141.799V55.1072H140.865ZM137.927 52.6472H140.865V48.1838H140.832L137.927 52.6257V52.6472Z" fill="#898989"/>
<rect x="56" y="5" width="103" height="17" rx="8.5" fill="#74B0AA"/>
<path d="M73.5723 17.1343C71.73 17.1343 70.543 16.291 70.4517 14.8623L70.4463 14.7764H71.977L71.9878 14.8354C72.0898 15.437 72.729 15.813 73.6152 15.813C74.5122 15.813 75.0762 15.4209 75.0762 14.8301V14.8247C75.0762 14.2983 74.6948 14.0352 73.7334 13.8364L72.917 13.6753C71.3862 13.3691 70.6128 12.6387 70.6128 11.4731V11.4678C70.6128 10.0498 71.8481 9.11523 73.5669 9.11523C75.3608 9.11523 76.4619 10.0122 76.5371 11.3711L76.5425 11.4731H75.0117L75.0063 11.4087C74.9258 10.8018 74.3672 10.4312 73.5669 10.4312C72.7344 10.4365 72.2349 10.8179 72.2349 11.3711V11.3765C72.2349 11.8652 72.6323 12.1499 73.5239 12.3271L74.3457 12.4937C75.9678 12.8159 76.6982 13.4766 76.6982 14.6958V14.7012C76.6982 16.189 75.5273 17.1343 73.5723 17.1343ZM79.5841 17.1182C78.3165 17.1182 77.5968 16.3071 77.5968 14.959V11.2422H79.1651V14.6313C79.1651 15.3833 79.5196 15.8184 80.2232 15.8184C80.9268 15.8184 81.3726 15.3027 81.3726 14.5508V11.2422H82.941V17H81.3726V16.0493H81.3404C81.045 16.71 80.4542 17.1182 79.5841 17.1182ZM87.4381 17.1182C86.611 17.1182 85.9772 16.6992 85.6657 16.0171H85.6335V17H84.0651V9.24951H85.6335V12.2412H85.6657C85.9826 11.543 86.6217 11.124 87.4435 11.124C88.8883 11.124 89.7853 12.2412 89.7853 14.1157V14.1211C89.7853 15.9902 88.8883 17.1182 87.4381 17.1182ZM86.9172 15.8184C87.696 15.8184 88.1901 15.1685 88.1901 14.1211V14.1157C88.1901 13.063 87.696 12.4238 86.9172 12.4238C86.1598 12.4238 85.6335 13.0791 85.6335 14.1157V14.1211C85.6335 15.1631 86.1545 15.8184 86.9172 15.8184ZM92.6174 17.1182C91.3499 17.1182 90.6301 16.3071 90.6301 14.959V11.2422H92.1985V14.6313C92.1985 15.3833 92.553 15.8184 93.2566 15.8184C93.9602 15.8184 94.406 15.3027 94.406 14.5508V11.2422H95.9744V17H94.406V16.0493H94.3738C94.0784 16.71 93.4875 17.1182 92.6174 17.1182ZM97.0985 17V9.24951H98.6668V12.2358H98.6991C98.9945 11.5215 99.6014 11.124 100.466 11.124C101.712 11.124 102.486 11.9941 102.486 13.3853V17H100.917V13.7075C100.917 12.9019 100.52 12.4238 99.8055 12.4238C99.1126 12.4238 98.6668 12.9502 98.6668 13.7021V17H97.0985ZM107.871 18.8799C106.759 17.5425 106.275 15.9902 106.275 14.0674C106.275 12.1284 106.759 10.5762 107.871 9.24951H109.31C108.51 10.1841 107.892 12.2305 107.892 14.062C107.892 15.8882 108.51 17.9346 109.31 18.8799H107.871ZM113.173 17.1343C111.208 17.1343 110.015 15.5928 110.015 13.1274V13.1167C110.015 10.6514 111.208 9.11523 113.173 9.11523C115.139 9.11523 116.332 10.6514 116.332 13.1167V13.1274C116.332 15.5928 115.139 17.1343 113.173 17.1343ZM113.173 15.8345C114.14 15.8345 114.693 14.8301 114.693 13.1274V13.1167C114.693 11.4141 114.14 10.415 113.173 10.415C112.207 10.415 111.653 11.4141 111.653 13.1167V13.1274C111.653 14.8301 112.207 15.8345 113.173 15.8345ZM121.092 17V15.5767H117.236V14.2231L120.345 9.24951H122.633V14.2822H123.654V15.5767H122.633V17H121.092ZM118.648 14.3252H121.124V10.4204H121.087L118.648 14.2822V14.3252ZM125.364 17.0913C124.875 17.0913 124.493 16.7046 124.493 16.2212C124.493 15.7324 124.875 15.3511 125.364 15.3511C125.847 15.3511 126.234 15.7324 126.234 16.2212C126.234 16.7046 125.847 17.0913 125.364 17.0913ZM127.304 17V15.8882L130.043 13.3262C131.042 12.3916 131.252 12.0103 131.252 11.4731V11.4624C131.246 10.8286 130.763 10.3774 130.076 10.3774C129.281 10.3774 128.743 10.8984 128.722 11.5967L128.717 11.645H127.213V11.6021C127.213 10.1411 128.427 9.11523 130.065 9.11523C131.703 9.11523 132.831 10.0498 132.831 11.3711V11.3818C132.831 12.3218 132.385 12.9341 131.048 14.1641L129.426 15.6465V15.7109H132.938V17H127.304ZM136.963 9.11523C138.832 9.11523 140.196 10.4258 140.196 13.0522V13.063C140.196 15.6035 138.966 17.1343 136.947 17.1343C135.448 17.1343 134.32 16.2642 134.089 15.0664L134.079 15.0181H135.679L135.695 15.061C135.889 15.5283 136.318 15.8452 136.952 15.8452C138.085 15.8452 138.58 14.7656 138.639 13.396C138.644 13.2939 138.649 13.1865 138.644 13.1006H138.617C138.311 13.8203 137.548 14.3467 136.501 14.3467C135.002 14.3467 133.976 13.2886 133.976 11.833V11.8223C133.976 10.2378 135.239 9.11523 136.963 9.11523ZM136.968 13.1489C137.779 13.1489 138.402 12.585 138.402 11.7954V11.79C138.402 11.0059 137.779 10.4043 136.984 10.4043C136.195 10.4043 135.556 11.0005 135.556 11.7686V11.7793C135.556 12.585 136.163 13.1489 136.968 13.1489ZM142.335 18.8799H140.891C141.691 17.9346 142.309 15.8828 142.309 14.062C142.309 12.2305 141.691 10.1841 140.891 9.24951H142.335C143.442 10.5762 143.925 12.1284 143.925 14.0674C143.925 15.9849 143.442 17.5425 142.335 18.8799Z" fill="white"/>
<path d="M113.032 113.479C119.722 111.226 124.5 104.604 124.5 96.9C124.5 87.3738 117.194 79.5 108 79.5C98.8061 79.5 91.5 87.3738 91.5 96.9C91.5 104.621 96.2992 111.256 103.013 113.494L105.705 116.619C106.287 117.295 107.136 117.684 108.028 117.684C108.925 117.684 109.777 117.291 110.36 116.609L113.032 113.479Z" fill="#4D7571" stroke="white" stroke-width="3"/>
<path d="M114.692 96.4717C116.242 98.6022 115.553 100.094 114.883 101.286C114.765 101.495 114.551 101.621 114.322 101.621H101.696C101.466 101.621 101.252 101.495 101.135 101.286C100.464 100.094 99.7752 98.6022 101.326 96.4717C101.591 96.0825 102.538 95.2714 103.583 94.6734C104.999 93.9184 107.703 92.0765 107.81 91.2171V91.0312C107.81 90.9146 107.899 90.8201 108.009 90.8201C108.119 90.8201 108.208 90.9146 108.208 91.0312V91.2171C108.314 92.0765 111.018 93.9184 112.435 94.6734C113.479 95.2714 114.426 96.0825 114.692 96.4717Z" fill="white"/>
<path d="M114.659 102.605H101.358C101.096 102.605 100.859 102.772 100.756 103.027L100.398 103.918C100.214 104.376 100.531 104.884 101 104.884H115.017C115.486 104.884 115.803 104.376 115.619 103.918L115.261 103.027C115.158 102.772 114.921 102.605 114.659 102.605Z" fill="white"/>
<path fill-rule="evenodd" clip-rule="evenodd" d="M108.205 91.3527C109.755 91.3527 111.011 90.0456 111.011 88.4332C111.011 88.3039 110.826 88.2874 110.768 88.4013C110.456 89.0186 109.842 89.4385 109.135 89.4385C108.113 89.4385 107.284 88.5599 107.284 87.4761C107.284 86.7373 107.669 86.0939 108.238 85.7591C108.339 85.6995 108.321 85.5137 108.205 85.5137C106.655 85.5137 105.398 86.8208 105.398 88.4332C105.398 90.0456 106.655 91.3527 108.205 91.3527Z" fill="white"/>
<path d="M1033.5 73.1202C1033.5 81.3252 1038.61 88.3692 1045.74 90.7339L1048.63 94.0885C1049.23 94.7876 1050.11 95.1897 1051.03 95.1897C1051.96 95.1897 1052.84 94.7834 1053.44 94.0779L1056.31 90.718C1063.42 88.3377 1068.5 81.3069 1068.5 73.1202C1068.5 63.0085 1060.75 54.6602 1051 54.6602C1041.25 54.6602 1033.5 63.0085 1033.5 73.1202Z" fill="#4D7571" stroke="white" stroke-width="3"/>
<path d="M1058.14 72.6632C1059.79 74.9357 1059.06 76.5274 1058.34 77.7979C1058.22 78.0209 1057.99 78.156 1057.74 78.156H1044.28C1044.03 78.156 1043.8 78.0209 1043.68 77.7979C1042.96 76.5274 1042.23 74.9357 1043.88 72.6632C1044.16 72.248 1045.17 71.3828 1046.29 70.745C1047.8 69.9397 1050.68 67.9749 1050.8 67.0583V66.86C1050.8 66.7356 1050.89 66.6348 1051.01 66.6348C1051.13 66.6348 1051.22 66.7356 1051.22 66.86V67.0583C1051.33 67.9749 1054.22 69.9397 1055.73 70.745C1056.84 71.3828 1057.85 72.248 1058.14 72.6632Z" fill="white"/>
<path d="M1058.1 79.2059H1043.92C1043.64 79.2059 1043.38 79.3832 1043.27 79.6561L1042.89 80.6059C1042.69 81.0943 1043.03 81.6368 1043.53 81.6368H1058.48C1058.99 81.6368 1059.32 81.0943 1059.13 80.6059L1058.75 79.6561C1058.64 79.3832 1058.38 79.2059 1058.1 79.2059Z" fill="white"/>
<path fill-rule="evenodd" clip-rule="evenodd" d="M1051.22 67.203C1052.87 67.203 1054.21 65.8088 1054.21 64.0888C1054.21 63.951 1054.01 63.9333 1053.95 64.0549C1053.62 64.7133 1052.96 65.1612 1052.21 65.1612C1051.12 65.1612 1050.24 64.224 1050.24 63.0679C1050.24 62.28 1050.65 61.5937 1051.25 61.2366C1051.36 61.1729 1051.34 60.9747 1051.22 60.9747C1049.57 60.9747 1048.23 62.369 1048.23 64.0888C1048.23 65.8088 1049.57 67.203 1051.22 67.203Z" fill="white"/>
<path d="M305.5 110.96C305.5 119.165 310.605 126.209 317.738 128.574L320.628 131.928C321.23 132.627 322.107 133.03 323.03 133.03C323.957 133.03 324.839 132.623 325.441 131.918L328.31 128.558C335.417 126.178 340.5 119.147 340.5 110.96C340.5 100.848 332.746 92.5 323 92.5C313.254 92.5 305.5 100.848 305.5 110.96Z" fill="#4D7571" stroke="white" stroke-width="3"/>
<path d="M330.138 110.503C331.791 112.776 331.057 114.367 330.341 115.638C330.216 115.861 329.988 115.996 329.743 115.996H316.275C316.03 115.996 315.802 115.861 315.677 115.638C314.962 114.367 314.227 112.776 315.88 110.503C316.164 110.088 317.174 109.223 318.288 108.585C319.799 107.78 322.683 105.815 322.797 104.898V104.7C322.797 104.575 322.892 104.475 323.009 104.475C323.126 104.475 323.221 104.575 323.221 104.7V104.898C323.335 105.815 326.219 107.78 327.73 108.585C328.844 109.223 329.854 110.088 330.138 110.503Z" fill="white"/>
<path d="M330.103 117.046H315.916C315.636 117.046 315.383 117.223 315.273 117.496L314.891 118.446C314.695 118.934 315.033 119.477 315.534 119.477H330.484C330.986 119.477 331.324 118.934 331.127 118.446L330.745 117.496C330.636 117.223 330.383 117.046 330.103 117.046Z" fill="white"/>
<path fill-rule="evenodd" clip-rule="evenodd" d="M323.218 105.043C324.872 105.043 326.212 103.649 326.212 101.929C326.212 101.791 326.014 101.773 325.953 101.895C325.62 102.553 324.965 103.001 324.211 103.001C323.12 103.001 322.236 102.064 322.236 100.908C322.236 100.12 322.647 99.4335 323.254 99.0764C323.362 99.0128 323.342 98.8146 323.218 98.8146C321.565 98.8146 320.225 100.209 320.225 101.929C320.225 103.649 321.565 105.043 323.218 105.043Z" fill="white"/>
<path d="M509.5 38.96C509.5 47.165 514.605 54.209 521.738 56.5737L524.628 59.9283C525.23 60.6275 526.107 61.0296 527.03 61.0296C527.957 61.0296 528.839 60.6233 529.441 59.9178L532.31 56.5578C539.417 54.1776 544.5 47.1467 544.5 38.96C544.5 28.8484 536.746 20.5 527 20.5C517.254 20.5 509.5 28.8484 509.5 38.96Z" fill="#4D7571" stroke="white" stroke-width="3"/>
<path d="M534.138 38.503C535.791 40.7755 535.057 42.3673 534.341 43.6378C534.216 43.8607 533.988 43.9959 533.743 43.9959H520.275C520.03 43.9959 519.802 43.8607 519.677 43.6378C518.962 42.3673 518.227 40.7755 519.88 38.503C520.164 38.0879 521.174 37.2226 522.288 36.5849C523.799 35.7795 526.683 33.8148 526.797 32.8981V32.6998C526.797 32.5754 526.892 32.4746 527.009 32.4746C527.126 32.4746 527.221 32.5754 527.221 32.6998V32.8981C527.335 33.8148 530.219 35.7795 531.73 36.5849C532.844 37.2226 533.854 38.0879 534.138 38.503Z" fill="white"/>
<path d="M534.103 45.0458H519.916C519.636 45.0458 519.383 45.223 519.273 45.496L518.891 46.4457C518.695 46.9342 519.033 47.4767 519.534 47.4767H534.484C534.986 47.4767 535.324 46.9342 535.127 46.4457L534.745 45.496C534.636 45.223 534.383 45.0458 534.103 45.0458Z" fill="white"/>
<path fill-rule="evenodd" clip-rule="evenodd" d="M527.218 33.0428C528.872 33.0428 530.212 31.6486 530.212 29.9287C530.212 29.7909 530.014 29.7732 529.953 29.8947C529.62 30.5532 528.965 31.001 528.211 31.001C527.12 31.001 526.236 30.0639 526.236 28.9078C526.236 28.1198 526.647 27.4335 527.254 27.0764C527.362 27.0128 527.342 26.8146 527.218 26.8146C525.565 26.8146 524.225 28.2088 524.225 29.9287C524.225 31.6486 525.565 33.0428 527.218 33.0428Z" fill="white"/>
<defs>
<filter id="filter0_d_4_15" x="1250" y="52.0801" width="140" height="60" filterUnits="userSpaceOnUse" color-interpolation-filters="sRGB">
<feFlood flood-opacity="0" result="BackgroundImageFix"/>
<feColorMatrix in="SourceAlpha" type="matrix" values="0 0 0 0 0 0 0 0 0 0 0 0 0 0 0 0 0 0 127 0" result="hardAlpha"/>
<feOffset/>
<feComposite in2="hardAlpha" operator="out"/>
<feColorMatrix type="matrix" values="0 0 0 0 0 0 0 0 0 0 0 0 0 0 0 0 0 0 0.1 0"/>
<feBlend mode="normal" in2="BackgroundImageFix" result="effect1_dropShadow_4_15"/>
<feBlend mode="normal" in="SourceGraphic" in2="effect1_dropShadow_4_15" result="shape"/>
</filter>
<filter id="filter1_b_4_15" x="1120" y="-77.9199" width="400" height="320" filterUnits="userSpaceOnUse" color-interpolation-filters="sRGB">
<feFlood flood-opacity="0" result="BackgroundImageFix"/>
<feGaussianBlur in="BackgroundImageFix" stdDeviation="65"/>
<feComposite in2="SourceAlpha" operator="in" result="effect1_backgroundBlur_4_15"/>
<feBlend mode="normal" in="SourceGraphic" in2="effect1_backgroundBlur_4_15" result="shape"/>
</filter>
<filter id="filter2_d_4_15" x="741" y="32" width="140" height="60" filterUnits="userSpaceOnUse" color-interpolation-filters="sRGB">
<feFlood flood-opacity="0" result="BackgroundImageFix"/>
<feColorMatrix in="SourceAlpha" type="matrix" values="0 0 0 0 0 0 0 0 0 0 0 0 0 0 0 0 0 0 127 0" result="hardAlpha"/>
<feOffset/>
<feComposite in2="hardAlpha" operator="out"/>
<feColorMatrix type="matrix" values="0 0 0 0 0 0 0 0 0 0 0 0 0 0 0 0 0 0 0.1 0"/>
<feBlend mode="normal" in2="BackgroundImageFix" result="effect1_dropShadow_4_15"/>
<feBlend mode="normal" in="SourceGraphic" in2="effect1_dropShadow_4_15" result="shape"/>
</filter>
<filter id="filter3_b_4_15" x="611" y="-98" width="400" height="320" filterUnits="userSpaceOnUse" color-interpolation-filters="sRGB">
<feFlood flood-opacity="0" result="BackgroundImageFix"/>
<feGaussianBlur in="BackgroundImageFix" stdDeviation="65"/>
<feComposite in2="SourceAlpha" operator="in" result="effect1_backgroundBlur_4_15"/>
<feBlend mode="normal" in="SourceGraphic" in2="effect1_backgroundBlur_4_15" result="shape"/>
</filter>
<filter id="filter4_d_4_15" x="35" y="9.35718" width="143" height="61.2858" filterUnits="userSpaceOnUse" color-interpolation-filters="sRGB">
<feFlood flood-opacity="0" result="BackgroundImageFix"/>
<feColorMatrix in="SourceAlpha" type="matrix" values="0 0 0 0 0 0 0 0 0 0 0 0 0 0 0 0 0 0 127 0" result="hardAlpha"/>
<feOffset/>
<feComposite in2="hardAlpha" operator="out"/>
<feColorMatrix type="matrix" values="0 0 0 0 0 0 0 0 0 0 0 0 0 0 0 0 0 0 0.1 0"/>
<feBlend mode="normal" in2="BackgroundImageFix" result="effect1_dropShadow_4_15"/>
<feBlend mode="normal" in="SourceGraphic" in2="effect1_dropShadow_4_15" result="shape"/>
</filter>
<filter id="filter5_b_4_15" x="-95" y="-120.643" width="403" height="321" filterUnits="userSpaceOnUse" color-interpolation-filters="sRGB">
<feFlood flood-opacity="0" result="BackgroundImageFix"/>
<feGaussianBlur in="BackgroundImageFix" stdDeviation="65"/>
<feComposite in2="SourceAlpha" operator="in" result="effect1_backgroundBlur_4_15"/>
<feBlend mode="normal" in="SourceGraphic" in2="effect1_backgroundBlur_4_15" result="shape"/>
</filter>
</defs>
</svg>
