<svg width="1440" height="171" viewBox="0 0 1440 171" fill="none" xmlns="http://www.w3.org/2000/svg">
<g filter="url(#filter0_d_4_252)">
<g filter="url(#filter1_b_4_252)">
<rect x="946" y="9" width="140" height="60" rx="13" fill="white"/>
</g>
</g>
<path d="M965.951 39V29.8403H967.595L970.559 37.1528H970.597L973.568 29.8403H975.206V39H973.911V32.2397H973.866L971.105 39H970.051L967.29 32.2397H967.246V39H965.951ZM978.435 39.1206C977.102 39.1206 976.207 38.3018 976.207 37.1021V37.0894C976.207 35.9277 977.108 35.2168 978.689 35.1216L980.504 35.0137V34.5122C980.504 33.7759 980.028 33.3315 979.177 33.3315C978.384 33.3315 977.895 33.7061 977.781 34.2393L977.768 34.2964H976.473L976.48 34.2266C976.575 33.0776 977.571 32.1953 979.215 32.1953C980.847 32.1953 981.881 33.0586 981.881 34.3979V39H980.504V37.9463H980.479C980.091 38.6636 979.317 39.1206 978.435 39.1206ZM977.59 37.0703C977.59 37.6543 978.073 38.0225 978.809 38.0225C979.774 38.0225 980.504 37.3687 980.504 36.499V35.9785L978.873 36.0801C978.047 36.1309 977.59 36.4927 977.59 37.0576V37.0703ZM985.637 39.1333C983.968 39.1333 982.99 38.3081 982.851 37.0894L982.844 37.0322H984.203L984.216 37.0957C984.343 37.7114 984.8 38.0732 985.644 38.0732C986.469 38.0732 986.964 37.7305 986.964 37.1909V37.1846C986.964 36.7529 986.723 36.5054 986.006 36.334L984.914 36.0864C983.644 35.7944 983.016 35.1851 983.016 34.2139V34.2075C983.016 33.0142 984.057 32.1953 985.593 32.1953C987.174 32.1953 988.126 33.0776 988.196 34.2139L988.202 34.29H986.913L986.907 34.2456C986.824 33.6616 986.367 33.2554 985.593 33.2554C984.857 33.2554 984.393 33.6045 984.393 34.1377V34.144C984.393 34.5566 984.666 34.8359 985.384 35.0073L986.469 35.2549C987.834 35.5723 988.354 36.1118 988.354 37.0703V37.0767C988.354 38.2954 987.212 39.1333 985.637 39.1333ZM990.073 31.2939C989.628 31.2939 989.273 30.9385 989.273 30.5068C989.273 30.0688 989.628 29.7134 990.073 29.7134C990.523 29.7134 990.872 30.0688 990.872 30.5068C990.872 30.9385 990.523 31.2939 990.073 31.2939ZM988.575 41.2344C988.467 41.2344 988.346 41.228 988.257 41.2217V40.0981C988.321 40.0981 988.384 40.1045 988.454 40.1045C989.133 40.1045 989.387 39.8887 989.387 39.2158V32.3223H990.758V39.2285C990.758 40.5869 990.054 41.2344 988.575 41.2344ZM992.838 31.2939C992.394 31.2939 992.039 30.9385 992.039 30.5068C992.039 30.0688 992.394 29.7134 992.838 29.7134C993.289 29.7134 993.638 30.0688 993.638 30.5068C993.638 30.9385 993.289 31.2939 992.838 31.2939ZM992.153 39V32.3223H993.524V39H992.153ZM997.356 39.1333C995.655 39.1333 994.563 37.7876 994.563 35.6611V35.6548C994.563 33.5283 995.668 32.1953 997.343 32.1953C998.289 32.1953 999.051 32.6714 999.451 33.4585H999.476V29.8403H1000.85V39H999.476V37.8701H999.451C999.051 38.6509 998.315 39.1333 997.356 39.1333ZM997.718 37.9526C998.753 37.9526 999.483 37.0513 999.483 35.6611V35.6548C999.483 34.271 998.746 33.3696 997.718 33.3696C996.639 33.3696 995.966 34.2456 995.966 35.6548V35.6611C995.966 37.083 996.632 37.9526 997.718 37.9526ZM1004.91 39V29.8403H1006.23L1010.94 36.6133H1010.97V29.8403H1012.38V39H1011.08L1006.36 32.2144H1006.32V39H1004.91ZM1016.11 39.1333C1014.64 39.1333 1013.8 38.1875 1013.8 36.6514V32.3223H1015.17V36.3848C1015.17 37.394 1015.64 37.9526 1016.6 37.9526C1017.56 37.9526 1018.18 37.2607 1018.18 36.2197V32.3223H1019.56V39H1018.18V37.9971H1018.15C1017.8 38.6699 1017.12 39.1333 1016.11 39.1333ZM1020.84 39V32.3223H1022.21V33.4648H1022.24C1022.46 32.6841 1023.02 32.1953 1023.78 32.1953C1023.98 32.1953 1024.15 32.2271 1024.26 32.2461V33.522C1024.15 33.4775 1023.91 33.4458 1023.64 33.4458C1022.76 33.4458 1022.21 34.0234 1022.21 35.02V39H1020.84ZM1027.3 39.1333C1025.84 39.1333 1025 38.1875 1025 36.6514V32.3223H1026.37V36.3848C1026.37 37.394 1026.84 37.9526 1027.79 37.9526C1028.76 37.9526 1029.38 37.2607 1029.38 36.2197V32.3223H1030.75V39H1029.38V37.9971H1029.35C1029 38.6699 1028.32 39.1333 1027.3 39.1333ZM1032.09 39V29.8403H1033.46V39H1032.09ZM1037.52 39V29.8403H1038.94V33.7124H1043.64V29.8403H1045.06V39H1043.64V34.9438H1038.94V39H1037.52ZM1048.77 39.1333C1047.31 39.1333 1046.47 38.1875 1046.47 36.6514V32.3223H1047.84V36.3848C1047.84 37.394 1048.31 37.9526 1049.26 37.9526C1050.23 37.9526 1050.85 37.2607 1050.85 36.2197V32.3223H1052.23V39H1050.85V37.9971H1050.82C1050.47 38.6699 1049.79 39.1333 1048.77 39.1333ZM1056 39.1333C1054.3 39.1333 1053.21 37.7876 1053.21 35.6611V35.6548C1053.21 33.5283 1054.31 32.1953 1055.99 32.1953C1056.94 32.1953 1057.7 32.6714 1058.1 33.4585H1058.12V29.8403H1059.5V39H1058.12V37.8701H1058.1C1057.7 38.6509 1056.96 39.1333 1056 39.1333ZM1056.36 37.9526C1057.4 37.9526 1058.13 37.0513 1058.13 35.6611V35.6548C1058.13 34.271 1057.39 33.3696 1056.36 33.3696C1055.29 33.3696 1054.61 34.2456 1054.61 35.6548V35.6611C1054.61 37.083 1055.28 37.9526 1056.36 37.9526ZM1062.79 39.1206C1061.46 39.1206 1060.56 38.3018 1060.56 37.1021V37.0894C1060.56 35.9277 1061.47 35.2168 1063.05 35.1216L1064.86 35.0137V34.5122C1064.86 33.7759 1064.39 33.3315 1063.54 33.3315C1062.74 33.3315 1062.25 33.7061 1062.14 34.2393L1062.13 34.2964H1060.83L1060.84 34.2266C1060.93 33.0776 1061.93 32.1953 1063.57 32.1953C1065.21 32.1953 1066.24 33.0586 1066.24 34.3979V39H1064.86V37.9463H1064.84C1064.45 38.6636 1063.68 39.1206 1062.79 39.1206ZM1061.95 37.0703C1061.95 37.6543 1062.43 38.0225 1063.17 38.0225C1064.13 38.0225 1064.86 37.3687 1064.86 36.499V35.9785L1063.23 36.0801C1062.41 36.1309 1061.95 36.4927 1061.95 37.0576V37.0703Z" fill="#496F6B"/>
<path d="M981.631 54V46.2495H986.433V47.1196H982.598V49.6064H986.234V50.4658H982.598V53.1299H986.433V54H981.631ZM989.614 54.1074C988.298 54.1074 987.503 53.436 987.39 52.437L987.385 52.3887H988.319L988.33 52.4424C988.443 53.001 988.856 53.3286 989.619 53.3286C990.376 53.3286 990.828 53.0117 990.828 52.5068V52.5015C990.828 52.0986 990.618 51.873 989.984 51.7173L989.098 51.5024C988.045 51.25 987.535 50.7612 987.535 49.9556V49.9502C987.535 48.9888 988.378 48.3066 989.587 48.3066C990.812 48.3066 991.59 49.021 991.66 49.9556L991.666 50.0254H990.774L990.769 49.9878C990.693 49.4453 990.28 49.0854 989.587 49.0854C988.91 49.0854 988.491 49.4131 988.491 49.9072V49.9126C988.491 50.2939 988.744 50.5571 989.361 50.7075L990.248 50.9224C991.375 51.1963 991.784 51.6421 991.784 52.437V52.4424C991.784 53.4199 990.86 54.1074 989.614 54.1074ZM994.637 54.1074C993.611 54.1074 993.107 53.6455 993.107 52.5767V49.1875H992.29V48.4141H993.107V46.9048H994.073V48.4141H995.137V49.1875H994.073V52.5713C994.073 53.1675 994.337 53.334 994.836 53.334C994.949 53.334 995.056 53.3179 995.137 53.3125V54.0698C995.019 54.0859 994.82 54.1074 994.637 54.1074ZM996.734 47.4688C996.411 47.4688 996.148 47.2056 996.148 46.8833C996.148 46.5557 996.411 46.2979 996.734 46.2979C997.061 46.2979 997.319 46.5557 997.319 46.8833C997.319 47.2056 997.061 47.4688 996.734 47.4688ZM996.266 54V48.4141H997.201V54H996.266ZM998.54 54V48.4141H999.474V49.2305H999.496C999.748 48.6772 1000.31 48.3066 1001.03 48.3066C1001.79 48.3066 1002.35 48.6987 1002.59 49.3809H1002.62C1002.93 48.7095 1003.58 48.3066 1004.37 48.3066C1005.47 48.3066 1006.19 49.0317 1006.19 50.1436V54H1005.25V50.3584C1005.25 49.5903 1004.83 49.1338 1004.09 49.1338C1003.35 49.1338 1002.83 49.687 1002.83 50.4497V54H1001.9V50.2563C1001.9 49.5796 1001.45 49.1338 1000.75 49.1338C1000.01 49.1338 999.474 49.7192 999.474 50.498V54H998.54ZM1009.08 54.1074C1007.97 54.1074 1007.22 53.436 1007.22 52.4209V52.4102C1007.22 51.4595 1007.96 50.8633 1009.25 50.7881L1010.85 50.6968V50.2295C1010.85 49.5474 1010.4 49.1338 1009.62 49.1338C1008.9 49.1338 1008.45 49.4775 1008.34 49.9771L1008.33 50.0254H1007.43L1007.44 49.9663C1007.52 49.0479 1008.32 48.3066 1009.63 48.3066C1010.95 48.3066 1011.78 49.021 1011.78 50.1382V54H1010.85V53.0923H1010.83C1010.5 53.7046 1009.83 54.1074 1009.08 54.1074ZM1008.18 52.4209C1008.18 52.958 1008.62 53.2964 1009.29 53.2964C1010.17 53.2964 1010.85 52.6895 1010.85 51.8784V51.4219L1009.35 51.5132C1008.61 51.5562 1008.18 51.8892 1008.18 52.4102V52.4209ZM1015.02 54.1074C1013.7 54.1074 1012.91 53.436 1012.79 52.437L1012.79 52.3887H1013.72L1013.73 52.4424C1013.85 53.001 1014.26 53.3286 1015.02 53.3286C1015.78 53.3286 1016.23 53.0117 1016.23 52.5068V52.5015C1016.23 52.0986 1016.02 51.873 1015.39 51.7173L1014.5 51.5024C1013.45 51.25 1012.94 50.7612 1012.94 49.9556V49.9502C1012.94 48.9888 1013.78 48.3066 1014.99 48.3066C1016.21 48.3066 1016.99 49.021 1017.06 49.9556L1017.07 50.0254H1016.18L1016.17 49.9878C1016.1 49.4453 1015.68 49.0854 1014.99 49.0854C1014.31 49.0854 1013.89 49.4131 1013.89 49.9072V49.9126C1013.89 50.2939 1014.15 50.5571 1014.76 50.7075L1015.65 50.9224C1016.78 51.1963 1017.19 51.6421 1017.19 52.437V52.4424C1017.19 53.4199 1016.26 54.1074 1015.02 54.1074ZM1018.75 47.4688C1018.43 47.4688 1018.17 47.2056 1018.17 46.8833C1018.17 46.5557 1018.43 46.2979 1018.75 46.2979C1019.08 46.2979 1019.34 46.5557 1019.34 46.8833C1019.34 47.2056 1019.08 47.4688 1018.75 47.4688ZM1018.28 54V48.4141H1019.22V54H1018.28ZM1021.13 49.918C1020.79 49.918 1020.52 49.6494 1020.52 49.3057C1020.52 48.9619 1020.79 48.6934 1021.13 48.6934C1021.48 48.6934 1021.74 48.9619 1021.74 49.3057C1021.74 49.6494 1021.48 49.918 1021.13 49.918ZM1021.13 54.0752C1020.79 54.0752 1020.52 53.8066 1020.52 53.4629C1020.52 53.1191 1020.79 52.8506 1021.13 52.8506C1021.48 52.8506 1021.74 53.1191 1021.74 53.4629C1021.74 53.8066 1021.48 54.0752 1021.13 54.0752ZM1027.31 54V47.2754H1027.28L1025.23 48.7041V47.7319L1027.3 46.2495H1028.24V54H1027.31ZM1033 46.1206C1034.43 46.1206 1035.94 47.1089 1035.94 49.9824V49.9932C1035.94 52.6035 1034.83 54.1289 1032.94 54.1289C1031.62 54.1289 1030.64 53.377 1030.38 52.249L1030.36 52.1792H1031.35L1031.37 52.2383C1031.6 52.8774 1032.15 53.2749 1032.95 53.2749C1034.39 53.2749 1034.96 51.873 1035 50.2456C1035.01 50.1919 1035.01 50.1382 1035.01 50.0791H1034.99C1034.68 50.7666 1033.88 51.3252 1032.83 51.3252C1031.35 51.3252 1030.26 50.2349 1030.26 48.7632V48.7524C1030.26 47.2271 1031.42 46.1206 1033 46.1206ZM1033 50.4766C1034.01 50.4766 1034.78 49.7568 1034.78 48.7686V48.7632C1034.78 47.7695 1034.01 46.98 1033.01 46.98C1032.02 46.98 1031.24 47.7534 1031.24 48.731V48.7417C1031.24 49.7515 1031.97 50.4766 1033 50.4766ZM1037.47 54.0752C1037.12 54.0752 1036.85 53.8066 1036.85 53.4629C1036.85 53.1191 1037.12 52.8506 1037.47 52.8506C1037.81 52.8506 1038.08 53.1191 1038.08 53.4629C1038.08 53.8066 1037.81 54.0752 1037.47 54.0752ZM1042.04 54.1289C1040.26 54.1289 1039.2 52.5874 1039.2 50.1274V50.1167C1039.2 47.6567 1040.26 46.1206 1042.04 46.1206C1043.83 46.1206 1044.9 47.6567 1044.9 50.1167V50.1274C1044.9 52.5874 1043.83 54.1289 1042.04 54.1289ZM1042.04 53.2856C1043.23 53.2856 1043.92 52.0718 1043.92 50.1274V50.1167C1043.92 48.1724 1043.23 46.9692 1042.04 46.9692C1040.86 46.9692 1040.17 48.1724 1040.17 50.1167V50.1274C1040.17 52.0718 1040.86 53.2856 1042.04 53.2856ZM1048.78 54.1289C1047 54.1289 1045.94 52.5874 1045.94 50.1274V50.1167C1045.94 47.6567 1047 46.1206 1048.78 46.1206C1050.56 46.1206 1051.63 47.6567 1051.63 50.1167V50.1274C1051.63 52.5874 1050.56 54.1289 1048.78 54.1289ZM1048.78 53.2856C1049.96 53.2856 1050.66 52.0718 1050.66 50.1274V50.1167C1050.66 48.1724 1049.96 46.9692 1048.78 46.9692C1047.6 46.9692 1046.91 48.1724 1046.91 50.1167V50.1274C1046.91 52.0718 1047.6 53.2856 1048.78 53.2856Z" fill="#898989"/>
<rect x="967" y="4" width="89" height="17" rx="8.5" fill="#74B0AA"/>
<path d="M981.789 16V8.24951H983.411V16H981.789ZM987.001 16.1182C985.406 16.1182 984.519 15.3823 984.396 14.292L984.39 14.2437H985.921L985.932 14.292C986.034 14.7432 986.372 15.0063 987.001 15.0063C987.592 15.0063 987.952 14.7754 987.952 14.4048V14.3994C987.952 14.0933 987.758 13.916 987.194 13.7925L986.217 13.5884C985.099 13.3521 984.536 12.7935 984.536 11.9341V11.9287C984.536 10.833 985.481 10.124 986.947 10.124C988.478 10.124 989.332 10.9351 989.37 11.9448V11.9985H987.925L987.919 11.9556C987.866 11.542 987.527 11.2305 986.947 11.2305C986.405 11.2305 986.066 11.4722 986.066 11.8428V11.8481C986.066 12.1436 986.265 12.3369 986.845 12.4604L987.823 12.6699C989.026 12.9224 989.52 13.395 989.52 14.2437V14.249C989.52 15.377 988.483 16.1182 987.001 16.1182ZM991.229 17.896C990.923 17.896 990.612 17.8584 990.429 17.8262V16.6606C990.542 16.6821 990.725 16.7144 990.956 16.7144C991.423 16.7144 991.681 16.5801 991.82 16.188L991.89 16L989.854 10.2422H991.579L992.792 14.7432H992.835L994.055 10.2422H995.709L993.732 16.1021C993.281 17.4609 992.508 17.896 991.229 17.896ZM997.897 16.0913C996.742 16.0913 995.963 15.3662 995.963 14.3511V14.3403C995.963 13.293 996.774 12.6807 998.203 12.5894L999.626 12.5034V12.1489C999.626 11.6387 999.293 11.3218 998.681 11.3218C998.095 11.3218 997.741 11.5957 997.666 11.9663L997.655 12.0146H996.221L996.226 11.9502C996.312 10.8867 997.225 10.124 998.745 10.124C1000.23 10.124 1001.19 10.8921 1001.19 12.0522V16H999.626V15.1406H999.594C999.266 15.7314 998.654 16.0913 997.897 16.0913ZM997.515 14.2705C997.515 14.6948 997.864 14.9473 998.407 14.9473C999.11 14.9473 999.626 14.4961 999.626 13.8945V13.481L998.439 13.5562C997.832 13.5938 997.515 13.8516 997.515 14.2598V14.2705ZM1006.58 17.8799C1005.47 16.5425 1004.99 14.9902 1004.99 13.0674C1004.99 11.1284 1005.47 9.57617 1006.58 8.24951H1008.02C1007.22 9.18408 1006.61 11.2305 1006.61 13.062C1006.61 14.8882 1007.22 16.9346 1008.02 17.8799H1006.58ZM1010.76 16V9.7373H1010.73L1008.76 11.0801V9.64062L1010.76 8.24951H1012.37V16H1010.76ZM1017.1 8.11523C1018.97 8.11523 1020.33 9.42578 1020.33 12.0522V12.063C1020.33 14.6035 1019.1 16.1343 1017.08 16.1343C1015.58 16.1343 1014.46 15.2642 1014.23 14.0664L1014.21 14.0181H1015.82L1015.83 14.061C1016.02 14.5283 1016.45 14.8452 1017.09 14.8452C1018.22 14.8452 1018.72 13.7656 1018.77 12.396C1018.78 12.2939 1018.79 12.1865 1018.78 12.1006H1018.75C1018.45 12.8203 1017.68 13.3467 1016.64 13.3467C1015.14 13.3467 1014.11 12.2886 1014.11 10.833V10.8223C1014.11 9.23779 1015.37 8.11523 1017.1 8.11523ZM1017.1 12.1489C1017.92 12.1489 1018.54 11.585 1018.54 10.7954V10.79C1018.54 10.0059 1017.92 9.4043 1017.12 9.4043C1016.33 9.4043 1015.69 10.0005 1015.69 10.7686V10.7793C1015.69 11.585 1016.3 12.1489 1017.1 12.1489ZM1021.9 16.0913C1021.41 16.0913 1021.03 15.7046 1021.03 15.2212C1021.03 14.7324 1021.41 14.3511 1021.9 14.3511C1022.38 14.3511 1022.77 14.7324 1022.77 15.2212C1022.77 15.7046 1022.38 16.0913 1021.9 16.0913ZM1026.74 16.1343C1024.77 16.1343 1023.58 14.5928 1023.58 12.1274V12.1167C1023.58 9.65137 1024.77 8.11523 1026.74 8.11523C1028.7 8.11523 1029.9 9.65137 1029.9 12.1167V12.1274C1029.9 14.5928 1028.7 16.1343 1026.74 16.1343ZM1026.74 14.8345C1027.7 14.8345 1028.26 13.8301 1028.26 12.1274V12.1167C1028.26 10.4141 1027.7 9.41504 1026.74 9.41504C1025.77 9.41504 1025.22 10.4141 1025.22 12.1167V12.1274C1025.22 13.8301 1025.77 14.8345 1026.74 14.8345ZM1033.92 8.11523C1035.78 8.11523 1037.15 9.42578 1037.15 12.0522V12.063C1037.15 14.6035 1035.92 16.1343 1033.9 16.1343C1032.4 16.1343 1031.27 15.2642 1031.04 14.0664L1031.03 14.0181H1032.63L1032.65 14.061C1032.84 14.5283 1033.27 14.8452 1033.9 14.8452C1035.04 14.8452 1035.53 13.7656 1035.59 12.396C1035.6 12.2939 1035.6 12.1865 1035.6 12.1006H1035.57C1035.26 12.8203 1034.5 13.3467 1033.45 13.3467C1031.95 13.3467 1030.93 12.2886 1030.93 10.833V10.8223C1030.93 9.23779 1032.19 8.11523 1033.92 8.11523ZM1033.92 12.1489C1034.73 12.1489 1035.35 11.585 1035.35 10.7954V10.79C1035.35 10.0059 1034.73 9.4043 1033.94 9.4043C1033.15 9.4043 1032.51 10.0005 1032.51 10.7686V10.7793C1032.51 11.585 1033.11 12.1489 1033.92 12.1489ZM1039.29 17.8799H1037.84C1038.64 16.9346 1039.26 14.8828 1039.26 13.062C1039.26 11.2305 1038.64 9.18408 1037.84 8.24951H1039.29C1040.39 9.57617 1040.88 11.1284 1040.88 13.0674C1040.88 14.9849 1040.39 16.5425 1039.29 17.8799Z" fill="white"/>
<path d="M998.5 96.7998C998.5 105.005 1003.61 112.049 1010.74 114.414L1013.63 117.768C1014.23 118.467 1015.11 118.869 1016.03 118.869C1016.96 118.869 1017.84 118.463 1018.44 117.758L1021.31 114.398C1028.42 112.017 1033.5 104.987 1033.5 96.7998C1033.5 86.6882 1025.75 78.3398 1016 78.3398C1006.25 78.3398 998.5 86.6882 998.5 96.7998Z" fill="#4D7571" stroke="white" stroke-width="3"/>
<path d="M1023.14 96.343C1024.79 98.6155 1024.06 100.207 1023.34 101.478C1023.22 101.701 1022.99 101.836 1022.74 101.836H1009.28C1009.03 101.836 1008.8 101.701 1008.68 101.478C1007.96 100.207 1007.23 98.6155 1008.88 96.343C1009.16 95.9278 1010.17 95.0626 1011.29 94.4248C1012.8 93.6195 1015.68 91.6548 1015.8 90.7381V90.5398C1015.8 90.4154 1015.89 90.3146 1016.01 90.3146C1016.13 90.3146 1016.22 90.4154 1016.22 90.5398V90.7381C1016.33 91.6548 1019.22 93.6195 1020.73 94.4248C1021.84 95.0626 1022.85 95.9278 1023.14 96.343Z" fill="white"/>
<path d="M1023.1 102.886H1008.92C1008.64 102.886 1008.38 103.063 1008.27 103.336L1007.89 104.286C1007.69 104.774 1008.03 105.316 1008.53 105.316H1023.48C1023.99 105.316 1024.32 104.774 1024.13 104.286L1023.74 103.336C1023.64 103.063 1023.38 102.886 1023.1 102.886Z" fill="white"/>
<path fill-rule="evenodd" clip-rule="evenodd" d="M1016.22 90.8827C1017.87 90.8827 1019.21 89.4885 1019.21 87.7685C1019.21 87.6307 1019.01 87.613 1018.95 87.7345C1018.62 88.393 1017.96 88.8409 1017.21 88.8409C1016.12 88.8409 1015.24 87.9037 1015.24 86.7476C1015.24 85.9597 1015.65 85.2734 1016.25 84.9162C1016.36 84.8526 1016.34 84.6544 1016.22 84.6544C1014.57 84.6544 1013.23 86.0487 1013.23 87.7685C1013.23 89.4885 1014.57 90.8827 1016.22 90.8827Z" fill="white"/>
<g filter="url(#filter2_d_4_252)">
<g filter="url(#filter3_b_4_252)">
<rect x="407" y="56" width="140" height="60" rx="13" fill="white"/>
</g>
</g>
<path d="M419.005 86V76.8403H420.649L423.613 84.1528H423.651L426.622 76.8403H428.26V86H426.965V79.2397H426.92L424.159 86H423.105L420.344 79.2397H420.3V86H419.005ZM431.489 86.1206C430.156 86.1206 429.261 85.3018 429.261 84.1021V84.0894C429.261 82.9277 430.162 82.2168 431.743 82.1216L433.558 82.0137V81.5122C433.558 80.7759 433.082 80.3315 432.231 80.3315C431.438 80.3315 430.949 80.7061 430.835 81.2393L430.822 81.2964H429.527L429.534 81.2266C429.629 80.0776 430.625 79.1953 432.269 79.1953C433.901 79.1953 434.935 80.0586 434.935 81.3979V86H433.558V84.9463H433.533C433.145 85.6636 432.371 86.1206 431.489 86.1206ZM430.644 84.0703C430.644 84.6543 431.127 85.0225 431.863 85.0225C432.828 85.0225 433.558 84.3687 433.558 83.499V82.9785L431.927 83.0801C431.101 83.1309 430.644 83.4927 430.644 84.0576V84.0703ZM438.691 86.1333C437.022 86.1333 436.044 85.3081 435.905 84.0894L435.898 84.0322H437.257L437.27 84.0957C437.397 84.7114 437.854 85.0732 438.698 85.0732C439.523 85.0732 440.018 84.7305 440.018 84.1909V84.1846C440.018 83.7529 439.777 83.5054 439.06 83.334L437.968 83.0864C436.698 82.7944 436.07 82.1851 436.07 81.2139V81.2075C436.07 80.0142 437.111 79.1953 438.647 79.1953C440.228 79.1953 441.18 80.0776 441.25 81.2139L441.256 81.29H439.967L439.961 81.2456C439.878 80.6616 439.421 80.2554 438.647 80.2554C437.911 80.2554 437.447 80.6045 437.447 81.1377V81.144C437.447 81.5566 437.72 81.8359 438.438 82.0073L439.523 82.2549C440.888 82.5723 441.408 83.1118 441.408 84.0703V84.0767C441.408 85.2954 440.266 86.1333 438.691 86.1333ZM443.127 78.2939C442.682 78.2939 442.327 77.9385 442.327 77.5068C442.327 77.0688 442.682 76.7134 443.127 76.7134C443.577 76.7134 443.926 77.0688 443.926 77.5068C443.926 77.9385 443.577 78.2939 443.127 78.2939ZM441.629 88.2344C441.521 88.2344 441.4 88.228 441.311 88.2217V87.0981C441.375 87.0981 441.438 87.1045 441.508 87.1045C442.187 87.1045 442.441 86.8887 442.441 86.2158V79.3223H443.812V86.2285C443.812 87.5869 443.108 88.2344 441.629 88.2344ZM445.892 78.2939C445.448 78.2939 445.093 77.9385 445.093 77.5068C445.093 77.0688 445.448 76.7134 445.892 76.7134C446.343 76.7134 446.692 77.0688 446.692 77.5068C446.692 77.9385 446.343 78.2939 445.892 78.2939ZM445.207 86V79.3223H446.578V86H445.207ZM450.41 86.1333C448.709 86.1333 447.617 84.7876 447.617 82.6611V82.6548C447.617 80.5283 448.722 79.1953 450.397 79.1953C451.343 79.1953 452.105 79.6714 452.505 80.4585H452.53V76.8403H453.908V86H452.53V84.8701H452.505C452.105 85.6509 451.369 86.1333 450.41 86.1333ZM450.772 84.9526C451.807 84.9526 452.537 84.0513 452.537 82.6611V82.6548C452.537 81.271 451.8 80.3696 450.772 80.3696C449.693 80.3696 449.02 81.2456 449.02 82.6548V82.6611C449.02 84.083 449.686 84.9526 450.772 84.9526ZM457.966 86V76.8403H461.521C463.394 76.8403 464.574 77.9258 464.574 79.646V79.6587C464.574 80.9028 463.895 81.8931 462.797 82.2676L464.847 86H463.21L461.343 82.4834H459.388V86H457.966ZM459.388 81.3154H461.382C462.48 81.3154 463.108 80.7124 463.108 79.6714V79.6587C463.108 78.6431 462.435 78.0337 461.343 78.0337H459.388V81.3154ZM467.518 86.1206C466.185 86.1206 465.29 85.3018 465.29 84.1021V84.0894C465.29 82.9277 466.191 82.2168 467.772 82.1216L469.587 82.0137V81.5122C469.587 80.7759 469.111 80.3315 468.261 80.3315C467.467 80.3315 466.978 80.7061 466.864 81.2393L466.851 81.2964H465.556L465.563 81.2266C465.658 80.0776 466.655 79.1953 468.299 79.1953C469.93 79.1953 470.965 80.0586 470.965 81.3979V86H469.587V84.9463H469.562C469.175 85.6636 468.4 86.1206 467.518 86.1206ZM466.674 84.0703C466.674 84.6543 467.156 85.0225 467.892 85.0225C468.857 85.0225 469.587 84.3687 469.587 83.499V82.9785L467.956 83.0801C467.131 83.1309 466.674 83.4927 466.674 84.0576V84.0703ZM472.994 88.228C472.727 88.228 472.442 88.1963 472.277 88.1646V87.0918C472.385 87.1172 472.543 87.1426 472.727 87.1426C473.375 87.1426 473.73 86.9712 473.959 86.3237L474.073 86.0063L471.642 79.3223H473.127L474.81 84.7559H474.854L476.536 79.3223H477.983L475.495 86.311C475 87.6948 474.302 88.228 472.994 88.228ZM480.527 86.1206C479.194 86.1206 478.299 85.3018 478.299 84.1021V84.0894C478.299 82.9277 479.2 82.2168 480.781 82.1216L482.596 82.0137V81.5122C482.596 80.7759 482.12 80.3315 481.27 80.3315C480.476 80.3315 479.987 80.7061 479.873 81.2393L479.86 81.2964H478.565L478.572 81.2266C478.667 80.0776 479.664 79.1953 481.308 79.1953C482.939 79.1953 483.974 80.0586 483.974 81.3979V86H482.596V84.9463H482.571C482.184 85.6636 481.409 86.1206 480.527 86.1206ZM479.683 84.0703C479.683 84.6543 480.165 85.0225 480.901 85.0225C481.866 85.0225 482.596 84.3687 482.596 83.499V82.9785L480.965 83.0801C480.14 83.1309 479.683 83.4927 479.683 84.0576V84.0703ZM487.277 86L490.61 76.8403H492.146L495.472 86H493.98L493.142 83.5244H489.613L488.769 86H487.277ZM491.365 78.3574L489.994 82.3818H492.755L491.39 78.3574H491.365ZM496.295 86V76.8403H497.666V86H496.295ZM499.093 82.9023V81.6646H503.174V82.9023H499.093ZM503.814 86L507.146 76.8403H508.682L512.008 86H510.517L509.679 83.5244H506.15L505.305 86H503.814ZM507.902 78.3574L506.53 82.3818H509.292L507.927 78.3574H507.902ZM512.857 86V76.8403H514.228V82.1724H514.26L516.939 79.3223H518.551L515.809 82.2041L518.659 86H517.066L514.8 83.0293L514.228 83.5942V86H512.857ZM522.815 86.1333C521.856 86.1333 521.114 85.6509 520.72 84.8701H520.688V86H519.317V76.8403H520.688V80.4585H520.72C521.12 79.6714 521.882 79.1953 522.828 79.1953C524.503 79.1953 525.608 80.5283 525.608 82.6548V82.6611C525.608 84.7876 524.51 86.1333 522.815 86.1333ZM522.453 84.9526C523.532 84.9526 524.205 84.083 524.205 82.6611V82.6548C524.205 81.2456 523.532 80.3696 522.453 80.3696C521.418 80.3696 520.682 81.271 520.682 82.6548V82.6611C520.682 84.0513 521.412 84.9526 522.453 84.9526ZM528.551 86.1206C527.218 86.1206 526.323 85.3018 526.323 84.1021V84.0894C526.323 82.9277 527.225 82.2168 528.805 82.1216L530.621 82.0137V81.5122C530.621 80.7759 530.145 80.3315 529.294 80.3315C528.501 80.3315 528.012 80.7061 527.898 81.2393L527.885 81.2964H526.59L526.596 81.2266C526.691 80.0776 527.688 79.1953 529.332 79.1953C530.963 79.1953 531.998 80.0586 531.998 81.3979V86H530.621V84.9463H530.595C530.208 85.6636 529.434 86.1206 528.551 86.1206ZM527.707 84.0703C527.707 84.6543 528.19 85.0225 528.926 85.0225C529.891 85.0225 530.621 84.3687 530.621 83.499V82.9785L528.989 83.0801C528.164 83.1309 527.707 83.4927 527.707 84.0576V84.0703ZM533.253 86V79.3223H534.624V80.4648H534.656C534.872 79.6841 535.43 79.1953 536.192 79.1953C536.389 79.1953 536.56 79.2271 536.668 79.2461V80.522C536.56 80.4775 536.319 80.4458 536.052 80.4458C535.17 80.4458 534.624 81.0234 534.624 82.02V86H533.253Z" fill="#496F6B"/>
<path d="M443.651 101V93.2495H448.453V94.1196H444.618V96.6064H448.254V97.4658H444.618V100.13H448.453V101H443.651ZM451.634 101.107C450.318 101.107 449.523 100.436 449.411 99.437L449.405 99.3887H450.34L450.351 99.4424C450.463 100.001 450.877 100.329 451.64 100.329C452.397 100.329 452.848 100.012 452.848 99.5068V99.5015C452.848 99.0986 452.639 98.873 452.005 98.7173L451.119 98.5024C450.066 98.25 449.556 97.7612 449.556 96.9556V96.9502C449.556 95.9888 450.399 95.3066 451.607 95.3066C452.832 95.3066 453.611 96.021 453.681 96.9556L453.686 97.0254H452.794L452.789 96.9878C452.714 96.4453 452.3 96.0854 451.607 96.0854C450.931 96.0854 450.512 96.4131 450.512 96.9072V96.9126C450.512 97.2939 450.764 97.5571 451.382 97.7075L452.268 97.9224C453.396 98.1963 453.804 98.6421 453.804 99.437V99.4424C453.804 100.42 452.88 101.107 451.634 101.107ZM456.658 101.107C455.632 101.107 455.127 100.646 455.127 99.5767V96.1875H454.311V95.4141H455.127V93.9048H456.094V95.4141H457.157V96.1875H456.094V99.5713C456.094 100.167 456.357 100.334 456.857 100.334C456.969 100.334 457.077 100.318 457.157 100.312V101.07C457.039 101.086 456.84 101.107 456.658 101.107ZM458.754 94.4688C458.432 94.4688 458.169 94.2056 458.169 93.8833C458.169 93.5557 458.432 93.2979 458.754 93.2979C459.082 93.2979 459.34 93.5557 459.34 93.8833C459.34 94.2056 459.082 94.4688 458.754 94.4688ZM458.287 101V95.4141H459.221V101H458.287ZM460.56 101V95.4141H461.495V96.2305H461.516C461.769 95.6772 462.327 95.3066 463.047 95.3066C463.81 95.3066 464.374 95.6987 464.615 96.3809H464.637C464.948 95.7095 465.604 95.3066 466.388 95.3066C467.494 95.3066 468.209 96.0317 468.209 97.1436V101H467.274V97.3584C467.274 96.5903 466.85 96.1338 466.114 96.1338C465.373 96.1338 464.852 96.687 464.852 97.4497V101H463.917V97.2563C463.917 96.5796 463.466 96.1338 462.773 96.1338C462.032 96.1338 461.495 96.7192 461.495 97.498V101H460.56ZM471.1 101.107C469.988 101.107 469.242 100.436 469.242 99.4209V99.4102C469.242 98.4595 469.983 97.8633 471.266 97.7881L472.867 97.6968V97.2295C472.867 96.5474 472.421 96.1338 471.642 96.1338C470.923 96.1338 470.472 96.4775 470.364 96.9771L470.353 97.0254H469.451L469.456 96.9663C469.537 96.0479 470.337 95.3066 471.653 95.3066C472.974 95.3066 473.802 96.021 473.802 97.1382V101H472.867V100.092H472.846C472.518 100.705 471.847 101.107 471.1 101.107ZM470.198 99.4209C470.198 99.958 470.638 100.296 471.309 100.296C472.19 100.296 472.867 99.6895 472.867 98.8784V98.4219L471.374 98.5132C470.627 98.5562 470.198 98.8892 470.198 99.4102V99.4209ZM477.037 101.107C475.721 101.107 474.926 100.436 474.813 99.437L474.808 99.3887H475.742L475.753 99.4424C475.866 100.001 476.279 100.329 477.042 100.329C477.799 100.329 478.25 100.012 478.25 99.5068V99.5015C478.25 99.0986 478.041 98.873 477.407 98.7173L476.521 98.5024C475.468 98.25 474.958 97.7612 474.958 96.9556V96.9502C474.958 95.9888 475.801 95.3066 477.01 95.3066C478.234 95.3066 479.013 96.021 479.083 96.9556L479.088 97.0254H478.197L478.191 96.9878C478.116 96.4453 477.703 96.0854 477.01 96.0854C476.333 96.0854 475.914 96.4131 475.914 96.9072V96.9126C475.914 97.2939 476.166 97.5571 476.784 97.7075L477.67 97.9224C478.798 98.1963 479.206 98.6421 479.206 99.437V99.4424C479.206 100.42 478.283 101.107 477.037 101.107ZM480.771 94.4688C480.449 94.4688 480.186 94.2056 480.186 93.8833C480.186 93.5557 480.449 93.2979 480.771 93.2979C481.099 93.2979 481.356 93.5557 481.356 93.8833C481.356 94.2056 481.099 94.4688 480.771 94.4688ZM480.304 101V95.4141H481.238V101H480.304ZM483.152 96.918C482.808 96.918 482.54 96.6494 482.54 96.3057C482.54 95.9619 482.808 95.6934 483.152 95.6934C483.496 95.6934 483.764 95.9619 483.764 96.3057C483.764 96.6494 483.496 96.918 483.152 96.918ZM483.152 101.075C482.808 101.075 482.54 100.807 482.54 100.463C482.54 100.119 482.808 99.8506 483.152 99.8506C483.496 99.8506 483.764 100.119 483.764 100.463C483.764 100.807 483.496 101.075 483.152 101.075ZM489.326 101V94.2754H489.305L487.253 95.7041V94.7319L489.316 93.2495H490.261V101H489.326ZM494.962 101.129C493.319 101.129 492.148 100.205 492.148 98.9053V98.8945C492.148 97.9385 492.819 97.1436 493.813 96.9126V96.8911C492.964 96.6279 492.427 95.9834 492.427 95.167V95.1562C492.427 93.9854 493.496 93.1206 494.962 93.1206C496.429 93.1206 497.497 93.9854 497.497 95.1562V95.167C497.497 95.9834 496.96 96.6279 496.112 96.8911V96.9126C497.105 97.1436 497.777 97.9385 497.777 98.8945V98.9053C497.777 100.205 496.606 101.129 494.962 101.129ZM494.962 96.5312C495.897 96.5312 496.536 95.9995 496.536 95.2476V95.2368C496.536 94.4849 495.897 93.9531 494.962 93.9531C494.028 93.9531 493.389 94.4849 493.389 95.2368V95.2476C493.389 95.9995 494.028 96.5312 494.962 96.5312ZM494.962 100.286C496.031 100.286 496.794 99.6841 496.794 98.8462V98.8354C496.794 97.9868 496.036 97.3799 494.962 97.3799C493.888 97.3799 493.131 97.9868 493.131 98.8354V98.8462C493.131 99.6841 493.893 100.286 494.962 100.286ZM499.347 101.075C499.003 101.075 498.734 100.807 498.734 100.463C498.734 100.119 499.003 99.8506 499.347 99.8506C499.69 99.8506 499.959 100.119 499.959 100.463C499.959 100.807 499.69 101.075 499.347 101.075ZM503.924 101.129C502.141 101.129 501.083 99.5874 501.083 97.1274V97.1167C501.083 94.6567 502.141 93.1206 503.924 93.1206C505.708 93.1206 506.776 94.6567 506.776 97.1167V97.1274C506.776 99.5874 505.708 101.129 503.924 101.129ZM503.924 100.286C505.106 100.286 505.804 99.0718 505.804 97.1274V97.1167C505.804 95.1724 505.106 93.9692 503.924 93.9692C502.743 93.9692 502.055 95.1724 502.055 97.1167V97.1274C502.055 99.0718 502.743 100.286 503.924 100.286ZM509.829 101V94.2754H509.807L507.755 95.7041V94.7319L509.818 93.2495H510.763V101H509.829Z" fill="#898989"/>
<rect x="427" y="51" width="102" height="17" rx="8.5" fill="#74B0AA"/>
<path d="M442.111 63V55.2495H443.986L446.188 60.8193H446.22L448.422 55.2495H450.297V63H448.852V57.7578H448.803L446.714 63H445.694L443.599 57.7578H443.556V63H442.111ZM453.113 63.0913C451.958 63.0913 451.179 62.3662 451.179 61.3511V61.3403C451.179 60.293 451.99 59.6807 453.419 59.5894L454.842 59.5034V59.1489C454.842 58.6387 454.509 58.3218 453.897 58.3218C453.311 58.3218 452.957 58.5957 452.882 58.9663L452.871 59.0146H451.437L451.442 58.9502C451.528 57.8867 452.441 57.124 453.961 57.124C455.449 57.124 456.41 57.8921 456.41 59.0522V63H454.842V62.1406H454.81C454.482 62.7314 453.87 63.0913 453.113 63.0913ZM452.731 61.2705C452.731 61.6948 453.08 61.9473 453.623 61.9473C454.326 61.9473 454.842 61.4961 454.842 60.8945V60.481L453.655 60.5562C453.048 60.5938 452.731 60.8516 452.731 61.2598V61.2705ZM460.182 64.998C458.598 64.998 457.599 64.2837 457.449 63.3599L457.443 63.3115H458.969L458.985 63.3491C459.108 63.6338 459.527 63.8809 460.182 63.8809C460.994 63.8809 461.423 63.4619 461.423 62.8174V61.9365H461.391C461.09 62.5381 460.446 62.9194 459.613 62.9194C458.174 62.9194 457.282 61.8452 457.282 60.0566V60.0513C457.282 58.2144 458.184 57.124 459.64 57.124C460.451 57.124 461.079 57.5537 461.391 58.2251H461.423V57.2422H462.992V62.8389C462.992 64.1226 461.912 64.998 460.182 64.998ZM460.156 61.77C460.924 61.77 461.429 61.1255 461.429 60.0942V60.0889C461.429 59.063 460.918 58.4238 460.156 58.4238C459.377 58.4238 458.877 59.0576 458.877 60.0889V60.0942C458.877 61.1309 459.371 61.77 460.156 61.77ZM464.089 63V57.2422H465.657V58.2466H465.689C465.861 57.5376 466.329 57.124 467 57.124C467.172 57.124 467.333 57.1509 467.451 57.1831V58.5635C467.322 58.5098 467.107 58.4775 466.882 58.4775C466.108 58.4775 465.657 58.9395 465.657 59.7773V63H464.089ZM468.978 56.501C468.505 56.501 468.14 56.1304 468.14 55.6846C468.14 55.2388 468.505 54.8682 468.978 54.8682C469.451 54.8682 469.816 55.2388 469.816 55.6846C469.816 56.1304 469.451 56.501 468.978 56.501ZM468.194 63V57.2422H469.762V63H468.194ZM474.292 63.1182C473.464 63.1182 472.831 62.6992 472.519 62.0171H472.487V63H470.919V55.2495H472.487V58.2412H472.519C472.836 57.543 473.475 57.124 474.297 57.124C475.742 57.124 476.639 58.2412 476.639 60.1157V60.1211C476.639 61.9902 475.742 63.1182 474.292 63.1182ZM473.771 61.8184C474.549 61.8184 475.044 61.1685 475.044 60.1211V60.1157C475.044 59.063 474.549 58.4238 473.771 58.4238C473.013 58.4238 472.487 59.0791 472.487 60.1157V60.1211C472.487 61.1631 473.008 61.8184 473.771 61.8184ZM481.82 64.8799C480.708 63.5425 480.224 61.9902 480.224 60.0674C480.224 58.1284 480.708 56.5762 481.82 55.2495H483.259C482.459 56.1841 481.841 58.2305 481.841 60.062C481.841 61.8882 482.459 63.9346 483.259 64.8799H481.82ZM486 63V56.7373H485.968L483.991 58.0801V56.6406L485.995 55.2495H487.606V63H486ZM492.436 63.1343C490.588 63.1343 489.31 62.2158 489.31 60.8838V60.873C489.31 59.8687 490.057 59.1274 491.099 58.9233V58.8911C490.202 58.6709 489.595 58.021 489.595 57.1938V57.1831C489.595 55.9854 490.76 55.1152 492.436 55.1152C494.106 55.1152 495.277 55.9854 495.277 57.1831V57.1938C495.277 58.021 494.665 58.6709 493.773 58.8911V58.9233C494.81 59.1274 495.557 59.8687 495.557 60.873V60.8838C495.557 62.2158 494.284 63.1343 492.436 63.1343ZM492.436 58.4023C493.166 58.4023 493.671 57.9673 493.671 57.3442V57.3335C493.671 56.7158 493.161 56.2861 492.436 56.2861C491.711 56.2861 491.195 56.7158 491.195 57.3335V57.3442C491.195 57.9673 491.706 58.4023 492.436 58.4023ZM492.436 61.9526C493.279 61.9526 493.875 61.4585 493.875 60.7764V60.7656C493.875 60.0781 493.29 59.5786 492.436 59.5786C491.582 59.5786 490.991 60.0781 490.991 60.7656V60.7764C490.991 61.4585 491.587 61.9526 492.436 61.9526ZM497.314 63.0913C496.826 63.0913 496.444 62.7046 496.444 62.2212C496.444 61.7324 496.826 61.3511 497.314 61.3511C497.798 61.3511 498.185 61.7324 498.185 62.2212C498.185 62.7046 497.798 63.0913 497.314 63.0913ZM500.764 63V56.7373H500.732L498.755 58.0801V56.6406L500.759 55.2495H502.37V63H500.764ZM504.176 63V61.8882L506.916 59.3262C507.915 58.3916 508.124 58.0103 508.124 57.4731V57.4624C508.119 56.8286 507.635 56.3774 506.948 56.3774C506.153 56.3774 505.616 56.8984 505.594 57.5967L505.589 57.645H504.085V57.6021C504.085 56.1411 505.299 55.1152 506.937 55.1152C508.575 55.1152 509.703 56.0498 509.703 57.3711V57.3818C509.703 58.3218 509.258 58.9341 507.92 60.1641L506.298 61.6465V61.7109H509.811V63H504.176ZM511.966 64.8799H510.521C511.322 63.9346 511.939 61.8828 511.939 60.062C511.939 58.2305 511.322 56.1841 510.521 55.2495H511.966C513.073 56.5762 513.556 58.1284 513.556 60.0674C513.556 61.9849 513.073 63.5425 511.966 64.8799Z" fill="white"/>
<path d="M459.5 143.96C459.5 152.165 464.605 159.209 471.738 161.574L474.628 164.928C475.23 165.627 476.107 166.03 477.03 166.03C477.957 166.03 478.839 165.623 479.441 164.918L482.31 161.558C489.417 159.178 494.5 152.147 494.5 143.96C494.5 133.848 486.746 125.5 477 125.5C467.254 125.5 459.5 133.848 459.5 143.96Z" fill="#4D7571" stroke="white" stroke-width="3"/>
<path d="M484.138 143.503C485.791 145.776 485.057 147.367 484.341 148.638C484.216 148.861 483.988 148.996 483.743 148.996H470.275C470.03 148.996 469.802 148.861 469.677 148.638C468.962 147.367 468.227 145.776 469.88 143.503C470.164 143.088 471.174 142.223 472.288 141.585C473.799 140.78 476.683 138.815 476.797 137.898V137.7C476.797 137.576 476.892 137.475 477.009 137.475C477.126 137.475 477.221 137.576 477.221 137.7V137.898C477.335 138.815 480.219 140.78 481.73 141.585C482.844 142.223 483.854 143.088 484.138 143.503Z" fill="white"/>
<path d="M484.102 150.046H469.915C469.635 150.046 469.382 150.223 469.272 150.496L468.891 151.446C468.694 151.934 469.032 152.477 469.533 152.477H484.484C484.985 152.477 485.323 151.934 485.127 151.446L484.745 150.496C484.635 150.223 484.382 150.046 484.102 150.046Z" fill="white"/>
<path fill-rule="evenodd" clip-rule="evenodd" d="M477.218 138.043C478.872 138.043 480.212 136.649 480.212 134.929C480.212 134.791 480.014 134.773 479.953 134.895C479.62 135.553 478.965 136.001 478.211 136.001C477.12 136.001 476.236 135.064 476.236 133.908C476.236 133.12 476.647 132.434 477.254 132.076C477.362 132.013 477.342 131.815 477.218 131.815C475.565 131.815 474.225 133.209 474.225 134.929C474.225 136.649 475.565 138.043 477.218 138.043Z" fill="white"/>
<path d="M702.5 70.96C702.5 79.165 707.605 86.209 714.738 88.5737L717.628 91.9283C718.23 92.6275 719.107 93.0296 720.03 93.0296C720.957 93.0296 721.839 92.6233 722.441 91.9178L725.31 88.5578C732.417 86.1776 737.5 79.1467 737.5 70.96C737.5 60.8484 729.746 52.5 720 52.5C710.254 52.5 702.5 60.8484 702.5 70.96Z" fill="#4D7571" stroke="white" stroke-width="3"/>
<path d="M727.138 70.503C728.791 72.7755 728.057 74.3673 727.341 75.6378C727.216 75.8607 726.988 75.9959 726.743 75.9959H713.275C713.03 75.9959 712.802 75.8607 712.677 75.6378C711.962 74.3673 711.227 72.7755 712.88 70.503C713.164 70.0879 714.174 69.2226 715.288 68.5849C716.799 67.7795 719.683 65.8148 719.797 64.8981V64.6998C719.797 64.5754 719.892 64.4746 720.009 64.4746C720.126 64.4746 720.221 64.5754 720.221 64.6998V64.8981C720.335 65.8148 723.219 67.7795 724.73 68.5849C725.844 69.2226 726.854 70.0879 727.138 70.503Z" fill="white"/>
<path d="M727.103 77.0458H712.916C712.636 77.0458 712.383 77.223 712.273 77.496L711.891 78.4457C711.695 78.9342 712.033 79.4767 712.534 79.4767H727.484C727.986 79.4767 728.324 78.9342 728.127 78.4457L727.745 77.496C727.636 77.223 727.383 77.0458 727.103 77.0458Z" fill="white"/>
<path fill-rule="evenodd" clip-rule="evenodd" d="M720.218 65.0428C721.872 65.0428 723.212 63.6486 723.212 61.9287C723.212 61.7909 723.014 61.7732 722.953 61.8947C722.62 62.5532 721.965 63.001 721.211 63.001C720.12 63.001 719.236 62.0639 719.236 60.9078C719.236 60.1198 719.647 59.4335 720.254 59.0764C720.362 59.0128 720.342 58.8146 720.218 58.8146C718.565 58.8146 717.225 60.2088 717.225 61.9287C717.225 63.6486 718.565 65.0428 720.218 65.0428Z" fill="white"/>
<path d="M121.5 39.96C121.5 48.165 126.605 55.209 133.738 57.5737L136.628 60.9283C137.23 61.6275 138.107 62.0296 139.03 62.0296C139.957 62.0296 140.839 61.6233 141.441 60.9178L144.31 57.5578C151.417 55.1776 156.5 48.1467 156.5 39.96C156.5 29.8484 148.746 21.5 139 21.5C129.254 21.5 121.5 29.8484 121.5 39.96Z" fill="#4D7571" stroke="white" stroke-width="3"/>
<path d="M146.138 39.503C147.791 41.7755 147.057 43.3673 146.341 44.6378C146.216 44.8607 145.988 44.9959 145.743 44.9959H132.275C132.03 44.9959 131.802 44.8607 131.677 44.6378C130.962 43.3673 130.227 41.7755 131.88 39.503C132.164 39.0879 133.174 38.2226 134.288 37.5849C135.799 36.7795 138.683 34.8148 138.797 33.8981V33.6998C138.797 33.5754 138.892 33.4746 139.009 33.4746C139.126 33.4746 139.221 33.5754 139.221 33.6998V33.8981C139.335 34.8148 142.219 36.7795 143.73 37.5849C144.844 38.2226 145.854 39.0879 146.138 39.503Z" fill="white"/>
<path d="M146.103 46.0458H131.916C131.636 46.0458 131.383 46.223 131.273 46.496L130.891 47.4457C130.695 47.9342 131.033 48.4767 131.534 48.4767H146.484C146.986 48.4767 147.324 47.9342 147.127 47.4457L146.745 46.496C146.636 46.223 146.383 46.0458 146.103 46.0458Z" fill="white"/>
<path fill-rule="evenodd" clip-rule="evenodd" d="M139.218 34.0428C140.872 34.0428 142.212 32.6486 142.212 30.9287C142.212 30.7909 142.014 30.7732 141.953 30.8947C141.62 31.5532 140.965 32.001 140.211 32.001C139.12 32.001 138.236 31.0639 138.236 29.9078C138.236 29.1198 138.647 28.4335 139.254 28.0764C139.362 28.0128 139.342 27.8146 139.218 27.8146C137.565 27.8146 136.225 29.2088 136.225 30.9287C136.225 32.6486 137.565 34.0428 139.218 34.0428Z" fill="white"/>
<path d="M1293.5 108.96C1293.5 117.165 1298.61 124.209 1305.74 126.574L1308.63 129.928C1309.23 130.627 1310.11 131.03 1311.03 131.03C1311.96 131.03 1312.84 130.623 1313.44 129.918L1316.31 126.558C1323.42 124.178 1328.5 117.147 1328.5 108.96C1328.5 98.8484 1320.75 90.5 1311 90.5C1301.25 90.5 1293.5 98.8484 1293.5 108.96Z" fill="#4D7571" stroke="white" stroke-width="3"/>
<path d="M1318.14 108.503C1319.79 110.776 1319.06 112.367 1318.34 113.638C1318.22 113.861 1317.99 113.996 1317.74 113.996H1304.28C1304.03 113.996 1303.8 113.861 1303.68 113.638C1302.96 112.367 1302.23 110.776 1303.88 108.503C1304.16 108.088 1305.17 107.223 1306.29 106.585C1307.8 105.78 1310.68 103.815 1310.8 102.898V102.7C1310.8 102.575 1310.89 102.475 1311.01 102.475C1311.13 102.475 1311.22 102.575 1311.22 102.7V102.898C1311.33 103.815 1314.22 105.78 1315.73 106.585C1316.84 107.223 1317.85 108.088 1318.14 108.503Z" fill="white"/>
<path d="M1318.1 115.046H1303.92C1303.64 115.046 1303.38 115.223 1303.27 115.496L1302.89 116.446C1302.69 116.934 1303.03 117.477 1303.53 117.477H1318.48C1318.99 117.477 1319.32 116.934 1319.13 116.446L1318.75 115.496C1318.64 115.223 1318.38 115.046 1318.1 115.046Z" fill="white"/>
<path fill-rule="evenodd" clip-rule="evenodd" d="M1311.22 103.043C1312.87 103.043 1314.21 101.649 1314.21 99.9287C1314.21 99.7909 1314.01 99.7732 1313.95 99.8947C1313.62 100.553 1312.96 101.001 1312.21 101.001C1311.12 101.001 1310.24 100.064 1310.24 98.9078C1310.24 98.1198 1310.65 97.4335 1311.25 97.0764C1311.36 97.0128 1311.34 96.8146 1311.22 96.8146C1309.57 96.8146 1308.23 98.2088 1308.23 99.9287C1308.23 101.649 1309.57 103.043 1311.22 103.043Z" fill="white"/>
<defs>
<filter id="filter0_d_4_252" x="946" y="9" width="140" height="60" filterUnits="userSpaceOnUse" color-interpolation-filters="sRGB">
<feFlood flood-opacity="0" result="BackgroundImageFix"/>
<feColorMatrix in="SourceAlpha" type="matrix" values="0 0 0 0 0 0 0 0 0 0 0 0 0 0 0 0 0 0 127 0" result="hardAlpha"/>
<feOffset/>
<feComposite in2="hardAlpha" operator="out"/>
<feColorMatrix type="matrix" values="0 0 0 0 0 0 0 0 0 0 0 0 0 0 0 0 0 0 0.1 0"/>
<feBlend mode="normal" in2="BackgroundImageFix" result="effect1_dropShadow_4_252"/>
<feBlend mode="normal" in="SourceGraphic" in2="effect1_dropShadow_4_252" result="shape"/>
</filter>
<filter id="filter1_b_4_252" x="816" y="-121" width="400" height="320" filterUnits="userSpaceOnUse" color-interpolation-filters="sRGB">
<feFlood flood-opacity="0" result="BackgroundImageFix"/>
<feGaussianBlur in="BackgroundImageFix" stdDeviation="65"/>
<feComposite in2="SourceAlpha" operator="in" result="effect1_backgroundBlur_4_252"/>
<feBlend mode="normal" in="SourceGraphic" in2="effect1_backgroundBlur_4_252" result="shape"/>
</filter>
<filter id="filter2_d_4_252" x="407" y="56" width="140" height="60" filterUnits="userSpaceOnUse" color-interpolation-filters="sRGB">
<feFlood flood-opacity="0" result="BackgroundImageFix"/>
<feColorMatrix in="SourceAlpha" type="matrix" values="0 0 0 0 0 0 0 0 0 0 0 0 0 0 0 0 0 0 127 0" result="hardAlpha"/>
<feOffset/>
<feComposite in2="hardAlpha" operator="out"/>
<feColorMatrix type="matrix" values="0 0 0 0 0 0 0 0 0 0 0 0 0 0 0 0 0 0 0.1 0"/>
<feBlend mode="normal" in2="BackgroundImageFix" result="effect1_dropShadow_4_252"/>
<feBlend mode="normal" in="SourceGraphic" in2="effect1_dropShadow_4_252" result="shape"/>
</filter>
<filter id="filter3_b_4_252" x="277" y="-74" width="400" height="320" filterUnits="userSpaceOnUse" color-interpolation-filters="sRGB">
<feFlood flood-opacity="0" result="BackgroundImageFix"/>
<feGaussianBlur in="BackgroundImageFix" stdDeviation="65"/>
<feComposite in2="SourceAlpha" operator="in" result="effect1_backgroundBlur_4_252"/>
<feBlend mode="normal" in="SourceGraphic" in2="effect1_backgroundBlur_4_252" result="shape"/>
</filter>
</defs>
</svg>
