<svg width="387" height="170" viewBox="0 0 387 170" fill="none" xmlns="http://www.w3.org/2000/svg">
<g filter="url(#filter0_d_11_799)">
<g filter="url(#filter1_b_11_799)">
<rect x="22" y="20.3572" width="143" height="61" rx="13" fill="white"/>
</g>
</g>
<path d="M40.8626 50.7001V41.5404H42.5067L45.471 48.8529H45.5091L48.4798 41.5404H50.1175V50.7001H48.8226V43.9398H48.7781L46.0169 50.7001H44.9632L42.202 43.9398H42.1575V50.7001H40.8626ZM53.3466 50.8207C52.0136 50.8207 51.1186 50.0018 51.1186 48.8021V48.7894C51.1186 47.6278 52.02 46.9169 53.6005 46.8217L55.416 46.7137V46.2123C55.416 45.476 54.9399 45.0316 54.0893 45.0316C53.2958 45.0316 52.8071 45.4061 52.6928 45.9393L52.6801 45.9965H51.3852L51.3916 45.9266C51.4868 44.7777 52.4833 43.8954 54.1274 43.8954C55.7587 43.8954 56.7934 44.7587 56.7934 46.098V50.7001H55.416V49.6464H55.3906C55.0034 50.3636 54.229 50.8207 53.3466 50.8207ZM52.5024 48.7704C52.5024 49.3544 52.9848 49.7225 53.7211 49.7225C54.686 49.7225 55.416 49.0687 55.416 48.1991V47.6786L53.7846 47.7802C52.9594 47.8309 52.5024 48.1927 52.5024 48.7577V48.7704ZM60.5494 50.8334C58.88 50.8334 57.9024 50.0082 57.7628 48.7894L57.7564 48.7323H59.1148L59.1275 48.7958C59.2545 49.4115 59.7115 49.7733 60.5557 49.7733C61.3809 49.7733 61.8761 49.4305 61.8761 48.891V48.8846C61.8761 48.453 61.6348 48.2054 60.9176 48.0341L59.8258 47.7865C58.5562 47.4945 57.9278 46.8851 57.9278 45.9139V45.9076C57.9278 44.7142 58.9688 43.8954 60.505 43.8954C62.0855 43.8954 63.0377 44.7777 63.1075 45.9139L63.1138 45.9901H61.8253L61.8189 45.9457C61.7364 45.3617 61.2794 44.9554 60.505 44.9554C59.7686 44.9554 59.3053 45.3046 59.3053 45.8378V45.8441C59.3053 46.2567 59.5782 46.536 60.2955 46.7074L61.3809 46.955C62.7457 47.2723 63.2662 47.8119 63.2662 48.7704V48.7767C63.2662 49.9955 62.1236 50.8334 60.5494 50.8334ZM64.9846 42.994C64.5402 42.994 64.1848 42.6385 64.1848 42.2069C64.1848 41.7689 64.5402 41.4135 64.9846 41.4135C65.4353 41.4135 65.7844 41.7689 65.7844 42.2069C65.7844 42.6385 65.4353 42.994 64.9846 42.994ZM63.4865 52.9344C63.3786 52.9344 63.258 52.9281 63.1691 52.9218V51.7982C63.2326 51.7982 63.2961 51.8046 63.3659 51.8046C64.0451 51.8046 64.299 51.5887 64.299 50.9159V44.0223H65.6701V50.9286C65.6701 52.287 64.9655 52.9344 63.4865 52.9344ZM67.7503 42.994C67.306 42.994 66.9505 42.6385 66.9505 42.2069C66.9505 41.7689 67.306 41.4135 67.7503 41.4135C68.201 41.4135 68.5501 41.7689 68.5501 42.2069C68.5501 42.6385 68.201 42.994 67.7503 42.994ZM67.0648 50.7001V44.0223H68.4359V50.7001H67.0648ZM72.268 50.8334C70.5669 50.8334 69.4751 49.4877 69.4751 47.3612V47.3549C69.4751 45.2284 70.5796 43.8954 72.2553 43.8954C73.2011 43.8954 73.9629 44.3715 74.3628 45.1586H74.3881V41.5404H75.7656V50.7001H74.3881V49.5702H74.3628C73.9629 50.351 73.2265 50.8334 72.268 50.8334ZM72.6298 49.6527C73.6645 49.6527 74.3945 48.7513 74.3945 47.3612V47.3549C74.3945 45.9711 73.6582 45.0697 72.6298 45.0697C71.5507 45.0697 70.8779 45.9457 70.8779 47.3549V47.3612C70.8779 48.7831 71.5444 49.6527 72.6298 49.6527ZM79.1452 50.7001L82.4777 41.5404H84.0139L87.3401 50.7001H85.8484L85.0105 48.2245H81.4812L80.6369 50.7001H79.1452ZM83.2331 43.0575L81.862 47.0819H84.6233L83.2585 43.0575H83.2331ZM88.1634 50.7001V41.5404H89.5345V50.7001H88.1634ZM90.9609 47.6024V46.3646H95.0425V47.6024H90.9609ZM96.5895 50.7001V41.5404H98.2335L101.198 48.8529H101.236L104.207 41.5404H105.844V50.7001H104.549V43.9398H104.505L101.744 50.7001H100.69L97.9288 43.9398H97.8844V50.7001H96.5895ZM109.562 50.8334C108.096 50.8334 107.258 49.8876 107.258 48.3514V44.0223H108.629V48.0848C108.629 49.0941 109.099 49.6527 110.051 49.6527C111.016 49.6527 111.638 48.9608 111.638 47.9198V44.0223H113.015V50.7001H111.638V49.6971H111.606C111.257 50.37 110.578 50.8334 109.562 50.8334ZM114.347 50.7001V41.5404H115.718V45.1205H115.749C116.105 44.3461 116.822 43.8954 117.819 43.8954C119.247 43.8954 120.186 44.9618 120.186 46.5741V50.7001H118.815V46.8344C118.815 45.7299 118.257 45.0697 117.292 45.0697C116.346 45.0697 115.718 45.7933 115.718 46.8344V50.7001H114.347ZM123.403 50.8207C122.07 50.8207 121.175 50.0018 121.175 48.8021V48.7894C121.175 47.6278 122.076 46.9169 123.657 46.8217L125.472 46.7137V46.2123C125.472 45.476 124.996 45.0316 124.145 45.0316C123.352 45.0316 122.863 45.4061 122.749 45.9393L122.736 45.9965H121.441L121.448 45.9266C121.543 44.7777 122.54 43.8954 124.184 43.8954C125.815 43.8954 126.85 44.7587 126.85 46.098V50.7001H125.472V49.6464H125.447C125.06 50.3636 124.285 50.8207 123.403 50.8207ZM122.559 48.7704C122.559 49.3544 123.041 49.7225 123.777 49.7225C124.742 49.7225 125.472 49.0687 125.472 48.1991V47.6786L123.841 47.7802C123.016 47.8309 122.559 48.1927 122.559 48.7577V48.7704ZM128.835 42.994C128.39 42.994 128.035 42.6385 128.035 42.2069C128.035 41.7689 128.39 41.4135 128.835 41.4135C129.285 41.4135 129.634 41.7689 129.634 42.2069C129.634 42.6385 129.285 42.994 128.835 42.994ZM127.337 52.9344C127.229 52.9344 127.108 52.9281 127.019 52.9218V51.7982C127.083 51.7982 127.146 51.8046 127.216 51.8046C127.895 51.8046 128.149 51.5887 128.149 50.9159V44.0223H129.52V50.9286C129.52 52.287 128.816 52.9344 127.337 52.9344ZM131.6 42.994C131.156 42.994 130.801 42.6385 130.801 42.2069C130.801 41.7689 131.156 41.4135 131.6 41.4135C132.051 41.4135 132.4 41.7689 132.4 42.2069C132.4 42.6385 132.051 42.994 131.6 42.994ZM130.915 50.7001V44.0223H132.286V50.7001H130.915ZM133.623 50.7001V44.0223H134.994V45.1649H135.026C135.242 44.3842 135.801 43.8954 136.562 43.8954C136.759 43.8954 136.931 43.9271 137.038 43.9462V45.222C136.931 45.1776 136.689 45.1459 136.423 45.1459C135.54 45.1459 134.994 45.7235 134.994 46.7201V50.7001H133.623ZM138.554 42.994C138.109 42.994 137.754 42.6385 137.754 42.2069C137.754 41.7689 138.109 41.4135 138.554 41.4135C139.004 41.4135 139.354 41.7689 139.354 42.2069C139.354 42.6385 139.004 42.994 138.554 42.994ZM137.868 50.7001V44.0223H139.239V50.7001H137.868ZM140.577 50.7001V44.0223H141.948V45.0316H141.98C142.329 44.3524 143.014 43.8954 144.024 43.8954C145.49 43.8954 146.334 44.8412 146.334 46.3773V50.7001H144.957V46.6376C144.957 45.6346 144.487 45.0697 143.535 45.0697C142.57 45.0697 141.948 45.7679 141.948 46.809V50.7001H140.577Z" fill="#496F6B"/>
<path d="M58.572 66.1072V58.3567H63.3738V59.2268H59.5388V61.7136H63.1751V62.573H59.5388V65.2371H63.3738V66.1072H58.572ZM66.555 66.2146C65.2391 66.2146 64.4442 65.5432 64.3314 64.5442L64.326 64.4958H65.2606L65.2713 64.5496C65.3841 65.1082 65.7977 65.4358 66.5604 65.4358C67.3177 65.4358 67.7689 65.1189 67.7689 64.614V64.6086C67.7689 64.2058 67.5594 63.9802 66.9256 63.8245L66.0394 63.6096C64.9867 63.3572 64.4764 62.8684 64.4764 62.0627V62.0574C64.4764 61.0959 65.3197 60.4138 66.5282 60.4138C67.7528 60.4138 68.5316 61.1282 68.6014 62.0627L68.6068 62.1326H67.7152L67.7098 62.095C67.6346 61.5525 67.221 61.1926 66.5282 61.1926C65.8514 61.1926 65.4325 61.5203 65.4325 62.0144V62.0198C65.4325 62.4011 65.6849 62.6643 66.3026 62.8147L67.1888 63.0295C68.3167 63.3035 68.725 63.7493 68.725 64.5442V64.5496C68.725 65.5271 67.8011 66.2146 66.555 66.2146ZM71.5785 66.2146C70.5527 66.2146 70.0478 65.7527 70.0478 64.6838V61.2947H69.2314V60.5212H70.0478V59.012H71.0146V60.5212H72.0781V61.2947H71.0146V64.6785C71.0146 65.2747 71.2778 65.4412 71.7773 65.4412C71.8901 65.4412 71.9975 65.425 72.0781 65.4197V66.177C71.9599 66.1931 71.7612 66.2146 71.5785 66.2146ZM73.6748 59.5759C73.3526 59.5759 73.0894 59.3127 73.0894 58.9905C73.0894 58.6628 73.3526 58.405 73.6748 58.405C74.0025 58.405 74.2603 58.6628 74.2603 58.9905C74.2603 59.3127 74.0025 59.5759 73.6748 59.5759ZM73.2075 66.1072V60.5212H74.1421V66.1072H73.2075ZM75.4811 66.1072V60.5212H76.4156V61.3376H76.4371C76.6896 60.7844 77.2481 60.4138 77.9679 60.4138C78.7306 60.4138 79.2945 60.8059 79.5362 61.488H79.5577C79.8692 60.8167 80.5245 60.4138 81.3087 60.4138C82.4151 60.4138 83.1295 61.1389 83.1295 62.2507V66.1072H82.1949V62.4656C82.1949 61.6975 81.7706 61.241 81.0348 61.241C80.2936 61.241 79.7726 61.7942 79.7726 62.5569V66.1072H78.838V62.3635C78.838 61.6868 78.3868 61.241 77.6939 61.241C76.9527 61.241 76.4156 61.8264 76.4156 62.6052V66.1072H75.4811ZM86.0207 66.2146C84.9089 66.2146 84.1623 65.5432 84.1623 64.5281V64.5173C84.1623 63.5667 84.9035 62.9705 86.1872 62.8953L87.7878 62.804V62.3367C87.7878 61.6545 87.342 61.241 86.5632 61.241C85.8434 61.241 85.3923 61.5847 85.2848 62.0842L85.2741 62.1326H84.3718L84.3771 62.0735C84.4577 61.155 85.258 60.4138 86.5739 60.4138C87.8952 60.4138 88.7223 61.1282 88.7223 62.2454V66.1072H87.7878V65.1995H87.7663C87.4387 65.8118 86.7673 66.2146 86.0207 66.2146ZM85.1183 64.5281C85.1183 65.0652 85.5588 65.4036 86.2302 65.4036C87.111 65.4036 87.7878 64.7966 87.7878 63.9856V63.5291L86.2946 63.6204C85.548 63.6633 85.1183 63.9963 85.1183 64.5173V64.5281ZM91.9573 66.2146C90.6414 66.2146 89.8465 65.5432 89.7337 64.5442L89.7283 64.4958H90.6629L90.6736 64.5496C90.7864 65.1082 91.2 65.4358 91.9627 65.4358C92.72 65.4358 93.1712 65.1189 93.1712 64.614V64.6086C93.1712 64.2058 92.9617 63.9802 92.3279 63.8245L91.4417 63.6096C90.3889 63.3572 89.8787 62.8684 89.8787 62.0627V62.0574C89.8787 61.0959 90.7219 60.4138 91.9304 60.4138C93.155 60.4138 93.9339 61.1282 94.0037 62.0627L94.0091 62.1326H93.1175L93.1121 62.095C93.0369 61.5525 92.6233 61.1926 91.9304 61.1926C91.2537 61.1926 90.8347 61.5203 90.8347 62.0144V62.0198C90.8347 62.4011 91.0872 62.6643 91.7049 62.8147L92.5911 63.0295C93.719 63.3035 94.1272 63.7493 94.1272 64.5442V64.5496C94.1272 65.5271 93.2034 66.2146 91.9573 66.2146ZM95.6918 59.5759C95.3695 59.5759 95.1063 59.3127 95.1063 58.9905C95.1063 58.6628 95.3695 58.405 95.6918 58.405C96.0194 58.405 96.2772 58.6628 96.2772 58.9905C96.2772 59.3127 96.0194 59.5759 95.6918 59.5759ZM95.2245 66.1072V60.5212H96.159V66.1072H95.2245ZM98.0727 62.0251C97.7289 62.0251 97.4604 61.7566 97.4604 61.4128C97.4604 61.0691 97.7289 60.8005 98.0727 60.8005C98.4164 60.8005 98.685 61.0691 98.685 61.4128C98.685 61.7566 98.4164 62.0251 98.0727 62.0251ZM98.0727 66.1824C97.7289 66.1824 97.4604 65.9138 97.4604 65.5701C97.4604 65.2263 97.7289 64.9578 98.0727 64.9578C98.4164 64.9578 98.685 65.2263 98.685 65.5701C98.685 65.9138 98.4164 66.1824 98.0727 66.1824ZM104.972 66.2361C103.189 66.2361 102.131 64.6946 102.131 62.2346V62.2239C102.131 59.7639 103.189 58.2278 104.972 58.2278C106.755 58.2278 107.824 59.7639 107.824 62.2239V62.2346C107.824 64.6946 106.755 66.2361 104.972 66.2361ZM104.972 65.3928C106.154 65.3928 106.852 64.179 106.852 62.2346V62.2239C106.852 60.2795 106.154 59.0764 104.972 59.0764C103.791 59.0764 103.103 60.2795 103.103 62.2239V62.2346C103.103 64.179 103.791 65.3928 104.972 65.3928ZM112.692 66.1072V64.4958H108.798V63.6204L112.198 58.3567H113.627V63.6472H114.722V64.4958H113.627V66.1072H112.692ZM109.754 63.6472H112.692V59.1838H112.66L109.754 63.6257V63.6472ZM116.276 66.1824C115.932 66.1824 115.664 65.9138 115.664 65.5701C115.664 65.2263 115.932 64.9578 116.276 64.9578C116.62 64.9578 116.888 65.2263 116.888 65.5701C116.888 65.9138 116.62 66.1824 116.276 66.1824ZM118.152 66.1072V65.4412L120.881 62.5945C121.928 61.5042 122.17 61.0852 122.17 60.4407V60.4299C122.164 59.6404 121.568 59.071 120.725 59.071C119.758 59.071 119.038 59.7371 119.038 60.5696V60.5964H118.104V60.5642C118.104 59.2214 119.264 58.2278 120.709 58.2278C122.111 58.2278 123.137 59.1677 123.137 60.3816V60.3923C123.137 61.241 122.744 61.8801 121.321 63.3357L119.479 65.2263V65.2478H123.265V66.1072H118.152ZM127.865 66.1072V64.4958H123.971V63.6204L127.371 58.3567H128.799V63.6472H129.895V64.4958H128.799V66.1072H127.865ZM124.927 63.6472H127.865V59.1838H127.832L124.927 63.6257V63.6472Z" fill="#898989"/>
<rect x="43" y="16" width="103" height="17" rx="8.5" fill="#74B0AA"/>
<path d="M60.5723 28.1343C58.73 28.1343 57.543 27.291 57.4517 25.8623L57.4463 25.7764H58.977L58.9878 25.8354C59.0898 26.437 59.729 26.813 60.6152 26.813C61.5122 26.813 62.0762 26.4209 62.0762 25.8301V25.8247C62.0762 25.2983 61.6948 25.0352 60.7334 24.8364L59.917 24.6753C58.3862 24.3691 57.6128 23.6387 57.6128 22.4731V22.4678C57.6128 21.0498 58.8481 20.1152 60.5669 20.1152C62.3608 20.1152 63.4619 21.0122 63.5371 22.3711L63.5425 22.4731H62.0117L62.0063 22.4087C61.9258 21.8018 61.3672 21.4312 60.5669 21.4312C59.7344 21.4365 59.2349 21.8179 59.2349 22.3711V22.3765C59.2349 22.8652 59.6323 23.1499 60.5239 23.3271L61.3457 23.4937C62.9678 23.8159 63.6982 24.4766 63.6982 25.6958V25.7012C63.6982 27.189 62.5273 28.1343 60.5723 28.1343ZM66.5841 28.1182C65.3165 28.1182 64.5968 27.3071 64.5968 25.959V22.2422H66.1651V25.6313C66.1651 26.3833 66.5196 26.8184 67.2232 26.8184C67.9268 26.8184 68.3726 26.3027 68.3726 25.5508V22.2422H69.941V28H68.3726V27.0493H68.3404C68.045 27.71 67.4542 28.1182 66.5841 28.1182ZM74.4381 28.1182C73.611 28.1182 72.9772 27.6992 72.6657 27.0171H72.6335V28H71.0651V20.2495H72.6335V23.2412H72.6657C72.9826 22.543 73.6217 22.124 74.4435 22.124C75.8883 22.124 76.7853 23.2412 76.7853 25.1157V25.1211C76.7853 26.9902 75.8883 28.1182 74.4381 28.1182ZM73.9172 26.8184C74.696 26.8184 75.1901 26.1685 75.1901 25.1211V25.1157C75.1901 24.063 74.696 23.4238 73.9172 23.4238C73.1598 23.4238 72.6335 24.0791 72.6335 25.1157V25.1211C72.6335 26.1631 73.1545 26.8184 73.9172 26.8184ZM79.6174 28.1182C78.3499 28.1182 77.6301 27.3071 77.6301 25.959V22.2422H79.1985V25.6313C79.1985 26.3833 79.553 26.8184 80.2566 26.8184C80.9602 26.8184 81.406 26.3027 81.406 25.5508V22.2422H82.9744V28H81.406V27.0493H81.3738C81.0784 27.71 80.4875 28.1182 79.6174 28.1182ZM84.0985 28V20.2495H85.6668V23.2358H85.6991C85.9945 22.5215 86.6014 22.124 87.4661 22.124C88.7122 22.124 89.4857 22.9941 89.4857 24.3853V28H87.9173V24.7075C87.9173 23.9019 87.5199 23.4238 86.8055 23.4238C86.1126 23.4238 85.6668 23.9502 85.6668 24.7021V28H84.0985ZM94.8706 29.8799C93.7588 28.5425 93.2754 26.9902 93.2754 25.0674C93.2754 23.1284 93.7588 21.5762 94.8706 20.2495H96.3101C95.5098 21.1841 94.8921 23.2305 94.8921 25.062C94.8921 26.8882 95.5098 28.9346 96.3101 29.8799H94.8706ZM100.173 28.1343C98.2076 28.1343 97.0152 26.5928 97.0152 24.1274V24.1167C97.0152 21.6514 98.2076 20.1152 100.173 20.1152C102.139 20.1152 103.332 21.6514 103.332 24.1167V24.1274C103.332 26.5928 102.139 28.1343 100.173 28.1343ZM100.173 26.8345C101.14 26.8345 101.693 25.8301 101.693 24.1274V24.1167C101.693 22.4141 101.14 21.415 100.173 21.415C99.2066 21.415 98.6534 22.4141 98.6534 24.1167V24.1274C98.6534 25.8301 99.2066 26.8345 100.173 26.8345ZM108.092 28V26.5767H104.236V25.2231L107.345 20.2495H109.633V25.2822H110.654V26.5767H109.633V28H108.092ZM105.648 25.3252H108.124V21.4204H108.087L105.648 25.2822V25.3252ZM112.364 28.0913C111.875 28.0913 111.493 27.7046 111.493 27.2212C111.493 26.7324 111.875 26.3511 112.364 26.3511C112.847 26.3511 113.234 26.7324 113.234 27.2212C113.234 27.7046 112.847 28.0913 112.364 28.0913ZM114.304 28V26.8882L117.043 24.3262C118.042 23.3916 118.252 23.0103 118.252 22.4731V22.4624C118.246 21.8286 117.763 21.3774 117.076 21.3774C116.281 21.3774 115.743 21.8984 115.722 22.5967L115.717 22.645H114.213V22.6021C114.213 21.1411 115.427 20.1152 117.065 20.1152C118.703 20.1152 119.831 21.0498 119.831 22.3711V22.3818C119.831 23.3218 119.385 23.9341 118.048 25.1641L116.426 26.6465V26.7109H119.938V28H114.304ZM123.963 20.1152C125.832 20.1152 127.196 21.4258 127.196 24.0522V24.063C127.196 26.6035 125.966 28.1343 123.947 28.1343C122.448 28.1343 121.32 27.2642 121.089 26.0664L121.079 26.0181H122.679L122.695 26.061C122.889 26.5283 123.318 26.8452 123.952 26.8452C125.085 26.8452 125.58 25.7656 125.639 24.396C125.644 24.2939 125.649 24.1865 125.644 24.1006H125.617C125.311 24.8203 124.548 25.3467 123.501 25.3467C122.002 25.3467 120.976 24.2886 120.976 22.833V22.8223C120.976 21.2378 122.239 20.1152 123.963 20.1152ZM123.968 24.1489C124.779 24.1489 125.402 23.585 125.402 22.7954V22.79C125.402 22.0059 124.779 21.4043 123.984 21.4043C123.195 21.4043 122.556 22.0005 122.556 22.7686V22.7793C122.556 23.585 123.163 24.1489 123.968 24.1489ZM129.335 29.8799H127.891C128.691 28.9346 129.309 26.8828 129.309 25.062C129.309 23.2305 128.691 21.1841 127.891 20.2495H129.335C130.442 21.5762 130.925 23.1284 130.925 25.0674C130.925 26.9849 130.442 28.5425 129.335 29.8799Z" fill="white"/>
<path d="M78.5 107.9C78.5 115.621 83.2992 122.256 90.013 124.494L92.705 127.619C93.2874 128.295 94.1355 128.684 95.0279 128.684C95.925 128.684 96.7771 128.291 97.3596 127.609L100.032 124.479C106.722 122.226 111.5 115.604 111.5 107.9C111.5 98.3738 104.194 90.5 95 90.5C85.8062 90.5 78.5 98.3738 78.5 107.9Z" fill="#4D7571" stroke="white" stroke-width="3"/>
<path d="M101.691 107.472C103.242 109.602 102.553 111.094 101.882 112.286C101.765 112.495 101.551 112.621 101.321 112.621H88.6951C88.4655 112.621 88.2519 112.495 88.1341 112.286C87.4637 111.094 86.7747 109.602 88.3251 107.472C88.5907 107.082 89.5378 106.271 90.5824 105.673C91.9987 104.918 94.7029 103.076 94.8091 102.217V102.031C94.8091 101.915 94.8983 101.82 95.0082 101.82C95.1183 101.82 95.2074 101.915 95.2074 102.031V102.217C95.3136 103.076 98.0179 104.918 99.4341 105.673C100.479 106.271 101.426 107.082 101.691 107.472Z" fill="white"/>
<path d="M101.659 113.605H88.3584C88.0959 113.605 87.8587 113.772 87.7558 114.028L87.3979 114.918C87.2137 115.376 87.5307 115.884 88.0005 115.884H102.017C102.486 115.884 102.803 115.376 102.619 114.918L102.261 114.028C102.158 113.772 101.921 113.605 101.659 113.605Z" fill="white"/>
<path fill-rule="evenodd" clip-rule="evenodd" d="M95.2046 102.353C96.7545 102.353 98.0109 101.046 98.0109 99.4332C98.0109 99.3039 97.8256 99.2874 97.768 99.4013C97.4561 100.019 96.8418 100.438 96.135 100.438C95.1125 100.438 94.2837 99.5599 94.2837 98.4761C94.2837 97.7373 94.6688 97.0939 95.2378 96.7591C95.3391 96.6995 95.3206 96.5137 95.2046 96.5137C93.6548 96.5137 92.3984 97.8208 92.3984 99.4332C92.3984 101.046 93.6548 102.353 95.2046 102.353Z" fill="white"/>
<path d="M307.5 123.96C307.5 132.165 312.605 139.209 319.738 141.574L322.628 144.928C323.23 145.627 324.107 146.03 325.03 146.03C325.957 146.03 326.839 145.623 327.441 144.918L330.31 141.558C337.417 139.178 342.5 132.147 342.5 123.96C342.5 113.848 334.746 105.5 325 105.5C315.254 105.5 307.5 113.848 307.5 123.96Z" fill="#4D7571" stroke="white" stroke-width="3"/>
<path d="M332.138 123.503C333.792 125.776 333.057 127.367 332.342 128.638C332.216 128.861 331.988 128.996 331.743 128.996H318.275C318.031 128.996 317.803 128.861 317.677 128.638C316.962 127.367 316.227 125.776 317.881 123.503C318.164 123.088 319.174 122.223 320.289 121.585C321.799 120.78 324.684 118.815 324.797 117.898V117.7C324.797 117.575 324.892 117.475 325.009 117.475C325.127 117.475 325.222 117.575 325.222 117.7V117.898C325.335 118.815 328.22 120.78 329.73 121.585C330.845 122.223 331.855 123.088 332.138 123.503Z" fill="white"/>
<path d="M332.102 130.046H317.915C317.635 130.046 317.382 130.223 317.272 130.496L316.891 131.446C316.694 131.934 317.032 132.477 317.533 132.477H332.484C332.985 132.477 333.323 131.934 333.127 131.446L332.745 130.496C332.635 130.223 332.382 130.046 332.102 130.046Z" fill="white"/>
<path fill-rule="evenodd" clip-rule="evenodd" d="M325.218 118.043C326.871 118.043 328.211 116.649 328.211 114.929C328.211 114.791 328.014 114.773 327.952 114.895C327.619 115.553 326.964 116.001 326.21 116.001C325.12 116.001 324.236 115.064 324.236 113.908C324.236 113.12 324.646 112.433 325.253 112.076C325.361 112.013 325.342 111.814 325.218 111.814C323.565 111.814 322.225 113.209 322.225 114.929C322.225 116.649 323.565 118.043 325.218 118.043Z" fill="white"/>
<path d="M224.5 52.96C224.5 61.165 229.605 68.209 236.738 70.5737L239.628 73.9283C240.23 74.6275 241.107 75.0296 242.03 75.0296C242.957 75.0296 243.839 74.6233 244.441 73.9178L247.31 70.5578C254.417 68.1776 259.5 61.1467 259.5 52.96C259.5 42.8484 251.746 34.5 242 34.5C232.254 34.5 224.5 42.8484 224.5 52.96Z" fill="#4D7571" stroke="white" stroke-width="3"/>
<path d="M249.138 52.503C250.792 54.7755 250.057 56.3673 249.342 57.6378C249.216 57.8607 248.988 57.9959 248.743 57.9959H235.275C235.031 57.9959 234.803 57.8607 234.677 57.6378C233.962 56.3673 233.227 54.7755 234.881 52.503C235.164 52.0879 236.174 51.2226 237.289 50.5849C238.799 49.7795 241.684 47.8148 241.797 46.8981V46.6998C241.797 46.5754 241.892 46.4746 242.009 46.4746C242.127 46.4746 242.222 46.5754 242.222 46.6998V46.8981C242.335 47.8148 245.22 49.7795 246.73 50.5849C247.845 51.2226 248.855 52.0879 249.138 52.503Z" fill="white"/>
<path d="M249.102 59.0458H234.915C234.635 59.0458 234.382 59.223 234.272 59.496L233.891 60.4457C233.694 60.9342 234.032 61.4767 234.533 61.4767H249.484C249.985 61.4767 250.323 60.9342 250.127 60.4457L249.745 59.496C249.635 59.223 249.382 59.0458 249.102 59.0458Z" fill="white"/>
<path fill-rule="evenodd" clip-rule="evenodd" d="M242.218 47.0428C243.871 47.0428 245.211 45.6486 245.211 43.9287C245.211 43.7909 245.014 43.7732 244.952 43.8947C244.619 44.5532 243.964 45.001 243.21 45.001C242.12 45.001 241.236 44.0639 241.236 42.9078C241.236 42.1198 241.646 41.4335 242.253 41.0764C242.361 41.0128 242.342 40.8146 242.218 40.8146C240.565 40.8146 239.225 42.2088 239.225 43.9287C239.225 45.6486 240.565 47.0428 242.218 47.0428Z" fill="white"/>
<defs>
<filter id="filter0_d_11_799" x="22" y="20.3572" width="143" height="61.2858" filterUnits="userSpaceOnUse" color-interpolation-filters="sRGB">
<feFlood flood-opacity="0" result="BackgroundImageFix"/>
<feColorMatrix in="SourceAlpha" type="matrix" values="0 0 0 0 0 0 0 0 0 0 0 0 0 0 0 0 0 0 127 0" result="hardAlpha"/>
<feOffset/>
<feComposite in2="hardAlpha" operator="out"/>
<feColorMatrix type="matrix" values="0 0 0 0 0 0 0 0 0 0 0 0 0 0 0 0 0 0 0.1 0"/>
<feBlend mode="normal" in2="BackgroundImageFix" result="effect1_dropShadow_11_799"/>
<feBlend mode="normal" in="SourceGraphic" in2="effect1_dropShadow_11_799" result="shape"/>
</filter>
<filter id="filter1_b_11_799" x="-108" y="-109.643" width="403" height="321" filterUnits="userSpaceOnUse" color-interpolation-filters="sRGB">
<feFlood flood-opacity="0" result="BackgroundImageFix"/>
<feGaussianBlur in="BackgroundImageFix" stdDeviation="65"/>
<feComposite in2="SourceAlpha" operator="in" result="effect1_backgroundBlur_11_799"/>
<feBlend mode="normal" in="SourceGraphic" in2="effect1_backgroundBlur_11_799" result="shape"/>
</filter>
</defs>
</svg>
