<svg width="772" height="170" viewBox="0 0 772 170" fill="none" xmlns="http://www.w3.org/2000/svg">
<g filter="url(#filter0_d_11_867)">
<g filter="url(#filter1_b_11_867)">
<rect x="423" y="25" width="140" height="60" rx="13" fill="white"/>
</g>
</g>
<path d="M442.951 55V45.8403H444.595L447.559 53.1528H447.597L450.568 45.8403H452.206V55H450.911V48.2397H450.866L448.105 55H447.051L444.29 48.2397H444.246V55H442.951ZM455.435 55.1206C454.102 55.1206 453.207 54.3018 453.207 53.1021V53.0894C453.207 51.9277 454.108 51.2168 455.689 51.1216L457.504 51.0137V50.5122C457.504 49.7759 457.028 49.3315 456.177 49.3315C455.384 49.3315 454.895 49.7061 454.781 50.2393L454.768 50.2964H453.473L453.48 50.2266C453.575 49.0776 454.571 48.1953 456.215 48.1953C457.847 48.1953 458.881 49.0586 458.881 50.3979V55H457.504V53.9463H457.479C457.091 54.6636 456.317 55.1206 455.435 55.1206ZM454.59 53.0703C454.59 53.6543 455.073 54.0225 455.809 54.0225C456.774 54.0225 457.504 53.3687 457.504 52.499V51.9785L455.873 52.0801C455.047 52.1309 454.59 52.4927 454.59 53.0576V53.0703ZM462.637 55.1333C460.968 55.1333 459.99 54.3081 459.851 53.0894L459.844 53.0322H461.203L461.216 53.0957C461.343 53.7114 461.8 54.0732 462.644 54.0732C463.469 54.0732 463.964 53.7305 463.964 53.1909V53.1846C463.964 52.7529 463.723 52.5054 463.006 52.334L461.914 52.0864C460.644 51.7944 460.016 51.1851 460.016 50.2139V50.2075C460.016 49.0142 461.057 48.1953 462.593 48.1953C464.174 48.1953 465.126 49.0776 465.196 50.2139L465.202 50.29H463.913L463.907 50.2456C463.824 49.6616 463.367 49.2554 462.593 49.2554C461.857 49.2554 461.393 49.6045 461.393 50.1377V50.144C461.393 50.5566 461.666 50.8359 462.384 51.0073L463.469 51.2549C464.834 51.5723 465.354 52.1118 465.354 53.0703V53.0767C465.354 54.2954 464.212 55.1333 462.637 55.1333ZM467.073 47.2939C466.628 47.2939 466.273 46.9385 466.273 46.5068C466.273 46.0688 466.628 45.7134 467.073 45.7134C467.523 45.7134 467.872 46.0688 467.872 46.5068C467.872 46.9385 467.523 47.2939 467.073 47.2939ZM465.575 57.2344C465.467 57.2344 465.346 57.228 465.257 57.2217V56.0981C465.321 56.0981 465.384 56.1045 465.454 56.1045C466.133 56.1045 466.387 55.8887 466.387 55.2158V48.3223H467.758V55.2285C467.758 56.5869 467.054 57.2344 465.575 57.2344ZM469.838 47.2939C469.394 47.2939 469.039 46.9385 469.039 46.5068C469.039 46.0688 469.394 45.7134 469.838 45.7134C470.289 45.7134 470.638 46.0688 470.638 46.5068C470.638 46.9385 470.289 47.2939 469.838 47.2939ZM469.153 55V48.3223H470.524V55H469.153ZM474.356 55.1333C472.655 55.1333 471.563 53.7876 471.563 51.6611V51.6548C471.563 49.5283 472.668 48.1953 474.343 48.1953C475.289 48.1953 476.051 48.6714 476.451 49.4585H476.476V45.8403H477.854V55H476.476V53.8701H476.451C476.051 54.6509 475.315 55.1333 474.356 55.1333ZM474.718 53.9526C475.753 53.9526 476.483 53.0513 476.483 51.6611V51.6548C476.483 50.271 475.746 49.3696 474.718 49.3696C473.639 49.3696 472.966 50.2456 472.966 51.6548V51.6611C472.966 53.083 473.632 53.9526 474.718 53.9526ZM481.912 55V45.8403H483.226L487.936 52.6133H487.974V45.8403H489.384V55H488.076L483.36 48.2144H483.322V55H481.912ZM493.108 55.1333C491.642 55.1333 490.804 54.1875 490.804 52.6514V48.3223H492.175V52.3848C492.175 53.394 492.645 53.9526 493.597 53.9526C494.562 53.9526 495.184 53.2607 495.184 52.2197V48.3223H496.561V55H495.184V53.9971H495.152C494.803 54.6699 494.124 55.1333 493.108 55.1333ZM497.841 55V48.3223H499.213V49.4648H499.244C499.46 48.6841 500.019 48.1953 500.78 48.1953C500.977 48.1953 501.149 48.2271 501.256 48.2461V49.522C501.149 49.4775 500.907 49.4458 500.641 49.4458C499.758 49.4458 499.213 50.0234 499.213 51.02V55H497.841ZM504.302 55.1333C502.835 55.1333 501.997 54.1875 501.997 52.6514V48.3223H503.368V52.3848C503.368 53.394 503.838 53.9526 504.79 53.9526C505.755 53.9526 506.377 53.2607 506.377 52.2197V48.3223H507.755V55H506.377V53.9971H506.345C505.996 54.6699 505.317 55.1333 504.302 55.1333ZM509.086 55V45.8403H510.457V55H509.086ZM514.516 55V45.8403H515.938V49.7124H520.641V45.8403H522.063V55H520.641V50.9438H515.938V55H514.516ZM525.775 55.1333C524.308 55.1333 523.47 54.1875 523.47 52.6514V48.3223H524.842V52.3848C524.842 53.394 525.311 53.9526 526.263 53.9526C527.228 53.9526 527.85 53.2607 527.85 52.2197V48.3223H529.228V55H527.85V53.9971H527.819C527.469 54.6699 526.79 55.1333 525.775 55.1333ZM533.003 55.1333C531.302 55.1333 530.21 53.7876 530.21 51.6611V51.6548C530.21 49.5283 531.314 48.1953 532.99 48.1953C533.936 48.1953 534.698 48.6714 535.098 49.4585H535.123V45.8403H536.5V55H535.123V53.8701H535.098C534.698 54.6509 533.961 55.1333 533.003 55.1333ZM533.365 53.9526C534.399 53.9526 535.129 53.0513 535.129 51.6611V51.6548C535.129 50.271 534.393 49.3696 533.365 49.3696C532.286 49.3696 531.613 50.2456 531.613 51.6548V51.6611C531.613 53.083 532.279 53.9526 533.365 53.9526ZM539.793 55.1206C538.46 55.1206 537.565 54.3018 537.565 53.1021V53.0894C537.565 51.9277 538.466 51.2168 540.047 51.1216L541.862 51.0137V50.5122C541.862 49.7759 541.386 49.3315 540.536 49.3315C539.742 49.3315 539.253 49.7061 539.139 50.2393L539.126 50.2964H537.832L537.838 50.2266C537.933 49.0776 538.93 48.1953 540.574 48.1953C542.205 48.1953 543.24 49.0586 543.24 50.3979V55H541.862V53.9463H541.837C541.45 54.6636 540.675 55.1206 539.793 55.1206ZM538.949 53.0703C538.949 53.6543 539.431 54.0225 540.168 54.0225C541.132 54.0225 541.862 53.3687 541.862 52.499V51.9785L540.231 52.0801C539.406 52.1309 538.949 52.4927 538.949 53.0576V53.0703Z" fill="#496F6B"/>
<path d="M458.631 70V62.2495H463.433V63.1196H459.598V65.6064H463.234V66.4658H459.598V69.1299H463.433V70H458.631ZM466.614 70.1074C465.298 70.1074 464.503 69.436 464.39 68.437L464.385 68.3887H465.319L465.33 68.4424C465.443 69.001 465.856 69.3286 466.619 69.3286C467.376 69.3286 467.828 69.0117 467.828 68.5068V68.5015C467.828 68.0986 467.618 67.873 466.984 67.7173L466.098 67.5024C465.045 67.25 464.535 66.7612 464.535 65.9556V65.9502C464.535 64.9888 465.378 64.3066 466.587 64.3066C467.812 64.3066 468.59 65.021 468.66 65.9556L468.666 66.0254H467.774L467.769 65.9878C467.693 65.4453 467.28 65.0854 466.587 65.0854C465.91 65.0854 465.491 65.4131 465.491 65.9072V65.9126C465.491 66.2939 465.744 66.5571 466.361 66.7075L467.248 66.9224C468.375 67.1963 468.784 67.6421 468.784 68.437V68.4424C468.784 69.4199 467.86 70.1074 466.614 70.1074ZM471.637 70.1074C470.611 70.1074 470.107 69.6455 470.107 68.5767V65.1875H469.29V64.4141H470.107V62.9048H471.073V64.4141H472.137V65.1875H471.073V68.5713C471.073 69.1675 471.337 69.334 471.836 69.334C471.949 69.334 472.056 69.3179 472.137 69.3125V70.0698C472.019 70.0859 471.82 70.1074 471.637 70.1074ZM473.734 63.4688C473.411 63.4688 473.148 63.2056 473.148 62.8833C473.148 62.5557 473.411 62.2979 473.734 62.2979C474.061 62.2979 474.319 62.5557 474.319 62.8833C474.319 63.2056 474.061 63.4688 473.734 63.4688ZM473.266 70V64.4141H474.201V70H473.266ZM475.54 70V64.4141H476.474V65.2305H476.496C476.748 64.6772 477.307 64.3066 478.027 64.3066C478.789 64.3066 479.353 64.6987 479.595 65.3809H479.616C479.928 64.7095 480.583 64.3066 481.367 64.3066C482.474 64.3066 483.188 65.0317 483.188 66.1436V70H482.254V66.3584C482.254 65.5903 481.829 65.1338 481.094 65.1338C480.352 65.1338 479.831 65.687 479.831 66.4497V70H478.897V66.2563C478.897 65.5796 478.446 65.1338 477.753 65.1338C477.011 65.1338 476.474 65.7192 476.474 66.498V70H475.54ZM486.079 70.1074C484.968 70.1074 484.221 69.436 484.221 68.4209V68.4102C484.221 67.4595 484.962 66.8633 486.246 66.7881L487.847 66.6968V66.2295C487.847 65.5474 487.401 65.1338 486.622 65.1338C485.902 65.1338 485.451 65.4775 485.344 65.9771L485.333 66.0254H484.43L484.436 65.9663C484.516 65.0479 485.317 64.3066 486.633 64.3066C487.954 64.3066 488.781 65.021 488.781 66.1382V70H487.847V69.0923H487.825C487.497 69.7046 486.826 70.1074 486.079 70.1074ZM485.177 68.4209C485.177 68.958 485.618 69.2964 486.289 69.2964C487.17 69.2964 487.847 68.6895 487.847 67.8784V67.4219L486.353 67.5132C485.607 67.5562 485.177 67.8892 485.177 68.4102V68.4209ZM492.016 70.1074C490.7 70.1074 489.905 69.436 489.792 68.437L489.787 68.3887H490.722L490.732 68.4424C490.845 69.001 491.259 69.3286 492.021 69.3286C492.779 69.3286 493.23 69.0117 493.23 68.5068V68.5015C493.23 68.0986 493.02 67.873 492.387 67.7173L491.5 67.5024C490.448 67.25 489.937 66.7612 489.937 65.9556V65.9502C489.937 64.9888 490.781 64.3066 491.989 64.3066C493.214 64.3066 493.993 65.021 494.062 65.9556L494.068 66.0254H493.176L493.171 65.9878C493.096 65.4453 492.682 65.0854 491.989 65.0854C491.312 65.0854 490.893 65.4131 490.893 65.9072V65.9126C490.893 66.2939 491.146 66.5571 491.764 66.7075L492.65 66.9224C493.778 67.1963 494.186 67.6421 494.186 68.437V68.4424C494.186 69.4199 493.262 70.1074 492.016 70.1074ZM495.75 63.4688C495.428 63.4688 495.165 63.2056 495.165 62.8833C495.165 62.5557 495.428 62.2979 495.75 62.2979C496.078 62.2979 496.336 62.5557 496.336 62.8833C496.336 63.2056 496.078 63.4688 495.75 63.4688ZM495.283 70V64.4141H496.218V70H495.283ZM498.131 65.918C497.788 65.918 497.519 65.6494 497.519 65.3057C497.519 64.9619 497.788 64.6934 498.131 64.6934C498.475 64.6934 498.744 64.9619 498.744 65.3057C498.744 65.6494 498.475 65.918 498.131 65.918ZM498.131 70.0752C497.788 70.0752 497.519 69.8066 497.519 69.4629C497.519 69.1191 497.788 68.8506 498.131 68.8506C498.475 68.8506 498.744 69.1191 498.744 69.4629C498.744 69.8066 498.475 70.0752 498.131 70.0752ZM504.306 70V63.2754H504.284L502.233 64.7041V63.7319L504.295 62.2495H505.24V70H504.306ZM510.001 62.1206C511.43 62.1206 512.944 63.1089 512.944 65.9824V65.9932C512.944 68.6035 511.832 70.1289 509.936 70.1289C508.62 70.1289 507.638 69.377 507.38 68.249L507.364 68.1792H508.347L508.368 68.2383C508.599 68.8774 509.152 69.2749 509.947 69.2749C511.392 69.2749 511.961 67.873 512.004 66.2456C512.01 66.1919 512.01 66.1382 512.01 66.0791H511.988C511.677 66.7666 510.882 67.3252 509.829 67.3252C508.352 67.3252 507.256 66.2349 507.256 64.7632V64.7524C507.256 63.2271 508.416 62.1206 510.001 62.1206ZM509.995 66.4766C511.011 66.4766 511.779 65.7568 511.779 64.7686V64.7632C511.779 63.7695 511.005 62.98 510.012 62.98C509.023 62.98 508.239 63.7534 508.239 64.731V64.7417C508.239 65.7515 508.975 66.4766 509.995 66.4766ZM514.466 70.0752C514.122 70.0752 513.853 69.8066 513.853 69.4629C513.853 69.1191 514.122 68.8506 514.466 68.8506C514.809 68.8506 515.078 69.1191 515.078 69.4629C515.078 69.8066 514.809 70.0752 514.466 70.0752ZM519.043 70.1289C517.26 70.1289 516.202 68.5874 516.202 66.1274V66.1167C516.202 63.6567 517.26 62.1206 519.043 62.1206C520.827 62.1206 521.896 63.6567 521.896 66.1167V66.1274C521.896 68.5874 520.827 70.1289 519.043 70.1289ZM519.043 69.2856C520.225 69.2856 520.923 68.0718 520.923 66.1274V66.1167C520.923 64.1724 520.225 62.9692 519.043 62.9692C517.862 62.9692 517.174 64.1724 517.174 66.1167V66.1274C517.174 68.0718 517.862 69.2856 519.043 69.2856ZM525.78 70.1289C523.997 70.1289 522.939 68.5874 522.939 66.1274V66.1167C522.939 63.6567 523.997 62.1206 525.78 62.1206C527.564 62.1206 528.632 63.6567 528.632 66.1167V66.1274C528.632 68.5874 527.564 70.1289 525.78 70.1289ZM525.78 69.2856C526.962 69.2856 527.66 68.0718 527.66 66.1274V66.1167C527.66 64.1724 526.962 62.9692 525.78 62.9692C524.599 62.9692 523.911 64.1724 523.911 66.1167V66.1274C523.911 68.0718 524.599 69.2856 525.78 69.2856Z" fill="#898989"/>
<rect x="444" y="20" width="89" height="17" rx="8.5" fill="#74B0AA"/>
<path d="M458.789 32V24.2495H460.411V32H458.789ZM464.001 32.1182C462.406 32.1182 461.519 31.3823 461.396 30.292L461.39 30.2437H462.921L462.932 30.292C463.034 30.7432 463.372 31.0063 464.001 31.0063C464.592 31.0063 464.952 30.7754 464.952 30.4048V30.3994C464.952 30.0933 464.758 29.916 464.194 29.7925L463.217 29.5884C462.099 29.3521 461.536 28.7935 461.536 27.9341V27.9287C461.536 26.833 462.481 26.124 463.947 26.124C465.478 26.124 466.332 26.9351 466.37 27.9448V27.9985H464.925L464.919 27.9556C464.866 27.542 464.527 27.2305 463.947 27.2305C463.405 27.2305 463.066 27.4722 463.066 27.8428V27.8481C463.066 28.1436 463.265 28.3369 463.845 28.4604L464.823 28.6699C466.026 28.9224 466.52 29.395 466.52 30.2437V30.249C466.52 31.377 465.483 32.1182 464.001 32.1182ZM468.229 33.896C467.923 33.896 467.612 33.8584 467.429 33.8262V32.6606C467.542 32.6821 467.725 32.7144 467.956 32.7144C468.423 32.7144 468.681 32.5801 468.82 32.188L468.89 32L466.854 26.2422H468.579L469.792 30.7432H469.835L471.055 26.2422H472.709L470.732 32.1021C470.281 33.4609 469.508 33.896 468.229 33.896ZM474.897 32.0913C473.742 32.0913 472.963 31.3662 472.963 30.3511V30.3403C472.963 29.293 473.774 28.6807 475.203 28.5894L476.626 28.5034V28.1489C476.626 27.6387 476.293 27.3218 475.681 27.3218C475.095 27.3218 474.741 27.5957 474.666 27.9663L474.655 28.0146H473.221L473.226 27.9502C473.312 26.8867 474.225 26.124 475.745 26.124C477.233 26.124 478.194 26.8921 478.194 28.0522V32H476.626V31.1406H476.594C476.266 31.7314 475.654 32.0913 474.897 32.0913ZM474.515 30.2705C474.515 30.6948 474.864 30.9473 475.407 30.9473C476.11 30.9473 476.626 30.4961 476.626 29.8945V29.481L475.439 29.5562C474.832 29.5938 474.515 29.8516 474.515 30.2598V30.2705ZM483.585 33.8799C482.473 32.5425 481.989 30.9902 481.989 29.0674C481.989 27.1284 482.473 25.5762 483.585 24.2495H485.024C484.224 25.1841 483.606 27.2305 483.606 29.062C483.606 30.8882 484.224 32.9346 485.024 33.8799H483.585ZM487.765 32V25.7373H487.733L485.756 27.0801V25.6406L487.76 24.2495H489.371V32H487.765ZM494.099 24.1152C495.968 24.1152 497.332 25.4258 497.332 28.0522V28.063C497.332 30.6035 496.102 32.1343 494.083 32.1343C492.584 32.1343 491.456 31.2642 491.225 30.0664L491.215 30.0181H492.815L492.831 30.061C493.025 30.5283 493.454 30.8452 494.088 30.8452C495.222 30.8452 495.716 29.7656 495.775 28.396C495.78 28.2939 495.786 28.1865 495.78 28.1006H495.753C495.447 28.8203 494.684 29.3467 493.637 29.3467C492.139 29.3467 491.113 28.2886 491.113 26.833V26.8223C491.113 25.2378 492.375 24.1152 494.099 24.1152ZM494.104 28.1489C494.915 28.1489 495.538 27.585 495.538 26.7954V26.79C495.538 26.0059 494.915 25.4043 494.12 25.4043C493.331 25.4043 492.692 26.0005 492.692 26.7686V26.7793C492.692 27.585 493.299 28.1489 494.104 28.1489ZM498.897 32.0913C498.408 32.0913 498.027 31.7046 498.027 31.2212C498.027 30.7324 498.408 30.3511 498.897 30.3511C499.38 30.3511 499.767 30.7324 499.767 31.2212C499.767 31.7046 499.38 32.0913 498.897 32.0913ZM503.738 32.1343C501.772 32.1343 500.58 30.5928 500.58 28.1274V28.1167C500.58 25.6514 501.772 24.1152 503.738 24.1152C505.704 24.1152 506.896 25.6514 506.896 28.1167V28.1274C506.896 30.5928 505.704 32.1343 503.738 32.1343ZM503.738 30.8345C504.705 30.8345 505.258 29.8301 505.258 28.1274V28.1167C505.258 26.4141 504.705 25.415 503.738 25.415C502.771 25.415 502.218 26.4141 502.218 28.1167V28.1274C502.218 29.8301 502.771 30.8345 503.738 30.8345ZM510.915 24.1152C512.784 24.1152 514.149 25.4258 514.149 28.0522V28.063C514.149 30.6035 512.919 32.1343 510.899 32.1343C509.401 32.1343 508.273 31.2642 508.042 30.0664L508.031 30.0181H509.631L509.648 30.061C509.841 30.5283 510.271 30.8452 510.904 30.8452C512.038 30.8452 512.532 29.7656 512.591 28.396C512.596 28.2939 512.602 28.1865 512.596 28.1006H512.569C512.263 28.8203 511.501 29.3467 510.453 29.3467C508.955 29.3467 507.929 28.2886 507.929 26.833V26.8223C507.929 25.2378 509.191 24.1152 510.915 24.1152ZM510.921 28.1489C511.732 28.1489 512.355 27.585 512.355 26.7954V26.79C512.355 26.0059 511.732 25.4043 510.937 25.4043C510.147 25.4043 509.508 26.0005 509.508 26.7686V26.7793C509.508 27.585 510.115 28.1489 510.921 28.1489ZM516.288 33.8799H514.843C515.643 32.9346 516.261 30.8828 516.261 29.062C516.261 27.2305 515.643 25.1841 514.843 24.2495H516.288C517.394 25.5762 517.878 27.1284 517.878 29.0674C517.878 30.9849 517.394 32.5425 516.288 33.8799Z" fill="white"/>
<path d="M475.5 112.8C475.5 121.005 480.605 128.049 487.738 130.414L490.628 133.768C491.23 134.467 492.107 134.869 493.03 134.869C493.957 134.869 494.839 134.463 495.441 133.758L498.31 130.398C505.417 128.017 510.5 120.987 510.5 112.8C510.5 102.688 502.746 94.3398 493 94.3398C483.254 94.3398 475.5 102.688 475.5 112.8Z" fill="#4D7571" stroke="white" stroke-width="3"/>
<path d="M500.138 112.343C501.792 114.616 501.057 116.207 500.342 117.478C500.216 117.701 499.988 117.836 499.743 117.836H486.275C486.031 117.836 485.803 117.701 485.677 117.478C484.962 116.207 484.227 114.616 485.881 112.343C486.164 111.928 487.174 111.063 488.289 110.425C489.799 109.62 492.684 107.655 492.797 106.738V106.54C492.797 106.416 492.892 106.315 493.009 106.315C493.127 106.315 493.222 106.416 493.222 106.54V106.738C493.335 107.655 496.22 109.62 497.73 110.425C498.845 111.063 499.855 111.928 500.138 112.343Z" fill="white"/>
<path d="M500.102 118.886H485.915C485.635 118.886 485.382 119.063 485.272 119.336L484.891 120.286C484.694 120.774 485.032 121.317 485.533 121.317H500.484C500.985 121.317 501.323 120.774 501.127 120.286L500.745 119.336C500.635 119.063 500.382 118.886 500.102 118.886Z" fill="white"/>
<path fill-rule="evenodd" clip-rule="evenodd" d="M493.219 106.883C494.872 106.883 496.212 105.489 496.212 103.769C496.212 103.631 496.015 103.613 495.953 103.735C495.62 104.393 494.965 104.841 494.211 104.841C493.121 104.841 492.237 103.904 492.237 102.748C492.237 101.96 492.647 101.273 493.254 100.916C493.362 100.853 493.343 100.655 493.219 100.655C491.566 100.655 490.226 102.049 490.226 103.769C490.226 105.489 491.566 106.883 493.219 106.883Z" fill="white"/>
<g filter="url(#filter2_d_11_867)">
<g filter="url(#filter3_b_11_867)">
<rect x="21" y="44" width="140" height="60" rx="13" fill="white"/>
</g>
</g>
<path d="M33.0047 74V64.8403H34.6487L37.6131 72.1528H37.6512L40.6219 64.8403H42.2596V74H40.9646V67.2397H40.9202L38.159 74H37.1053L34.344 67.2397H34.2996V74H33.0047ZM45.4887 74.1206C44.1557 74.1206 43.2607 73.3018 43.2607 72.1021V72.0894C43.2607 70.9277 44.162 70.2168 45.7426 70.1216L47.558 70.0137V69.5122C47.558 68.7759 47.0819 68.3315 46.2314 68.3315C45.4379 68.3315 44.9491 68.7061 44.8349 69.2393L44.8222 69.2964H43.5273L43.5336 69.2266C43.6288 68.0776 44.6254 67.1953 46.2694 67.1953C47.9008 67.1953 48.9355 68.0586 48.9355 69.3979V74H47.558V72.9463H47.5326C47.1454 73.6636 46.371 74.1206 45.4887 74.1206ZM44.6444 72.0703C44.6444 72.6543 45.1269 73.0225 45.8632 73.0225C46.828 73.0225 47.558 72.3687 47.558 71.499V70.9785L45.9267 71.0801C45.1015 71.1309 44.6444 71.4927 44.6444 72.0576V72.0703ZM52.6914 74.1333C51.022 74.1333 50.0445 73.3081 49.9048 72.0894L49.8985 72.0322H51.2569L51.2696 72.0957C51.3965 72.7114 51.8536 73.0732 52.6978 73.0732C53.523 73.0732 54.0181 72.7305 54.0181 72.1909V72.1846C54.0181 71.7529 53.7769 71.5054 53.0596 71.334L51.9678 71.0864C50.6983 70.7944 50.0699 70.1851 50.0699 69.2139V69.2075C50.0699 68.0142 51.1109 67.1953 52.647 67.1953C54.2276 67.1953 55.1797 68.0776 55.2496 69.2139L55.2559 69.29H53.9673L53.961 69.2456C53.8785 68.6616 53.4214 68.2554 52.647 68.2554C51.9107 68.2554 51.4473 68.6045 51.4473 69.1377V69.144C51.4473 69.5566 51.7203 69.8359 52.4375 70.0073L53.523 70.2549C54.8877 70.5723 55.4082 71.1118 55.4082 72.0703V72.0767C55.4082 73.2954 54.2657 74.1333 52.6914 74.1333ZM57.1266 66.2939C56.6823 66.2939 56.3268 65.9385 56.3268 65.5068C56.3268 65.0688 56.6823 64.7134 57.1266 64.7134C57.5773 64.7134 57.9264 65.0688 57.9264 65.5068C57.9264 65.9385 57.5773 66.2939 57.1266 66.2939ZM55.6286 76.2344C55.5207 76.2344 55.4001 76.228 55.3112 76.2217V75.0981C55.3747 75.0981 55.4382 75.1045 55.508 75.1045C56.1872 75.1045 56.4411 74.8887 56.4411 74.2158V67.3223H57.8122V74.2285C57.8122 75.5869 57.1076 76.2344 55.6286 76.2344ZM59.8924 66.2939C59.448 66.2939 59.0926 65.9385 59.0926 65.5068C59.0926 65.0688 59.448 64.7134 59.8924 64.7134C60.3431 64.7134 60.6922 65.0688 60.6922 65.5068C60.6922 65.9385 60.3431 66.2939 59.8924 66.2939ZM59.2068 74V67.3223H60.5779V74H59.2068ZM64.4101 74.1333C62.7089 74.1333 61.6171 72.7876 61.6171 70.6611V70.6548C61.6171 68.5283 62.7216 67.1953 64.3974 67.1953C65.3432 67.1953 66.1049 67.6714 66.5048 68.4585H66.5302V64.8403H67.9076V74H66.5302V72.8701H66.5048C66.1049 73.6509 65.3686 74.1333 64.4101 74.1333ZM64.7719 72.9526C65.8066 72.9526 66.5365 72.0513 66.5365 70.6611V70.6548C66.5365 69.271 65.8002 68.3696 64.7719 68.3696C63.6928 68.3696 63.0199 69.2456 63.0199 70.6548V70.6611C63.0199 72.083 63.6865 72.9526 64.7719 72.9526ZM71.9665 74V64.8403H75.5212C77.3937 64.8403 78.5744 65.9258 78.5744 67.646V67.6587C78.5744 68.9028 77.8952 69.8931 76.7971 70.2676L78.8473 74H77.2096L75.3434 70.4834H73.3884V74H71.9665ZM73.3884 69.3154H75.3815C76.4797 69.3154 77.1081 68.7124 77.1081 67.6714V67.6587C77.1081 66.6431 76.4352 66.0337 75.3434 66.0337H73.3884V69.3154ZM81.5179 74.1206C80.1849 74.1206 79.2899 73.3018 79.2899 72.1021V72.0894C79.2899 70.9277 80.1912 70.2168 81.7718 70.1216L83.5872 70.0137V69.5122C83.5872 68.7759 83.1111 68.3315 82.2606 68.3315C81.4671 68.3315 80.9783 68.7061 80.8641 69.2393L80.8514 69.2964H79.5565L79.5628 69.2266C79.658 68.0776 80.6546 67.1953 82.2986 67.1953C83.93 67.1953 84.9647 68.0586 84.9647 69.3979V74H83.5872V72.9463H83.5618C83.1746 73.6636 82.4002 74.1206 81.5179 74.1206ZM80.6736 72.0703C80.6736 72.6543 81.1561 73.0225 81.8924 73.0225C82.8572 73.0225 83.5872 72.3687 83.5872 71.499V70.9785L81.9559 71.0801C81.1307 71.1309 80.6736 71.4927 80.6736 72.0576V72.0703ZM86.9941 76.228C86.7275 76.228 86.4418 76.1963 86.2768 76.1646V75.0918C86.3847 75.1172 86.5434 75.1426 86.7275 75.1426C87.3749 75.1426 87.7304 74.9712 87.9589 74.3237L88.0732 74.0063L85.642 67.3223H87.1274L88.8095 72.7559H88.8539L90.5361 67.3223H91.9833L89.4951 74.311C88.9999 75.6948 88.3017 76.228 86.9941 76.228ZM94.5269 74.1206C93.1939 74.1206 92.2989 73.3018 92.2989 72.1021V72.0894C92.2989 70.9277 93.2003 70.2168 94.7808 70.1216L96.5963 70.0137V69.5122C96.5963 68.7759 96.1202 68.3315 95.2696 68.3315C94.4761 68.3315 93.9874 68.7061 93.8731 69.2393L93.8604 69.2964H92.5655L92.5718 69.2266C92.6671 68.0776 93.6636 67.1953 95.3077 67.1953C96.939 67.1953 97.9737 68.0586 97.9737 69.3979V74H96.5963V72.9463H96.5709C96.1837 73.6636 95.4092 74.1206 94.5269 74.1206ZM93.6827 72.0703C93.6827 72.6543 94.1651 73.0225 94.9014 73.0225C95.8663 73.0225 96.5963 72.3687 96.5963 71.499V70.9785L94.9649 71.0801C94.1397 71.1309 93.6827 71.4927 93.6827 72.0576V72.0703ZM101.277 74L104.61 64.8403H106.146L109.472 74H107.98L107.142 71.5244H103.613L102.769 74H101.277ZM105.365 66.3574L103.994 70.3818H106.755L105.39 66.3574H105.365ZM110.295 74V64.8403H111.666V74H110.295ZM113.093 70.9023V69.6646H117.174V70.9023H113.093ZM117.814 74L121.146 64.8403H122.682L126.008 74H124.517L123.679 71.5244H120.15L119.305 74H117.814ZM121.902 66.3574L120.53 70.3818H123.292L121.927 66.3574H121.902ZM126.857 74V64.8403H128.228V70.1724H128.26L130.939 67.3223H132.551L129.809 70.2041L132.659 74H131.066L128.8 71.0293L128.228 71.5942V74H126.857ZM136.815 74.1333C135.856 74.1333 135.114 73.6509 134.72 72.8701H134.688V74H133.317V64.8403H134.688V68.4585H134.72C135.12 67.6714 135.882 67.1953 136.828 67.1953C138.503 67.1953 139.608 68.5283 139.608 70.6548V70.6611C139.608 72.7876 138.51 74.1333 136.815 74.1333ZM136.453 72.9526C137.532 72.9526 138.205 72.083 138.205 70.6611V70.6548C138.205 69.2456 137.532 68.3696 136.453 68.3696C135.418 68.3696 134.682 69.271 134.682 70.6548V70.6611C134.682 72.0513 135.412 72.9526 136.453 72.9526ZM142.551 74.1206C141.218 74.1206 140.323 73.3018 140.323 72.1021V72.0894C140.323 70.9277 141.225 70.2168 142.805 70.1216L144.621 70.0137V69.5122C144.621 68.7759 144.145 68.3315 143.294 68.3315C142.501 68.3315 142.012 68.7061 141.898 69.2393L141.885 69.2964H140.59L140.596 69.2266C140.691 68.0776 141.688 67.1953 143.332 67.1953C144.963 67.1953 145.998 68.0586 145.998 69.3979V74H144.621V72.9463H144.595C144.208 73.6636 143.434 74.1206 142.551 74.1206ZM141.707 72.0703C141.707 72.6543 142.19 73.0225 142.926 73.0225C143.891 73.0225 144.621 72.3687 144.621 71.499V70.9785L142.989 71.0801C142.164 71.1309 141.707 71.4927 141.707 72.0576V72.0703ZM147.253 74V67.3223H148.624V68.4648H148.656C148.872 67.6841 149.43 67.1953 150.192 67.1953C150.389 67.1953 150.56 67.2271 150.668 67.2461V68.522C150.56 68.4775 150.319 68.4458 150.052 68.4458C149.17 68.4458 148.624 69.0234 148.624 70.02V74H147.253Z" fill="#496F6B"/>
<path d="M57.6513 89V81.2495H62.453V82.1196H58.6181V84.6064H62.2543V85.4658H58.6181V88.1299H62.453V89H57.6513ZM65.6343 89.1074C64.3184 89.1074 63.5234 88.436 63.4106 87.437L63.4053 87.3887H64.3398L64.3506 87.4424C64.4634 88.001 64.8769 88.3286 65.6396 88.3286C66.397 88.3286 66.8481 88.0117 66.8481 87.5068V87.5015C66.8481 87.0986 66.6387 86.873 66.0049 86.7173L65.1186 86.5024C64.0659 86.25 63.5557 85.7612 63.5557 84.9556V84.9502C63.5557 83.9888 64.3989 83.3066 65.6074 83.3066C66.832 83.3066 67.6108 84.021 67.6807 84.9556L67.686 85.0254H66.7944L66.7891 84.9878C66.7139 84.4453 66.3003 84.0854 65.6074 84.0854C64.9307 84.0854 64.5117 84.4131 64.5117 84.9072V84.9126C64.5117 85.2939 64.7642 85.5571 65.3818 85.7075L66.2681 85.9224C67.396 86.1963 67.8042 86.6421 67.8042 87.437V87.4424C67.8042 88.4199 66.8804 89.1074 65.6343 89.1074ZM70.6578 89.1074C69.6319 89.1074 69.127 88.6455 69.127 87.5767V84.1875H68.3106V83.4141H69.127V81.9048H70.0938V83.4141H71.1573V84.1875H70.0938V87.5713C70.0938 88.1675 70.357 88.334 70.8565 88.334C70.9693 88.334 71.0767 88.3179 71.1573 88.3125V89.0698C71.0391 89.0859 70.8404 89.1074 70.6578 89.1074ZM72.7541 82.4688C72.4318 82.4688 72.1686 82.2056 72.1686 81.8833C72.1686 81.5557 72.4318 81.2979 72.7541 81.2979C73.0817 81.2979 73.3395 81.5557 73.3395 81.8833C73.3395 82.2056 73.0817 82.4688 72.7541 82.4688ZM72.2868 89V83.4141H73.2213V89H72.2868ZM74.5603 89V83.4141H75.4949V84.2305H75.5164C75.7688 83.6772 76.3274 83.3066 77.0471 83.3066C77.8098 83.3066 78.3738 83.6987 78.6155 84.3809H78.637C78.9485 83.7095 79.6038 83.3066 80.3879 83.3066C81.4944 83.3066 82.2087 84.0317 82.2087 85.1436V89H81.2742V85.3584C81.2742 84.5903 80.8498 84.1338 80.114 84.1338C79.3728 84.1338 78.8518 84.687 78.8518 85.4497V89H77.9172V85.2563C77.9172 84.5796 77.4661 84.1338 76.7732 84.1338C76.032 84.1338 75.4949 84.7192 75.4949 85.498V89H74.5603ZM85.0999 89.1074C83.9881 89.1074 83.2415 88.436 83.2415 87.4209V87.4102C83.2415 86.4595 83.9827 85.8633 85.2664 85.7881L86.867 85.6968V85.2295C86.867 84.5474 86.4212 84.1338 85.6424 84.1338C84.9227 84.1338 84.4715 84.4775 84.3641 84.9771L84.3533 85.0254H83.451L83.4564 84.9663C83.5369 84.0479 84.3372 83.3066 85.6532 83.3066C86.9744 83.3066 87.8016 84.021 87.8016 85.1382V89H86.867V88.0923H86.8455C86.5179 88.7046 85.8465 89.1074 85.0999 89.1074ZM84.1976 87.4209C84.1976 87.958 84.638 88.2964 85.3094 88.2964C86.1903 88.2964 86.867 87.6895 86.867 86.8784V86.4219L85.3739 86.5132C84.6273 86.5562 84.1976 86.8892 84.1976 87.4102V87.4209ZM91.0365 89.1074C89.7206 89.1074 88.9257 88.436 88.8129 87.437L88.8075 87.3887H89.7421L89.7528 87.4424C89.8656 88.001 90.2792 88.3286 91.0419 88.3286C91.7992 88.3286 92.2504 88.0117 92.2504 87.5068V87.5015C92.2504 87.0986 92.0409 86.873 91.4071 86.7173L90.5209 86.5024C89.4682 86.25 88.9579 85.7612 88.9579 84.9556V84.9502C88.9579 83.9888 89.8012 83.3066 91.0097 83.3066C92.2343 83.3066 93.0131 84.021 93.0829 84.9556L93.0883 85.0254H92.1967L92.1913 84.9878C92.1161 84.4453 91.7026 84.0854 91.0097 84.0854C90.3329 84.0854 89.914 84.4131 89.914 84.9072V84.9126C89.914 85.2939 90.1664 85.5571 90.7841 85.7075L91.6703 85.9224C92.7983 86.1963 93.2065 86.6421 93.2065 87.437V87.4424C93.2065 88.4199 92.2826 89.1074 91.0365 89.1074ZM94.771 82.4688C94.4487 82.4688 94.1855 82.2056 94.1855 81.8833C94.1855 81.5557 94.4487 81.2979 94.771 81.2979C95.0986 81.2979 95.3564 81.5557 95.3564 81.8833C95.3564 82.2056 95.0986 82.4688 94.771 82.4688ZM94.3037 89V83.4141H95.2383V89H94.3037ZM97.1519 84.918C96.8082 84.918 96.5396 84.6494 96.5396 84.3057C96.5396 83.9619 96.8082 83.6934 97.1519 83.6934C97.4957 83.6934 97.7642 83.9619 97.7642 84.3057C97.7642 84.6494 97.4957 84.918 97.1519 84.918ZM97.1519 89.0752C96.8082 89.0752 96.5396 88.8066 96.5396 88.4629C96.5396 88.1191 96.8082 87.8506 97.1519 87.8506C97.4957 87.8506 97.7642 88.1191 97.7642 88.4629C97.7642 88.8066 97.4957 89.0752 97.1519 89.0752ZM103.326 89V82.2754H103.305L101.253 83.7041V82.7319L103.316 81.2495H104.261V89H103.326ZM108.962 89.1289C107.319 89.1289 106.148 88.2051 106.148 86.9053V86.8945C106.148 85.9385 106.819 85.1436 107.813 84.9126V84.8911C106.964 84.6279 106.427 83.9834 106.427 83.167V83.1562C106.427 81.9854 107.496 81.1206 108.962 81.1206C110.429 81.1206 111.497 81.9854 111.497 83.1562V83.167C111.497 83.9834 110.96 84.6279 110.112 84.8911V84.9126C111.105 85.1436 111.777 85.9385 111.777 86.8945V86.9053C111.777 88.2051 110.606 89.1289 108.962 89.1289ZM108.962 84.5312C109.897 84.5312 110.536 83.9995 110.536 83.2476V83.2368C110.536 82.4849 109.897 81.9531 108.962 81.9531C108.028 81.9531 107.389 82.4849 107.389 83.2368V83.2476C107.389 83.9995 108.028 84.5312 108.962 84.5312ZM108.962 88.2856C110.031 88.2856 110.794 87.6841 110.794 86.8462V86.8354C110.794 85.9868 110.036 85.3799 108.962 85.3799C107.888 85.3799 107.131 85.9868 107.131 86.8354V86.8462C107.131 87.6841 107.893 88.2856 108.962 88.2856ZM113.347 89.0752C113.003 89.0752 112.734 88.8066 112.734 88.4629C112.734 88.1191 113.003 87.8506 113.347 87.8506C113.69 87.8506 113.959 88.1191 113.959 88.4629C113.959 88.8066 113.69 89.0752 113.347 89.0752ZM117.924 89.1289C116.141 89.1289 115.083 87.5874 115.083 85.1274V85.1167C115.083 82.6567 116.141 81.1206 117.924 81.1206C119.708 81.1206 120.776 82.6567 120.776 85.1167V85.1274C120.776 87.5874 119.708 89.1289 117.924 89.1289ZM117.924 88.2856C119.106 88.2856 119.804 87.0718 119.804 85.1274V85.1167C119.804 83.1724 119.106 81.9692 117.924 81.9692C116.743 81.9692 116.055 83.1724 116.055 85.1167V85.1274C116.055 87.0718 116.743 88.2856 117.924 88.2856ZM123.829 89V82.2754H123.807L121.755 83.7041V82.7319L123.818 81.2495H124.763V89H123.829Z" fill="#898989"/>
<rect x="41" y="39" width="102" height="17" rx="8.5" fill="#74B0AA"/>
<path d="M56.111 51V43.2495H57.9855L60.1877 48.8193H60.2199L62.4221 43.2495H64.2966V51H62.8518V45.7578H62.8034L60.7141 51H59.6936L57.5988 45.7578H57.5559V51H56.111ZM67.1126 51.0913C65.9578 51.0913 65.179 50.3662 65.179 49.3511V49.3403C65.179 48.293 65.99 47.6807 67.4187 47.5894L68.8421 47.5034V47.1489C68.8421 46.6387 68.5091 46.3218 67.8968 46.3218C67.3113 46.3218 66.9568 46.5957 66.8816 46.9663L66.8709 47.0146H65.4368L65.4422 46.9502C65.5281 45.8867 66.4412 45.124 67.9612 45.124C69.449 45.124 70.4104 45.8921 70.4104 47.0522V51H68.8421V50.1406H68.8099C68.4822 50.7314 67.8699 51.0913 67.1126 51.0913ZM66.7312 49.2705C66.7312 49.6948 67.0804 49.9473 67.6228 49.9473C68.3265 49.9473 68.8421 49.4961 68.8421 48.8945V48.481L67.6551 48.5562C67.0481 48.5938 66.7312 48.8516 66.7312 49.2598V49.2705ZM74.1825 52.998C72.598 52.998 71.599 52.2837 71.4486 51.3599L71.4432 51.3115H72.9686L72.9847 51.3491C73.1083 51.6338 73.5272 51.8809 74.1825 51.8809C74.9935 51.8809 75.4232 51.4619 75.4232 50.8174V49.9365H75.391C75.0902 50.5381 74.4457 50.9194 73.6132 50.9194C72.1737 50.9194 71.2821 49.8452 71.2821 48.0566V48.0513C71.2821 46.2144 72.1844 45.124 73.64 45.124C74.451 45.124 75.0795 45.5537 75.391 46.2251H75.4232V45.2422H76.9916V50.8389C76.9916 52.1226 75.912 52.998 74.1825 52.998ZM74.1556 49.77C74.9237 49.77 75.4286 49.1255 75.4286 48.0942V48.0889C75.4286 47.063 74.9183 46.4238 74.1556 46.4238C73.3768 46.4238 72.8773 47.0576 72.8773 48.0889V48.0942C72.8773 49.1309 73.3715 49.77 74.1556 49.77ZM78.0888 51V45.2422H79.6572V46.2466H79.6894C79.8613 45.5376 80.3286 45.124 81 45.124C81.1718 45.124 81.333 45.1509 81.4511 45.1831V46.5635C81.3222 46.5098 81.1074 46.4775 80.8818 46.4775C80.1084 46.4775 79.6572 46.9395 79.6572 47.7773V51H78.0888ZM82.9781 44.501C82.5054 44.501 82.1402 44.1304 82.1402 43.6846C82.1402 43.2388 82.5054 42.8682 82.9781 42.8682C83.4507 42.8682 83.816 43.2388 83.816 43.6846C83.816 44.1304 83.4507 44.501 82.9781 44.501ZM82.1939 51V45.2422H83.7622V51H82.1939ZM88.2916 51.1182C87.4645 51.1182 86.8307 50.6992 86.5192 50.0171H86.4869V51H84.9186V43.2495H86.4869V46.2412H86.5192C86.8361 45.543 87.4752 45.124 88.297 45.124C89.7418 45.124 90.6388 46.2412 90.6388 48.1157V48.1211C90.6388 49.9902 89.7418 51.1182 88.2916 51.1182ZM87.7706 49.8184C88.5494 49.8184 89.0436 49.1685 89.0436 48.1211V48.1157C89.0436 47.063 88.5494 46.4238 87.7706 46.4238C87.0133 46.4238 86.4869 47.0791 86.4869 48.1157V48.1211C86.4869 49.1631 87.0079 49.8184 87.7706 49.8184ZM95.8196 52.8799C94.7078 51.5425 94.2244 49.9902 94.2244 48.0674C94.2244 46.1284 94.7078 44.5762 95.8196 43.2495H97.2591C96.4588 44.1841 95.8411 46.2305 95.8411 48.062C95.8411 49.8882 96.4588 51.9346 97.2591 52.8799H95.8196ZM99.9999 51V44.7373H99.9677L97.9911 46.0801V44.6406L99.9945 43.2495H101.606V51H99.9999ZM106.436 51.1343C104.588 51.1343 103.31 50.2158 103.31 48.8838V48.873C103.31 47.8687 104.057 47.1274 105.099 46.9233V46.8911C104.202 46.6709 103.595 46.021 103.595 45.1938V45.1831C103.595 43.9854 104.76 43.1152 106.436 43.1152C108.106 43.1152 109.277 43.9854 109.277 45.1831V45.1938C109.277 46.021 108.665 46.6709 107.773 46.8911V46.9233C108.81 47.1274 109.557 47.8687 109.557 48.873V48.8838C109.557 50.2158 108.284 51.1343 106.436 51.1343ZM106.436 46.4023C107.166 46.4023 107.671 45.9673 107.671 45.3442V45.3335C107.671 44.7158 107.161 44.2861 106.436 44.2861C105.711 44.2861 105.195 44.7158 105.195 45.3335V45.3442C105.195 45.9673 105.706 46.4023 106.436 46.4023ZM106.436 49.9526C107.279 49.9526 107.875 49.4585 107.875 48.7764V48.7656C107.875 48.0781 107.29 47.5786 106.436 47.5786C105.582 47.5786 104.991 48.0781 104.991 48.7656V48.7764C104.991 49.4585 105.587 49.9526 106.436 49.9526ZM111.314 51.0913C110.826 51.0913 110.444 50.7046 110.444 50.2212C110.444 49.7324 110.826 49.3511 111.314 49.3511C111.798 49.3511 112.185 49.7324 112.185 50.2212C112.185 50.7046 111.798 51.0913 111.314 51.0913ZM114.764 51V44.7373H114.732L112.755 46.0801V44.6406L114.759 43.2495H116.37V51H114.764ZM118.176 51V49.8882L120.916 47.3262C121.915 46.3916 122.124 46.0103 122.124 45.4731V45.4624C122.119 44.8286 121.635 44.3774 120.948 44.3774C120.153 44.3774 119.616 44.8984 119.594 45.5967L119.589 45.645H118.085V45.6021C118.085 44.1411 119.299 43.1152 120.937 43.1152C122.575 43.1152 123.703 44.0498 123.703 45.3711V45.3818C123.703 46.3218 123.258 46.9341 121.92 48.1641L120.298 49.6465V49.7109H123.811V51H118.176ZM125.966 52.8799H124.521C125.322 51.9346 125.939 49.8828 125.939 48.062C125.939 46.2305 125.322 44.1841 124.521 43.2495H125.966C127.073 44.5762 127.556 46.1284 127.556 48.0674C127.556 49.9849 127.073 51.5425 125.966 52.8799Z" fill="white"/>
<path d="M73.5 131.96C73.5 140.165 78.6055 147.209 85.738 149.574L88.6277 152.928C89.23 153.627 90.107 154.03 91.0298 154.03C91.9574 154.03 92.8385 153.623 93.4409 152.918L96.3097 149.558C103.417 147.178 108.5 140.147 108.5 131.96C108.5 121.848 100.746 113.5 91 113.5C81.2539 113.5 73.5 121.848 73.5 131.96Z" fill="#4D7571" stroke="white" stroke-width="3"/>
<path d="M98.1381 131.503C99.7919 133.776 99.0571 135.368 98.3419 136.638C98.2165 136.861 97.9885 136.996 97.7435 136.996H84.2755C84.0306 136.996 83.8027 136.861 83.6771 136.638C82.962 135.368 82.2271 133.776 83.8809 131.503C84.1641 131.088 85.1744 130.223 86.2886 129.585C87.7993 128.78 90.6838 126.815 90.7971 125.898V125.7C90.7971 125.576 90.8922 125.475 91.0095 125.475C91.1269 125.475 91.222 125.576 91.222 125.7V125.898C91.3353 126.815 94.2198 128.78 95.7305 129.585C96.8446 130.223 97.8549 131.088 98.1381 131.503Z" fill="white"/>
<path d="M98.1022 138.046H83.9152C83.6352 138.046 83.3822 138.223 83.2725 138.496L82.8907 139.446C82.6943 139.934 83.0324 140.477 83.5334 140.477H98.484C98.985 140.477 99.3232 139.934 99.1268 139.446L98.745 138.496C98.6352 138.223 98.3823 138.046 98.1022 138.046Z" fill="white"/>
<path fill-rule="evenodd" clip-rule="evenodd" d="M91.2189 126.043C92.8721 126.043 94.2122 124.649 94.2122 122.929C94.2122 122.791 94.0145 122.773 93.9531 122.895C93.6205 123.553 92.9652 124.001 92.2113 124.001C91.1206 124.001 90.2365 123.064 90.2365 121.908C90.2365 121.12 90.6473 120.434 91.2542 120.077C91.3623 120.013 91.3425 119.815 91.2189 119.815C89.5657 119.815 88.2256 121.209 88.2256 122.929C88.2256 124.649 89.5657 126.043 91.2189 126.043Z" fill="white"/>
<path d="M274.5 36.96C274.5 45.165 279.605 52.209 286.738 54.5737L289.628 57.9283C290.23 58.6275 291.107 59.0296 292.03 59.0296C292.957 59.0296 293.839 58.6233 294.441 57.9178L297.31 54.5578C304.417 52.1776 309.5 45.1467 309.5 36.96C309.5 26.8484 301.746 18.5 292 18.5C282.254 18.5 274.5 26.8484 274.5 36.96Z" fill="#4D7571" stroke="white" stroke-width="3"/>
<path d="M299.138 36.503C300.792 38.7755 300.057 40.3673 299.342 41.6378C299.216 41.8607 298.988 41.9959 298.743 41.9959H285.275C285.031 41.9959 284.803 41.8607 284.677 41.6378C283.962 40.3673 283.227 38.7755 284.881 36.503C285.164 36.0879 286.174 35.2226 287.289 34.5849C288.799 33.7795 291.684 31.8148 291.797 30.8981V30.6998C291.797 30.5754 291.892 30.4746 292.009 30.4746C292.127 30.4746 292.222 30.5754 292.222 30.6998V30.8981C292.335 31.8148 295.22 33.7795 296.73 34.5849C297.845 35.2226 298.855 36.0879 299.138 36.503Z" fill="white"/>
<path d="M299.102 43.0457H284.915C284.635 43.0457 284.382 43.2229 284.272 43.4959L283.891 44.4456C283.694 44.9341 284.032 45.4765 284.533 45.4765H299.484C299.985 45.4765 300.323 44.9341 300.127 44.4456L299.745 43.4959C299.635 43.2229 299.382 43.0457 299.102 43.0457Z" fill="white"/>
<path fill-rule="evenodd" clip-rule="evenodd" d="M292.218 31.043C293.871 31.043 295.211 29.6488 295.211 27.9288C295.211 27.791 295.014 27.7733 294.952 27.8948C294.619 28.5533 293.964 29.0011 293.21 29.0011C292.12 29.0011 291.236 28.064 291.236 26.9079C291.236 26.1199 291.646 25.4337 292.253 25.0765C292.361 25.0129 292.342 24.8147 292.218 24.8147C290.565 24.8147 289.225 26.2089 289.225 27.9288C289.225 29.6488 290.565 31.043 292.218 31.043Z" fill="white"/>
<path d="M676.5 58.96C676.5 67.165 681.605 74.209 688.738 76.5737L691.628 79.9283C692.23 80.6275 693.107 81.0296 694.03 81.0296C694.957 81.0296 695.839 80.6233 696.441 79.9178L699.31 76.5578C706.417 74.1776 711.5 67.1467 711.5 58.96C711.5 48.8484 703.746 40.5 694 40.5C684.254 40.5 676.5 48.8484 676.5 58.96Z" fill="#4D7571" stroke="white" stroke-width="3"/>
<path d="M701.138 58.503C702.792 60.7755 702.057 62.3673 701.342 63.6378C701.216 63.8607 700.988 63.9959 700.743 63.9959H687.275C687.031 63.9959 686.803 63.8607 686.677 63.6378C685.962 62.3673 685.227 60.7755 686.881 58.503C687.164 58.0879 688.174 57.2226 689.289 56.5849C690.799 55.7795 693.684 53.8148 693.797 52.8981V52.6998C693.797 52.5754 693.892 52.4746 694.009 52.4746C694.127 52.4746 694.222 52.5754 694.222 52.6998V52.8981C694.335 53.8148 697.22 55.7795 698.73 56.5849C699.845 57.2226 700.855 58.0879 701.138 58.503Z" fill="white"/>
<path d="M701.102 65.0457H686.915C686.635 65.0457 686.382 65.2229 686.272 65.4959L685.891 66.4456C685.694 66.9341 686.032 67.4765 686.533 67.4765H701.484C701.985 67.4765 702.323 66.9341 702.127 66.4456L701.745 65.4959C701.635 65.2229 701.382 65.0457 701.102 65.0457Z" fill="white"/>
<path fill-rule="evenodd" clip-rule="evenodd" d="M694.218 53.043C695.871 53.043 697.211 51.6488 697.211 49.9288C697.211 49.791 697.014 49.7733 696.952 49.8948C696.619 50.5533 695.964 51.0011 695.21 51.0011C694.12 51.0011 693.236 50.064 693.236 48.9079C693.236 48.1199 693.646 47.4337 694.253 47.0765C694.361 47.0129 694.342 46.8147 694.218 46.8147C692.565 46.8147 691.225 48.2089 691.225 49.9288C691.225 51.6488 692.565 53.043 694.218 53.043Z" fill="white"/>
<defs>
<filter id="filter0_d_11_867" x="423" y="25" width="140" height="60" filterUnits="userSpaceOnUse" color-interpolation-filters="sRGB">
<feFlood flood-opacity="0" result="BackgroundImageFix"/>
<feColorMatrix in="SourceAlpha" type="matrix" values="0 0 0 0 0 0 0 0 0 0 0 0 0 0 0 0 0 0 127 0" result="hardAlpha"/>
<feOffset/>
<feComposite in2="hardAlpha" operator="out"/>
<feColorMatrix type="matrix" values="0 0 0 0 0 0 0 0 0 0 0 0 0 0 0 0 0 0 0.1 0"/>
<feBlend mode="normal" in2="BackgroundImageFix" result="effect1_dropShadow_11_867"/>
<feBlend mode="normal" in="SourceGraphic" in2="effect1_dropShadow_11_867" result="shape"/>
</filter>
<filter id="filter1_b_11_867" x="293" y="-105" width="400" height="320" filterUnits="userSpaceOnUse" color-interpolation-filters="sRGB">
<feFlood flood-opacity="0" result="BackgroundImageFix"/>
<feGaussianBlur in="BackgroundImageFix" stdDeviation="65"/>
<feComposite in2="SourceAlpha" operator="in" result="effect1_backgroundBlur_11_867"/>
<feBlend mode="normal" in="SourceGraphic" in2="effect1_backgroundBlur_11_867" result="shape"/>
</filter>
<filter id="filter2_d_11_867" x="21" y="44" width="140" height="60" filterUnits="userSpaceOnUse" color-interpolation-filters="sRGB">
<feFlood flood-opacity="0" result="BackgroundImageFix"/>
<feColorMatrix in="SourceAlpha" type="matrix" values="0 0 0 0 0 0 0 0 0 0 0 0 0 0 0 0 0 0 127 0" result="hardAlpha"/>
<feOffset/>
<feComposite in2="hardAlpha" operator="out"/>
<feColorMatrix type="matrix" values="0 0 0 0 0 0 0 0 0 0 0 0 0 0 0 0 0 0 0.1 0"/>
<feBlend mode="normal" in2="BackgroundImageFix" result="effect1_dropShadow_11_867"/>
<feBlend mode="normal" in="SourceGraphic" in2="effect1_dropShadow_11_867" result="shape"/>
</filter>
<filter id="filter3_b_11_867" x="-109" y="-86" width="400" height="320" filterUnits="userSpaceOnUse" color-interpolation-filters="sRGB">
<feFlood flood-opacity="0" result="BackgroundImageFix"/>
<feGaussianBlur in="BackgroundImageFix" stdDeviation="65"/>
<feComposite in2="SourceAlpha" operator="in" result="effect1_backgroundBlur_11_867"/>
<feBlend mode="normal" in="SourceGraphic" in2="effect1_backgroundBlur_11_867" result="shape"/>
</filter>
</defs>
</svg>
