<svg width="743" height="206" viewBox="0 0 743 206" fill="none" xmlns="http://www.w3.org/2000/svg">
<path d="M114.673 0V145.896C114.673 167.468 109.658 182.89 99.6293 192.163C89.6002 201.246 74.2726 205.787 53.6466 205.787C42.8605 205.787 33.9667 204.368 26.9652 201.529C20.1529 198.502 14.6653 194.339 10.5022 189.04C6.52842 183.553 3.78459 177.213 2.27075 170.023C0.756918 162.832 0 155.263 0 147.315V138.516H37.4674V144.761C37.4674 155.547 38.6028 163.589 40.8736 168.887C43.3336 173.997 48.2535 176.551 55.6335 176.551C63.0134 176.551 67.8388 173.997 70.1095 168.887C72.5695 163.589 73.7995 155.547 73.7995 144.761V0H114.673Z" fill="white"/>
<path d="M321.498 202.665V0H362.372V169.171H434.752V202.665H321.498Z" fill="white"/>
<path d="M491.206 0V141.354C491.206 146.464 491.49 151.194 492.057 155.547C492.814 159.71 494.044 163.4 495.747 166.617C497.64 169.644 500.1 172.104 503.127 173.997C506.344 175.7 510.318 176.551 515.049 176.551C519.969 176.551 523.942 175.7 526.97 173.997C529.998 172.104 532.363 169.644 534.066 166.617C535.959 163.4 537.189 159.71 537.756 155.547C538.513 151.194 538.892 146.464 538.892 141.354V0H579.765V141.354C579.765 154.222 577.967 164.914 574.372 173.429C570.777 181.755 565.951 188.378 559.896 193.298C553.841 198.218 546.934 201.529 539.175 203.232C531.417 204.936 523.375 205.787 515.049 205.787C506.723 205.787 498.68 205.03 490.922 203.516C483.164 202.003 476.257 198.975 470.201 194.433C464.146 189.703 459.321 183.08 455.725 174.564C452.13 166.049 450.332 154.979 450.332 141.354V0H491.206Z" fill="white"/>
<path d="M605.619 0H681.122C698.153 0 711.399 4.35228 720.86 13.0568C730.322 21.5722 735.052 34.629 735.052 52.2273C735.052 65.8519 732.309 77.0164 726.821 85.721C721.333 94.2363 712.818 99.724 701.275 102.184V102.752C711.493 104.265 718.968 107.577 723.699 112.686C728.429 117.795 731.362 126.027 732.498 137.381C732.876 141.165 733.16 145.328 733.349 149.87C733.539 154.222 733.728 159.142 733.917 164.63C734.295 175.416 734.863 183.647 735.62 189.324C736.755 195.001 739.215 198.88 743 200.962V202.665H698.72C696.639 199.826 695.314 196.609 694.746 193.014C694.179 189.23 693.8 185.35 693.611 181.376L692.476 142.49C692.097 134.542 690.11 128.298 686.515 123.756C682.92 119.215 676.864 116.944 668.349 116.944H646.493V202.665H605.619V0ZM646.493 88.5594H663.524C673.364 88.5594 680.933 86.2887 686.231 81.7471C691.53 77.0164 694.179 69.1634 694.179 58.1881C694.179 39.4544 684.717 30.0875 665.794 30.0875H646.493V88.5594Z" fill="white"/>
<path d="M286.546 162.503L296.473 187.023C300.47 196.896 289.647 206.224 280.308 200.955L219.961 166.904C216.475 164.936 212.197 164.936 208.711 166.904L148.029 201.143C138.727 206.392 127.926 197.152 131.833 187.29L141.372 163.209L208.598 126.439C212.546 124.28 217.34 124.29 221.279 126.465L286.546 162.503Z" fill="#82CCBD"/>
<path d="M278.499 142.625L223.966 7.92488C220.142 -1.52037 206.608 -1.47054 202.856 8.00261L149.16 143.549L202.005 114.645C210.072 110.232 219.87 110.252 227.919 114.696L278.499 142.625Z" fill="#61938E"/>
</svg>
