<svg width="102" height="32" viewBox="0 0 102 32" fill="none" xmlns="http://www.w3.org/2000/svg">
<path d="M15.6429 0.042572V19.6985C15.6429 22.6048 14.9588 24.6826 13.5907 25.9318C12.2226 27.1555 10.1317 27.7674 7.31807 27.7674C5.84671 27.7674 4.63349 27.5762 3.67839 27.1937C2.74912 26.7858 2.00053 26.225 1.43264 25.5111C0.890558 24.7718 0.516266 23.9178 0.30976 22.949C0.103253 21.9802 0 20.9605 0 19.8897V18.7042H5.11103V19.5455C5.11103 20.9987 5.26591 22.0822 5.57567 22.796C5.91124 23.4844 6.58239 23.8285 7.58911 23.8285C8.59583 23.8285 9.25406 23.4844 9.56382 22.796C9.8994 22.0822 10.0672 20.9987 10.0672 19.5455V0.042572H15.6429Z" fill="#2D2D2D"/>
<path d="M43.8564 27.3467V0.042572H49.432V22.8343H59.3056V27.3467H43.8564Z" fill="#2D2D2D"/>
<path d="M67.0067 0.042572V19.0866C67.0067 19.775 67.0454 20.4123 67.1228 20.9987C67.2261 21.5596 67.3939 22.0567 67.6262 22.4901C67.8843 22.898 68.2199 23.2294 68.6329 23.4844C69.0717 23.7138 69.6138 23.8285 70.2591 23.8285C70.9303 23.8285 71.4724 23.7138 71.8854 23.4844C72.2984 23.2294 72.621 22.898 72.8534 22.4901C73.1115 22.0567 73.2793 21.5596 73.3567 20.9987C73.46 20.4123 73.5116 19.775 73.5116 19.0866V0.042572H79.0873V19.0866C79.0873 20.8202 78.8421 22.2606 78.3516 23.4079C77.8612 24.5296 77.2029 25.4219 76.3769 26.0848C75.5509 26.7476 74.6087 27.1937 73.5503 27.4232C72.492 27.6526 71.3949 27.7674 70.2591 27.7674C69.1233 27.7674 68.0263 27.6654 66.9679 27.4614C65.9096 27.2575 64.9674 26.8496 64.1414 26.2377C63.3154 25.6004 62.6571 24.7081 62.1667 23.5608C61.6762 22.4136 61.431 20.9222 61.431 19.0866V0.042572H67.0067Z" fill="#2D2D2D"/>
<path d="M82.6141 0.042572H92.9136C95.2368 0.042572 97.0437 0.628935 98.3344 1.80166C99.6251 2.9489 100.27 4.70799 100.27 7.07893C100.27 8.91451 99.8961 10.4187 99.1475 11.5914C98.399 12.7386 97.2374 13.4779 95.6627 13.8094V13.8858C97.0567 14.0898 98.0763 14.5359 98.7216 15.2243C99.3669 15.9126 99.7671 17.0216 99.9219 18.5513C99.9736 19.0611 100.012 19.622 100.038 20.2339C100.064 20.8202 100.09 21.4831 100.116 22.2224C100.167 23.6756 100.245 24.7846 100.348 25.5494C100.503 26.3142 100.838 26.8368 101.355 27.1173V27.3467H95.3143C95.0303 26.9643 94.8496 26.5309 94.7722 26.0465C94.6947 25.5366 94.6431 25.014 94.6173 24.4786L94.4624 19.2396C94.4108 18.1688 94.1397 17.3275 93.6493 16.7157C93.1588 16.1038 92.3328 15.7979 91.1712 15.7979H88.1898V27.3467H82.6141V0.042572ZM88.1898 11.9738H90.513C91.8553 11.9738 92.8878 11.6679 93.6106 11.056C94.3334 10.4187 94.6947 9.36065 94.6947 7.882C94.6947 5.35808 93.4041 4.09613 90.8227 4.09613H88.1898V11.9738Z" fill="#2D2D2D"/>
<path d="M38.9783 22.34L40.3347 25.6536C40.8808 26.9877 39.4019 28.2483 38.1259 27.5362L29.8801 22.9347C29.4037 22.6688 28.8192 22.6688 28.3429 22.9347L20.0513 27.5618C18.7803 28.271 17.3044 27.0224 17.8383 25.6896L19.1417 22.4354L28.3274 17.4664C28.8668 17.1746 29.522 17.1759 30.0602 17.4698L38.9783 22.34Z" fill="#82CCBD"/>
<path d="M37.8786 19.6537L30.4273 1.45055C29.9048 0.174139 28.0556 0.180873 27.5428 1.46106L20.2059 19.7786L27.4266 15.8725C28.5289 15.2762 29.8677 15.2788 30.9675 15.8795L37.8786 19.6537Z" fill="#4D7571"/>
</svg>
